G04 #@! TF.GenerationSoftware,KiCad,Pcbnew,6.0.11-2627ca5db0~126~ubuntu22.04.1*
G04 #@! TF.CreationDate,2023-02-09T23:48:25+01:00*
G04 #@! TF.ProjectId,PDLeech,50444c65-6563-4682-9e6b-696361645f70,rev?*
G04 #@! TF.SameCoordinates,Original*
G04 #@! TF.FileFunction,Copper,L1,Top*
G04 #@! TF.FilePolarity,Positive*
%FSLAX46Y46*%
G04 Gerber Fmt 4.6, Leading zero omitted, Abs format (unit mm)*
G04 Created by KiCad (PCBNEW 6.0.11-2627ca5db0~126~ubuntu22.04.1) date 2023-02-09 23:48:25*
%MOMM*%
%LPD*%
G01*
G04 APERTURE LIST*
G04 #@! TA.AperFunction,SMDPad,CuDef*
%ADD10R,0.300000X0.700000*%
G04 #@! TD*
G04 #@! TA.AperFunction,ComponentPad*
%ADD11C,0.650000*%
G04 #@! TD*
G04 #@! TA.AperFunction,ComponentPad*
%ADD12O,0.800000X1.400000*%
G04 #@! TD*
G04 #@! TA.AperFunction,SMDPad,CuDef*
%ADD13R,0.800000X0.300000*%
G04 #@! TD*
G04 #@! TA.AperFunction,ComponentPad*
%ADD14C,0.750000*%
G04 #@! TD*
G04 #@! TA.AperFunction,ComponentPad*
%ADD15O,2.100000X0.900000*%
G04 #@! TD*
G04 #@! TA.AperFunction,ViaPad*
%ADD16C,0.450000*%
G04 #@! TD*
G04 #@! TA.AperFunction,Conductor*
%ADD17C,0.300000*%
G04 #@! TD*
G04 #@! TA.AperFunction,Conductor*
%ADD18C,0.350000*%
G04 #@! TD*
G04 #@! TA.AperFunction,Conductor*
%ADD19C,0.254000*%
G04 #@! TD*
G04 #@! TA.AperFunction,Conductor*
%ADD20C,0.200000*%
G04 #@! TD*
G04 #@! TA.AperFunction,Conductor*
%ADD21C,0.127000*%
G04 #@! TD*
G04 APERTURE END LIST*
D10*
X139236000Y-63179000D03*
X139736000Y-63179000D03*
X140236000Y-63179000D03*
X140736000Y-63179000D03*
X141236000Y-63179000D03*
X141736000Y-63179000D03*
X142236000Y-63179000D03*
X142736000Y-63179000D03*
X143236000Y-63179000D03*
X143736000Y-63179000D03*
X144236000Y-63179000D03*
X144736000Y-63179000D03*
D11*
X144786000Y-64489000D03*
X144386000Y-65189000D03*
X143586000Y-65189000D03*
X143186000Y-64489000D03*
X142786000Y-65189000D03*
X142386000Y-64489000D03*
X141586000Y-64489000D03*
X141186000Y-65189000D03*
X140786000Y-64489000D03*
X140386000Y-65189000D03*
X139586000Y-65189000D03*
X139186000Y-64489000D03*
D12*
X146116000Y-65089000D03*
X137856000Y-65089000D03*
X146476000Y-69469000D03*
X137496000Y-69469000D03*
D13*
X162535500Y-63922500D03*
X162535500Y-64422500D03*
X162535500Y-64922500D03*
X162535500Y-65422500D03*
X162535500Y-65922500D03*
X162535500Y-66422500D03*
X162535500Y-66922500D03*
X162535500Y-67422500D03*
X162535500Y-67922500D03*
X162535500Y-68422500D03*
X162535500Y-68922500D03*
X162535500Y-69422500D03*
D14*
X164235500Y-69422500D03*
X163515500Y-68922500D03*
X164235500Y-68422500D03*
X163515500Y-67922500D03*
X164235500Y-67422500D03*
X163515500Y-66922500D03*
X164235500Y-66422500D03*
X163515500Y-65922500D03*
X164235500Y-65422500D03*
X163515500Y-64922500D03*
X164235500Y-64422500D03*
X163515500Y-63922500D03*
D15*
X162885500Y-71022500D03*
X162885500Y-62322500D03*
D16*
X151894143Y-76426762D03*
X134894143Y-63426762D03*
X132894143Y-65426762D03*
X137922000Y-61849000D03*
X132894143Y-62426762D03*
X149606000Y-72644000D03*
X148844000Y-72644000D03*
X134894143Y-73426762D03*
X135894143Y-73426762D03*
X134894143Y-64426762D03*
X132894143Y-63426762D03*
X155894143Y-76426762D03*
X153894143Y-76426762D03*
X132894143Y-73426762D03*
X147701000Y-69723000D03*
X138811000Y-60960000D03*
X159894143Y-76426762D03*
X137541000Y-62865000D03*
X147066000Y-72644000D03*
X133894143Y-63426762D03*
X161544000Y-72263000D03*
X160894143Y-76426762D03*
X158894143Y-76426762D03*
X147955000Y-72644000D03*
X157894143Y-76426762D03*
X133894143Y-62426762D03*
X133894143Y-73426762D03*
X145542000Y-69723000D03*
X132894143Y-64426762D03*
X152894143Y-76426762D03*
X133894143Y-64426762D03*
X150368000Y-72644000D03*
X136894143Y-58426762D03*
X156894143Y-76426762D03*
X133894143Y-65426762D03*
X134894143Y-65426762D03*
X134894143Y-62426762D03*
X154894143Y-76426762D03*
X161163000Y-71374000D03*
X140716000Y-63754000D03*
X160020000Y-66167000D03*
X161671000Y-67818000D03*
X143256000Y-63754000D03*
X141224000Y-62484000D03*
X160972500Y-66357500D03*
X142311000Y-69723000D03*
X141661000Y-69723000D03*
X142240000Y-62484000D03*
X161163000Y-66955481D03*
X158877000Y-67183000D03*
X147828000Y-61722000D03*
X148590000Y-62484000D03*
X143002000Y-62484000D03*
X161607500Y-65976500D03*
X149860000Y-62611000D03*
X160068500Y-62551000D03*
X158369000Y-69977000D03*
X157988000Y-67310000D03*
D17*
X141882446Y-60202000D02*
X150090554Y-60202000D01*
X150090554Y-60202000D02*
X154311054Y-64422500D01*
X154311054Y-64422500D02*
X162535500Y-64422500D01*
X139736000Y-62348446D02*
X141882446Y-60202000D01*
X139736000Y-63179000D02*
X139736000Y-62348446D01*
X149883446Y-60702000D02*
X142089554Y-60702000D01*
X158884500Y-64922500D02*
X158834500Y-64922500D01*
X162535500Y-64922500D02*
X159664500Y-64922500D01*
X159469500Y-65117500D02*
X159469500Y-65309104D01*
X159079500Y-65309104D02*
X159079500Y-65117500D01*
X142089554Y-60702000D02*
X140236000Y-62555554D01*
X140236000Y-62555554D02*
X140236000Y-63179000D01*
X158834500Y-64922500D02*
X154103946Y-64922500D01*
X154103946Y-64922500D02*
X149883446Y-60702000D01*
X158884500Y-64922500D02*
G75*
G02*
X159079500Y-65117500I0J-195000D01*
G01*
X159469500Y-65117500D02*
G75*
G02*
X159664500Y-64922500I195000J0D01*
G01*
X159079496Y-65309104D02*
G75*
G03*
X159274500Y-65504104I195004J4D01*
G01*
X159274500Y-65504100D02*
G75*
G03*
X159469500Y-65309104I0J195000D01*
G01*
D18*
X163515500Y-67922500D02*
X162535500Y-67922500D01*
D17*
X140736000Y-63179000D02*
X140736000Y-63734000D01*
D18*
X160793500Y-65393500D02*
X162506500Y-65393500D01*
D17*
X143236000Y-63734000D02*
X143256000Y-63754000D01*
D18*
X160020000Y-66167000D02*
X160793500Y-65393500D01*
X161671000Y-67818000D02*
X161775500Y-67922500D01*
X161775500Y-67922500D02*
X162535500Y-67922500D01*
D17*
X140736000Y-63734000D02*
X140716000Y-63754000D01*
X143236000Y-63179000D02*
X143236000Y-63734000D01*
D19*
X141236000Y-62496000D02*
X141236000Y-63179000D01*
X141224000Y-62484000D02*
X141236000Y-62496000D01*
X142386000Y-64489000D02*
X142386000Y-64408000D01*
D20*
X162527500Y-66430500D02*
X162535500Y-66422500D01*
D19*
X141732000Y-63183000D02*
X141736000Y-63179000D01*
D20*
X160972500Y-66357500D02*
X161045500Y-66430500D01*
D19*
X141732000Y-63754000D02*
X141732000Y-63183000D01*
D20*
X161045500Y-66430500D02*
X162527500Y-66430500D01*
D19*
X142386000Y-64408000D02*
X141732000Y-63754000D01*
D20*
X161163000Y-66955481D02*
X161195981Y-66922500D01*
X142236000Y-63179000D02*
X142236000Y-62488000D01*
X142236000Y-62488000D02*
X142240000Y-62484000D01*
X161195981Y-66922500D02*
X162535500Y-66922500D01*
D21*
X162513500Y-67400500D02*
X162535500Y-67422500D01*
D19*
X142736000Y-63179000D02*
X142736000Y-62750000D01*
X158877000Y-67183000D02*
X159385000Y-67691000D01*
X159385000Y-67691000D02*
X161036000Y-67691000D01*
D21*
X161326500Y-67400500D02*
X162513500Y-67400500D01*
X161036000Y-67691000D02*
X161326500Y-67400500D01*
D19*
X142736000Y-62750000D02*
X143002000Y-62484000D01*
D17*
X143736000Y-62285446D02*
X144422446Y-61599000D01*
X149602000Y-64412446D02*
X149602000Y-66952446D01*
X143736000Y-63179000D02*
X143736000Y-62285446D01*
X144422446Y-61599000D02*
X146788554Y-61599000D01*
X146788554Y-61599000D02*
X149602000Y-64412446D01*
X149602000Y-66952446D02*
X151072054Y-68422500D01*
X151072054Y-68422500D02*
X162535500Y-68422500D01*
X149102000Y-67159554D02*
X149102000Y-64619554D01*
X161332500Y-69172500D02*
X161332500Y-69301316D01*
X160532500Y-68922500D02*
X150864946Y-68922500D01*
X160582500Y-68922500D02*
X160532500Y-68922500D01*
X144629554Y-62099000D02*
X144236000Y-62492554D01*
X150864946Y-68922500D02*
X149102000Y-67159554D01*
X160832500Y-69301316D02*
X160832500Y-69172500D01*
X162535500Y-68922500D02*
X161582500Y-68922500D01*
X144236000Y-62492554D02*
X144236000Y-63179000D01*
X146581446Y-62099000D02*
X144629554Y-62099000D01*
X149102000Y-64619554D02*
X146581446Y-62099000D01*
X161332500Y-69172500D02*
G75*
G02*
X161582500Y-68922500I250000J0D01*
G01*
X161082500Y-69551300D02*
G75*
G03*
X161332500Y-69301316I0J250000D01*
G01*
X160582500Y-68922500D02*
G75*
G02*
X160832500Y-69172500I0J-250000D01*
G01*
X160832484Y-69301316D02*
G75*
G03*
X161082500Y-69551316I250016J16D01*
G01*
D19*
X161607500Y-65976500D02*
X161661500Y-65922500D01*
X161661500Y-65922500D02*
X162535500Y-65922500D01*
G04 #@! TA.AperFunction,Conductor*
G36*
X164576134Y-58114090D02*
G01*
X164591641Y-58117656D01*
X164598508Y-58116102D01*
X164605545Y-58116114D01*
X164605544Y-58116843D01*
X164617051Y-58116467D01*
X164677251Y-58126002D01*
X164695841Y-58132043D01*
X164763924Y-58166733D01*
X164779744Y-58178227D01*
X164833773Y-58232256D01*
X164845267Y-58248076D01*
X164879955Y-58316155D01*
X164885998Y-58334752D01*
X164895467Y-58394541D01*
X164895081Y-58405744D01*
X164895933Y-58405745D01*
X164895921Y-58412783D01*
X164894344Y-58419641D01*
X164895897Y-58426504D01*
X164895897Y-58426505D01*
X164897959Y-58435617D01*
X164899500Y-58449411D01*
X164899500Y-74784563D01*
X164881194Y-74828757D01*
X164837000Y-74847063D01*
X164792806Y-74828757D01*
X164783568Y-74816986D01*
X164763893Y-74784563D01*
X164674379Y-74637048D01*
X164666229Y-74627655D01*
X164525459Y-74465433D01*
X164525457Y-74465431D01*
X164523724Y-74463434D01*
X164345971Y-74317685D01*
X164146202Y-74203970D01*
X164143718Y-74203068D01*
X164143715Y-74203067D01*
X164045087Y-74167267D01*
X163930129Y-74125539D01*
X163703931Y-74084636D01*
X163701891Y-74084540D01*
X163701884Y-74084539D01*
X163680572Y-74083534D01*
X163680554Y-74083534D01*
X163679842Y-74083500D01*
X163518288Y-74083500D01*
X163516972Y-74083612D01*
X163516964Y-74083612D01*
X163349594Y-74097814D01*
X163349592Y-74097814D01*
X163346956Y-74098038D01*
X163344399Y-74098702D01*
X163344397Y-74098702D01*
X163332677Y-74101744D01*
X163124461Y-74155786D01*
X163122048Y-74156873D01*
X163122045Y-74156874D01*
X162917296Y-74249107D01*
X162917293Y-74249109D01*
X162914877Y-74250197D01*
X162724197Y-74378570D01*
X162722285Y-74380394D01*
X162722280Y-74380398D01*
X162643534Y-74455519D01*
X162557872Y-74537236D01*
X162420658Y-74721658D01*
X162419465Y-74724004D01*
X162419464Y-74724006D01*
X162321591Y-74916510D01*
X162316480Y-74926562D01*
X162248315Y-75146089D01*
X162218112Y-75373964D01*
X162226736Y-75603669D01*
X162273939Y-75828637D01*
X162358372Y-76042436D01*
X162477621Y-76238952D01*
X162479355Y-76240950D01*
X162479357Y-76240953D01*
X162565819Y-76340591D01*
X162628276Y-76412566D01*
X162806029Y-76558315D01*
X162808330Y-76559625D01*
X162808339Y-76559631D01*
X162957756Y-76644684D01*
X162987107Y-76682455D01*
X162981153Y-76729919D01*
X162943382Y-76759270D01*
X162926837Y-76761500D01*
X151413873Y-76761500D01*
X151399867Y-76759910D01*
X151391221Y-76757922D01*
X151384359Y-76756344D01*
X151377492Y-76757898D01*
X151370455Y-76757886D01*
X151370456Y-76757157D01*
X151358949Y-76757533D01*
X151298749Y-76747998D01*
X151280159Y-76741957D01*
X151212076Y-76707267D01*
X151196256Y-76695773D01*
X151142227Y-76641744D01*
X151130733Y-76625924D01*
X151096045Y-76557844D01*
X151090003Y-76539247D01*
X151080566Y-76479666D01*
X151081198Y-76461774D01*
X151080451Y-76461688D01*
X151080857Y-76458160D01*
X151081655Y-76454718D01*
X151081656Y-76454000D01*
X151078065Y-76438257D01*
X151076500Y-76424358D01*
X151076500Y-74960107D01*
X151078114Y-74945994D01*
X151080856Y-74934163D01*
X151081655Y-74930718D01*
X151081656Y-74930000D01*
X151079491Y-74920510D01*
X151078228Y-74912740D01*
X151066550Y-74794162D01*
X151066549Y-74794158D01*
X151066249Y-74791110D01*
X151044540Y-74719545D01*
X151026626Y-74660489D01*
X151026624Y-74660484D01*
X151025736Y-74657557D01*
X150959946Y-74534474D01*
X150871409Y-74426591D01*
X150763526Y-74338054D01*
X150640443Y-74272264D01*
X150637516Y-74271376D01*
X150637511Y-74271374D01*
X150551291Y-74245220D01*
X150506890Y-74231751D01*
X150503842Y-74231451D01*
X150503838Y-74231450D01*
X150386236Y-74219868D01*
X150378258Y-74218556D01*
X150368718Y-74216345D01*
X150368000Y-74216344D01*
X150352258Y-74219935D01*
X150338358Y-74221500D01*
X132871873Y-74221500D01*
X132857867Y-74219910D01*
X132849221Y-74217922D01*
X132842359Y-74216344D01*
X132835492Y-74217898D01*
X132828455Y-74217886D01*
X132828456Y-74217157D01*
X132816949Y-74217533D01*
X132756749Y-74207998D01*
X132738159Y-74201957D01*
X132670076Y-74167267D01*
X132654256Y-74155773D01*
X132600227Y-74101744D01*
X132588733Y-74085924D01*
X132554045Y-74017844D01*
X132548003Y-73999247D01*
X132538566Y-73939666D01*
X132539198Y-73921774D01*
X132538451Y-73921688D01*
X132538857Y-73918160D01*
X132539655Y-73914718D01*
X132539656Y-73914000D01*
X132536065Y-73898257D01*
X132534500Y-73884358D01*
X132534500Y-71282716D01*
X161768745Y-71282716D01*
X161779924Y-71309705D01*
X161783986Y-71316740D01*
X161871486Y-71430772D01*
X161877228Y-71436514D01*
X161991257Y-71524012D01*
X161998300Y-71528079D01*
X162131087Y-71583081D01*
X162138935Y-71585184D01*
X162245648Y-71599233D01*
X162249727Y-71599500D01*
X162619069Y-71599500D01*
X162627859Y-71595859D01*
X162631500Y-71587069D01*
X163139500Y-71587069D01*
X163143141Y-71595859D01*
X163151931Y-71599500D01*
X163521273Y-71599500D01*
X163525352Y-71599233D01*
X163632065Y-71585184D01*
X163639913Y-71583081D01*
X163772700Y-71528079D01*
X163779743Y-71524012D01*
X163893772Y-71436514D01*
X163899514Y-71430772D01*
X163987012Y-71316744D01*
X163991079Y-71309701D01*
X164000073Y-71287986D01*
X164000073Y-71278470D01*
X163998103Y-71276500D01*
X163151931Y-71276500D01*
X163143141Y-71280141D01*
X163139500Y-71288931D01*
X163139500Y-71587069D01*
X162631500Y-71587069D01*
X162631500Y-71288931D01*
X162627859Y-71280141D01*
X162619069Y-71276500D01*
X161778601Y-71276500D01*
X161769811Y-71280141D01*
X161768745Y-71282716D01*
X132534500Y-71282716D01*
X132534500Y-70739000D01*
X140335000Y-70739000D01*
X143764000Y-70739000D01*
X143764000Y-69803051D01*
X145949000Y-69803051D01*
X145949288Y-69807272D01*
X145963063Y-69907832D01*
X145965333Y-69915962D01*
X146019292Y-70040656D01*
X146023668Y-70047880D01*
X146109173Y-70153471D01*
X146115320Y-70159244D01*
X146211866Y-70227855D01*
X146220557Y-70229846D01*
X146222000Y-70225325D01*
X146222000Y-70218653D01*
X146730000Y-70218653D01*
X146733641Y-70227443D01*
X146735156Y-70228071D01*
X146736589Y-70227726D01*
X146775799Y-70207748D01*
X146782730Y-70202930D01*
X146882742Y-70110965D01*
X146888124Y-70104459D01*
X146959718Y-69988991D01*
X146963155Y-69981270D01*
X147001333Y-69849858D01*
X147002488Y-69843442D01*
X147002916Y-69837616D01*
X147003000Y-69835323D01*
X147003000Y-69735431D01*
X146999359Y-69726641D01*
X146990569Y-69723000D01*
X146742431Y-69723000D01*
X146733641Y-69726641D01*
X146730000Y-69735431D01*
X146730000Y-70218653D01*
X146222000Y-70218653D01*
X146222000Y-69735431D01*
X146218359Y-69726641D01*
X146209569Y-69723000D01*
X145961431Y-69723000D01*
X145952641Y-69726641D01*
X145949000Y-69735431D01*
X145949000Y-69803051D01*
X143764000Y-69803051D01*
X143764000Y-69202569D01*
X145949000Y-69202569D01*
X145952641Y-69211359D01*
X145961431Y-69215000D01*
X146209569Y-69215000D01*
X146218359Y-69211359D01*
X146222000Y-69202569D01*
X146730000Y-69202569D01*
X146733641Y-69211359D01*
X146742431Y-69215000D01*
X146990569Y-69215000D01*
X146999359Y-69211359D01*
X147003000Y-69202569D01*
X147003000Y-69134949D01*
X147002712Y-69130728D01*
X146988937Y-69030168D01*
X146986667Y-69022038D01*
X146932708Y-68897344D01*
X146928332Y-68890120D01*
X146842827Y-68784529D01*
X146836680Y-68778756D01*
X146740134Y-68710145D01*
X146731443Y-68708154D01*
X146730000Y-68712675D01*
X146730000Y-69202569D01*
X146222000Y-69202569D01*
X146222000Y-68719347D01*
X146218359Y-68710557D01*
X146216844Y-68709929D01*
X146215411Y-68710274D01*
X146176201Y-68730252D01*
X146169270Y-68735070D01*
X146069258Y-68827035D01*
X146063876Y-68833541D01*
X145992282Y-68949009D01*
X145988845Y-68956730D01*
X145950667Y-69088142D01*
X145949512Y-69094558D01*
X145949084Y-69100384D01*
X145949000Y-69102678D01*
X145949000Y-69202569D01*
X143764000Y-69202569D01*
X143764000Y-68834000D01*
X140335000Y-68834000D01*
X140335000Y-70739000D01*
X132534500Y-70739000D01*
X132534500Y-69803051D01*
X136969000Y-69803051D01*
X136969288Y-69807272D01*
X136983063Y-69907832D01*
X136985333Y-69915962D01*
X137039292Y-70040656D01*
X137043668Y-70047880D01*
X137129173Y-70153471D01*
X137135320Y-70159244D01*
X137231866Y-70227855D01*
X137240557Y-70229846D01*
X137242000Y-70225325D01*
X137242000Y-70218653D01*
X137750000Y-70218653D01*
X137753641Y-70227443D01*
X137755156Y-70228071D01*
X137756589Y-70227726D01*
X137795799Y-70207748D01*
X137802730Y-70202930D01*
X137902742Y-70110965D01*
X137908124Y-70104459D01*
X137979718Y-69988991D01*
X137983155Y-69981270D01*
X138021333Y-69849858D01*
X138022488Y-69843442D01*
X138022916Y-69837616D01*
X138023000Y-69835323D01*
X138023000Y-69735431D01*
X138019359Y-69726641D01*
X138010569Y-69723000D01*
X137762431Y-69723000D01*
X137753641Y-69726641D01*
X137750000Y-69735431D01*
X137750000Y-70218653D01*
X137242000Y-70218653D01*
X137242000Y-69735431D01*
X137238359Y-69726641D01*
X137229569Y-69723000D01*
X136981431Y-69723000D01*
X136972641Y-69726641D01*
X136969000Y-69735431D01*
X136969000Y-69803051D01*
X132534500Y-69803051D01*
X132534500Y-69202569D01*
X136969000Y-69202569D01*
X136972641Y-69211359D01*
X136981431Y-69215000D01*
X137229569Y-69215000D01*
X137238359Y-69211359D01*
X137242000Y-69202569D01*
X137750000Y-69202569D01*
X137753641Y-69211359D01*
X137762431Y-69215000D01*
X138010569Y-69215000D01*
X138019359Y-69211359D01*
X138023000Y-69202569D01*
X138023000Y-69134949D01*
X138022712Y-69130728D01*
X138008937Y-69030168D01*
X138006667Y-69022038D01*
X137952708Y-68897344D01*
X137948332Y-68890120D01*
X137862827Y-68784529D01*
X137856680Y-68778756D01*
X137760134Y-68710145D01*
X137751443Y-68708154D01*
X137750000Y-68712675D01*
X137750000Y-69202569D01*
X137242000Y-69202569D01*
X137242000Y-68719347D01*
X137238359Y-68710557D01*
X137236844Y-68709929D01*
X137235411Y-68710274D01*
X137196201Y-68730252D01*
X137189270Y-68735070D01*
X137089258Y-68827035D01*
X137083876Y-68833541D01*
X137012282Y-68949009D01*
X137008845Y-68956730D01*
X136970667Y-69088142D01*
X136969512Y-69094558D01*
X136969084Y-69100384D01*
X136969000Y-69102678D01*
X136969000Y-69202569D01*
X132534500Y-69202569D01*
X132534500Y-67900067D01*
X138581500Y-67900067D01*
X138582182Y-67903274D01*
X138582182Y-67903277D01*
X138620277Y-68082500D01*
X138621031Y-68086045D01*
X138698365Y-68259741D01*
X138810123Y-68413562D01*
X138812554Y-68415751D01*
X138812555Y-68415752D01*
X138836463Y-68437279D01*
X138951420Y-68540786D01*
X138954254Y-68542422D01*
X139092516Y-68622248D01*
X139116080Y-68635853D01*
X139296908Y-68694608D01*
X139345953Y-68699763D01*
X139436968Y-68709329D01*
X139436976Y-68709329D01*
X139438599Y-68709500D01*
X139533401Y-68709500D01*
X139535024Y-68709329D01*
X139535032Y-68709329D01*
X139626047Y-68699763D01*
X139675092Y-68694608D01*
X139855920Y-68635853D01*
X139879485Y-68622248D01*
X140017746Y-68542422D01*
X140020580Y-68540786D01*
X140135537Y-68437279D01*
X140159445Y-68415752D01*
X140159446Y-68415751D01*
X140161877Y-68413562D01*
X140273635Y-68259741D01*
X140350969Y-68086045D01*
X140351723Y-68082500D01*
X140389818Y-67903277D01*
X140389818Y-67903274D01*
X140390500Y-67900067D01*
X143581500Y-67900067D01*
X143582182Y-67903274D01*
X143582182Y-67903277D01*
X143620277Y-68082500D01*
X143621031Y-68086045D01*
X143698365Y-68259741D01*
X143810123Y-68413562D01*
X143812554Y-68415751D01*
X143812555Y-68415752D01*
X143836463Y-68437279D01*
X143951420Y-68540786D01*
X143954254Y-68542422D01*
X144092516Y-68622248D01*
X144116080Y-68635853D01*
X144296908Y-68694608D01*
X144345953Y-68699763D01*
X144436968Y-68709329D01*
X144436976Y-68709329D01*
X144438599Y-68709500D01*
X144533401Y-68709500D01*
X144535024Y-68709329D01*
X144535032Y-68709329D01*
X144626047Y-68699763D01*
X144675092Y-68694608D01*
X144855920Y-68635853D01*
X144879485Y-68622248D01*
X145017746Y-68542422D01*
X145020580Y-68540786D01*
X145135537Y-68437279D01*
X145159445Y-68415752D01*
X145159446Y-68415751D01*
X145161877Y-68413562D01*
X145273635Y-68259741D01*
X145350969Y-68086045D01*
X145351723Y-68082500D01*
X145389818Y-67903277D01*
X145389818Y-67903274D01*
X145390500Y-67900067D01*
X145390500Y-67709933D01*
X145354748Y-67541731D01*
X145351651Y-67527163D01*
X145351651Y-67527162D01*
X145350969Y-67523955D01*
X145273635Y-67350259D01*
X145161877Y-67196438D01*
X145152353Y-67187862D01*
X145023011Y-67071403D01*
X145020580Y-67069214D01*
X144930827Y-67017395D01*
X144858754Y-66975783D01*
X144858752Y-66975782D01*
X144855920Y-66974147D01*
X144675092Y-66915392D01*
X144626047Y-66910237D01*
X144535032Y-66900671D01*
X144535024Y-66900671D01*
X144533401Y-66900500D01*
X144438599Y-66900500D01*
X144436976Y-66900671D01*
X144436968Y-66900671D01*
X144345953Y-66910237D01*
X144296908Y-66915392D01*
X144116080Y-66974147D01*
X144113248Y-66975782D01*
X144113246Y-66975783D01*
X144041173Y-67017395D01*
X143951420Y-67069214D01*
X143948989Y-67071403D01*
X143819648Y-67187862D01*
X143810123Y-67196438D01*
X143698365Y-67350259D01*
X143621031Y-67523955D01*
X143620349Y-67527162D01*
X143620349Y-67527163D01*
X143617253Y-67541731D01*
X143581500Y-67709933D01*
X143581500Y-67900067D01*
X140390500Y-67900067D01*
X140390500Y-67709933D01*
X140354748Y-67541731D01*
X140351651Y-67527163D01*
X140351651Y-67527162D01*
X140350969Y-67523955D01*
X140273635Y-67350259D01*
X140161877Y-67196438D01*
X140152353Y-67187862D01*
X140023011Y-67071403D01*
X140020580Y-67069214D01*
X139930827Y-67017395D01*
X139858754Y-66975783D01*
X139858752Y-66975782D01*
X139855920Y-66974147D01*
X139675092Y-66915392D01*
X139626047Y-66910237D01*
X139535032Y-66900671D01*
X139535024Y-66900671D01*
X139533401Y-66900500D01*
X139438599Y-66900500D01*
X139436976Y-66900671D01*
X139436968Y-66900671D01*
X139345953Y-66910237D01*
X139296908Y-66915392D01*
X139116080Y-66974147D01*
X139113248Y-66975782D01*
X139113246Y-66975783D01*
X139041173Y-67017395D01*
X138951420Y-67069214D01*
X138948989Y-67071403D01*
X138819648Y-67187862D01*
X138810123Y-67196438D01*
X138698365Y-67350259D01*
X138621031Y-67523955D01*
X138620349Y-67527162D01*
X138620349Y-67527163D01*
X138617253Y-67541731D01*
X138581500Y-67709933D01*
X138581500Y-67900067D01*
X132534500Y-67900067D01*
X132534500Y-65423051D01*
X137329000Y-65423051D01*
X137329288Y-65427272D01*
X137343063Y-65527832D01*
X137345333Y-65535962D01*
X137399292Y-65660656D01*
X137403668Y-65667880D01*
X137489173Y-65773471D01*
X137495320Y-65779244D01*
X137591866Y-65847855D01*
X137600557Y-65849846D01*
X137602000Y-65845325D01*
X137602000Y-65838653D01*
X138110000Y-65838653D01*
X138113641Y-65847443D01*
X138115156Y-65848071D01*
X138116589Y-65847726D01*
X138155799Y-65827748D01*
X138162730Y-65822930D01*
X138262742Y-65730965D01*
X138268124Y-65724459D01*
X138339718Y-65608991D01*
X138343155Y-65601270D01*
X138381333Y-65469858D01*
X138382488Y-65463442D01*
X138382916Y-65457616D01*
X138383000Y-65455323D01*
X138383000Y-65355431D01*
X138379359Y-65346641D01*
X138370569Y-65343000D01*
X138122431Y-65343000D01*
X138113641Y-65346641D01*
X138110000Y-65355431D01*
X138110000Y-65838653D01*
X137602000Y-65838653D01*
X137602000Y-65355431D01*
X137598359Y-65346641D01*
X137589569Y-65343000D01*
X137341431Y-65343000D01*
X137332641Y-65346641D01*
X137329000Y-65355431D01*
X137329000Y-65423051D01*
X132534500Y-65423051D01*
X132534500Y-64822569D01*
X137329000Y-64822569D01*
X137332641Y-64831359D01*
X137341431Y-64835000D01*
X137589569Y-64835000D01*
X137598359Y-64831359D01*
X137602000Y-64822569D01*
X137602000Y-64339347D01*
X137598359Y-64330557D01*
X137596844Y-64329929D01*
X137595411Y-64330274D01*
X137556201Y-64350252D01*
X137549270Y-64355070D01*
X137449258Y-64447035D01*
X137443876Y-64453541D01*
X137372282Y-64569009D01*
X137368845Y-64576730D01*
X137330667Y-64708142D01*
X137329512Y-64714558D01*
X137329084Y-64720384D01*
X137329000Y-64722678D01*
X137329000Y-64822569D01*
X132534500Y-64822569D01*
X132534500Y-63839000D01*
X137801500Y-63839000D01*
X137802035Y-63843064D01*
X137820746Y-63985188D01*
X137821416Y-63990280D01*
X137822984Y-63994064D01*
X137822984Y-63994066D01*
X137870528Y-64108846D01*
X137879808Y-64131250D01*
X137972696Y-64252304D01*
X137975941Y-64254794D01*
X137975944Y-64254797D01*
X138085547Y-64338898D01*
X138109465Y-64380325D01*
X138110000Y-64388483D01*
X138110000Y-64822569D01*
X138113641Y-64831359D01*
X138122431Y-64835000D01*
X138370569Y-64835000D01*
X138379359Y-64831359D01*
X138383000Y-64822569D01*
X138383000Y-64754949D01*
X138382712Y-64750728D01*
X138368937Y-64650168D01*
X138366667Y-64642038D01*
X138312706Y-64517341D01*
X138310307Y-64513380D01*
X138303068Y-64466095D01*
X138331385Y-64427542D01*
X138363765Y-64418500D01*
X138423980Y-64418500D01*
X138426005Y-64418233D01*
X138426011Y-64418233D01*
X138533217Y-64404119D01*
X138533218Y-64404119D01*
X138537280Y-64403584D01*
X138541064Y-64402016D01*
X138541066Y-64402016D01*
X138653126Y-64355599D01*
X138700962Y-64355599D01*
X138734786Y-64389423D01*
X138738800Y-64422956D01*
X138730071Y-64479023D01*
X138729963Y-64487836D01*
X138739683Y-64562166D01*
X138743908Y-64569499D01*
X138748603Y-64567186D01*
X139085184Y-64230606D01*
X139263892Y-64051897D01*
X139267534Y-64043106D01*
X139267063Y-64041969D01*
X139265237Y-64040879D01*
X139257765Y-64038644D01*
X139249045Y-64037341D01*
X139128479Y-64036604D01*
X139119744Y-64037801D01*
X139028274Y-64063943D01*
X138980751Y-64058486D01*
X138951005Y-64021024D01*
X138950751Y-63990302D01*
X138950584Y-63990280D01*
X138950741Y-63989089D01*
X138950741Y-63989088D01*
X138970500Y-63839000D01*
X138954137Y-63714711D01*
X138966517Y-63668506D01*
X139007944Y-63644589D01*
X139040018Y-63648811D01*
X139042482Y-63649831D01*
X139070481Y-63655401D01*
X139074144Y-63655762D01*
X139082359Y-63652359D01*
X139086000Y-63643569D01*
X139086000Y-63341431D01*
X139082359Y-63332641D01*
X139073569Y-63329000D01*
X138971431Y-63329000D01*
X138962641Y-63332641D01*
X138959000Y-63341431D01*
X138959000Y-63449696D01*
X138940694Y-63493890D01*
X138896500Y-63512196D01*
X138852306Y-63493890D01*
X138846915Y-63487744D01*
X138801794Y-63428941D01*
X138799304Y-63425696D01*
X138678250Y-63332808D01*
X138669057Y-63329000D01*
X138541066Y-63275984D01*
X138541064Y-63275984D01*
X138537280Y-63274416D01*
X138533218Y-63273881D01*
X138533217Y-63273881D01*
X138426011Y-63259767D01*
X138426005Y-63259767D01*
X138423980Y-63259500D01*
X138348020Y-63259500D01*
X138345995Y-63259767D01*
X138345989Y-63259767D01*
X138238783Y-63273881D01*
X138238782Y-63273881D01*
X138234720Y-63274416D01*
X138230936Y-63275984D01*
X138230934Y-63275984D01*
X138102943Y-63329000D01*
X138093750Y-63332808D01*
X137972696Y-63425696D01*
X137879808Y-63546750D01*
X137878241Y-63550533D01*
X137834436Y-63656288D01*
X137821416Y-63687720D01*
X137820881Y-63691780D01*
X137820881Y-63691782D01*
X137811499Y-63763047D01*
X137801500Y-63839000D01*
X132534500Y-63839000D01*
X132534500Y-62865000D01*
X138557000Y-62865000D01*
X138959000Y-62865000D01*
X138959000Y-63016569D01*
X138962641Y-63025359D01*
X138971431Y-63029000D01*
X139073569Y-63029000D01*
X139082359Y-63025359D01*
X139086000Y-63016569D01*
X139086000Y-62865000D01*
X139386000Y-62865000D01*
X139386000Y-63643569D01*
X139389641Y-63652359D01*
X139397856Y-63655762D01*
X139401519Y-63655401D01*
X139429518Y-63649831D01*
X139440670Y-63645212D01*
X139450826Y-63638426D01*
X139497742Y-63629093D01*
X139520271Y-63638424D01*
X139536252Y-63649102D01*
X139542285Y-63650302D01*
X139542287Y-63650303D01*
X139559019Y-63653631D01*
X139573442Y-63656500D01*
X139898558Y-63656500D01*
X139912981Y-63653631D01*
X139929713Y-63650303D01*
X139929715Y-63650302D01*
X139935748Y-63649102D01*
X139944029Y-63643569D01*
X139951277Y-63638726D01*
X139998194Y-63629394D01*
X140020723Y-63638726D01*
X140027971Y-63643569D01*
X140036252Y-63649102D01*
X140042285Y-63650302D01*
X140042287Y-63650303D01*
X140059019Y-63653631D01*
X140073442Y-63656500D01*
X140299346Y-63656500D01*
X140343540Y-63674806D01*
X140361846Y-63719000D01*
X140361076Y-63728777D01*
X140357081Y-63754000D01*
X140374648Y-63864912D01*
X140376883Y-63869298D01*
X140418859Y-63951681D01*
X140425628Y-63964967D01*
X140502954Y-64042293D01*
X140521260Y-64086487D01*
X140502954Y-64130681D01*
X140496838Y-64135569D01*
X140496865Y-64135600D01*
X140493476Y-64138484D01*
X140489710Y-64140860D01*
X140486764Y-64144195D01*
X140486761Y-64144198D01*
X140477112Y-64155124D01*
X140472699Y-64159638D01*
X140427288Y-64201617D01*
X140424939Y-64205661D01*
X140413555Y-64225259D01*
X140407792Y-64233250D01*
X140406855Y-64234677D01*
X140403908Y-64238013D01*
X140402017Y-64242040D01*
X140402016Y-64242042D01*
X140395623Y-64255659D01*
X140393100Y-64260476D01*
X140358643Y-64319797D01*
X140357589Y-64324345D01*
X140357588Y-64324347D01*
X140353442Y-64342235D01*
X140351796Y-64346987D01*
X140352015Y-64347054D01*
X140350713Y-64351314D01*
X140348822Y-64355341D01*
X140348138Y-64359733D01*
X140348137Y-64359737D01*
X140345937Y-64373871D01*
X140345067Y-64378368D01*
X140328946Y-64447921D01*
X140327783Y-64452938D01*
X140329037Y-64470649D01*
X140329393Y-64475671D01*
X140329502Y-64479426D01*
X140328881Y-64483415D01*
X140330953Y-64499259D01*
X140331322Y-64502930D01*
X140332889Y-64525062D01*
X140337435Y-64589266D01*
X140345422Y-64609911D01*
X140345687Y-64611938D01*
X140349427Y-64620437D01*
X140350494Y-64623022D01*
X140352416Y-64627990D01*
X140362539Y-64654157D01*
X140361412Y-64701979D01*
X140326799Y-64734997D01*
X140321425Y-64736800D01*
X140308522Y-64740488D01*
X140300642Y-64742199D01*
X140275623Y-64745960D01*
X140255470Y-64748990D01*
X140255468Y-64748991D01*
X140250849Y-64749685D01*
X140246640Y-64751706D01*
X140246637Y-64751707D01*
X140218151Y-64765386D01*
X140208274Y-64769138D01*
X140203611Y-64770471D01*
X140203607Y-64770473D01*
X140199331Y-64771695D01*
X140195573Y-64774066D01*
X140195569Y-64774068D01*
X140184276Y-64781194D01*
X140177979Y-64784677D01*
X140127647Y-64808846D01*
X140104329Y-64830401D01*
X140095267Y-64837354D01*
X140089710Y-64840860D01*
X140086764Y-64844195D01*
X140086761Y-64844198D01*
X140077112Y-64855124D01*
X140072699Y-64859638D01*
X140027288Y-64901617D01*
X140025946Y-64900165D01*
X139990102Y-64919877D01*
X139944164Y-64906539D01*
X139934155Y-64896453D01*
X139900641Y-64853941D01*
X139896798Y-64851285D01*
X139896796Y-64851283D01*
X139800424Y-64784677D01*
X139788211Y-64776236D01*
X139773853Y-64771695D01*
X139661302Y-64736100D01*
X139657903Y-64735025D01*
X139655889Y-64734867D01*
X139616393Y-64708701D01*
X139606876Y-64661822D01*
X139611978Y-64646520D01*
X139619090Y-64631843D01*
X139621770Y-64623445D01*
X139642112Y-64502532D01*
X139642541Y-64497746D01*
X139642619Y-64491415D01*
X139642306Y-64486613D01*
X139632205Y-64416076D01*
X139627814Y-64408667D01*
X139623273Y-64410938D01*
X139449152Y-64585058D01*
X139107644Y-64926566D01*
X139104003Y-64935357D01*
X139104556Y-64936691D01*
X139106086Y-64937617D01*
X139108741Y-64938446D01*
X139109870Y-64938629D01*
X139110427Y-64938973D01*
X139112991Y-64939774D01*
X139112786Y-64940430D01*
X139150569Y-64963764D01*
X139161575Y-65010316D01*
X139159253Y-65018748D01*
X139158643Y-65019797D01*
X139157589Y-65024345D01*
X139157588Y-65024347D01*
X139153442Y-65042235D01*
X139151796Y-65046987D01*
X139152015Y-65047054D01*
X139150713Y-65051314D01*
X139148822Y-65055341D01*
X139148138Y-65059733D01*
X139148137Y-65059737D01*
X139145937Y-65073871D01*
X139145067Y-65078368D01*
X139130821Y-65139832D01*
X139127783Y-65152938D01*
X139129393Y-65175671D01*
X139129502Y-65179426D01*
X139128881Y-65183415D01*
X139130953Y-65199259D01*
X139131322Y-65202930D01*
X139132889Y-65225062D01*
X139137435Y-65289266D01*
X139145422Y-65309911D01*
X139145687Y-65311938D01*
X139149427Y-65320437D01*
X139150494Y-65323022D01*
X139186747Y-65416730D01*
X139271359Y-65524059D01*
X139275199Y-65526713D01*
X139275200Y-65526714D01*
X139309833Y-65550650D01*
X139383789Y-65601764D01*
X139388246Y-65603174D01*
X139388247Y-65603174D01*
X139469934Y-65629008D01*
X139514097Y-65642975D01*
X139517650Y-65643255D01*
X139517652Y-65643255D01*
X139519529Y-65643403D01*
X139519542Y-65643404D01*
X139520768Y-65643500D01*
X139620149Y-65643500D01*
X139622458Y-65643153D01*
X139624782Y-65642979D01*
X139624784Y-65643002D01*
X139632879Y-65642471D01*
X139642505Y-65642648D01*
X139659505Y-65638013D01*
X139666627Y-65636512D01*
X139721151Y-65628315D01*
X139750274Y-65614330D01*
X139760889Y-65610372D01*
X139760905Y-65610368D01*
X139767557Y-65608554D01*
X139783676Y-65598658D01*
X139789310Y-65595586D01*
X139840145Y-65571175D01*
X139840147Y-65571174D01*
X139844353Y-65569154D01*
X139864835Y-65550221D01*
X139873565Y-65543607D01*
X139874220Y-65543064D01*
X139878015Y-65540733D01*
X139881003Y-65537432D01*
X139891094Y-65526284D01*
X139895005Y-65522332D01*
X139944712Y-65476383D01*
X139946052Y-65477833D01*
X139981912Y-65458122D01*
X140027847Y-65471471D01*
X140037848Y-65481551D01*
X140071359Y-65524059D01*
X140075199Y-65526713D01*
X140075200Y-65526714D01*
X140109833Y-65550650D01*
X140183789Y-65601764D01*
X140188246Y-65603174D01*
X140188247Y-65603174D01*
X140269934Y-65629008D01*
X140314097Y-65642975D01*
X140317650Y-65643255D01*
X140317652Y-65643255D01*
X140319529Y-65643403D01*
X140319542Y-65643404D01*
X140320768Y-65643500D01*
X140420149Y-65643500D01*
X140422458Y-65643153D01*
X140424782Y-65642979D01*
X140424784Y-65643002D01*
X140432879Y-65642471D01*
X140442505Y-65642648D01*
X140459505Y-65638013D01*
X140466627Y-65636512D01*
X140521151Y-65628315D01*
X140550274Y-65614330D01*
X140560889Y-65610372D01*
X140560905Y-65610368D01*
X140567557Y-65608554D01*
X140583676Y-65598658D01*
X140589310Y-65595586D01*
X140640145Y-65571175D01*
X140640147Y-65571174D01*
X140644353Y-65569154D01*
X140664835Y-65550221D01*
X140673565Y-65543607D01*
X140674220Y-65543064D01*
X140678015Y-65540733D01*
X140681003Y-65537432D01*
X140691094Y-65526284D01*
X140695005Y-65522332D01*
X140744712Y-65476383D01*
X140746052Y-65477833D01*
X140781912Y-65458122D01*
X140827847Y-65471471D01*
X140837848Y-65481551D01*
X140871359Y-65524059D01*
X140875199Y-65526713D01*
X140875200Y-65526714D01*
X140909833Y-65550650D01*
X140983789Y-65601764D01*
X140988246Y-65603174D01*
X140988247Y-65603174D01*
X141069934Y-65629008D01*
X141114097Y-65642975D01*
X141117650Y-65643255D01*
X141117652Y-65643255D01*
X141119529Y-65643403D01*
X141119542Y-65643404D01*
X141120768Y-65643500D01*
X141220149Y-65643500D01*
X141222458Y-65643153D01*
X141224782Y-65642979D01*
X141224784Y-65643002D01*
X141232879Y-65642471D01*
X141242505Y-65642648D01*
X141259505Y-65638013D01*
X141266627Y-65636512D01*
X141321151Y-65628315D01*
X141350274Y-65614330D01*
X141360889Y-65610372D01*
X141360905Y-65610368D01*
X141367557Y-65608554D01*
X141383676Y-65598658D01*
X141389310Y-65595586D01*
X141440145Y-65571175D01*
X141440147Y-65571174D01*
X141444353Y-65569154D01*
X141464835Y-65550221D01*
X141473565Y-65543607D01*
X141474220Y-65543064D01*
X141478015Y-65540733D01*
X141481003Y-65537432D01*
X141491094Y-65526284D01*
X141495005Y-65522332D01*
X141541282Y-65479554D01*
X141541283Y-65479553D01*
X141544712Y-65476383D01*
X141556548Y-65456007D01*
X141559672Y-65451730D01*
X141559520Y-65451628D01*
X141562008Y-65447940D01*
X141564997Y-65444637D01*
X141569065Y-65436242D01*
X141573251Y-65427602D01*
X141575452Y-65423461D01*
X141611011Y-65362242D01*
X141613357Y-65358203D01*
X141618488Y-65336066D01*
X141619656Y-65331821D01*
X141621512Y-65327990D01*
X141622250Y-65323607D01*
X141622252Y-65323599D01*
X141624249Y-65311731D01*
X141624996Y-65307992D01*
X141643163Y-65229611D01*
X141643163Y-65229609D01*
X141644217Y-65225062D01*
X141642974Y-65207507D01*
X141643043Y-65200169D01*
X141643017Y-65200169D01*
X141643124Y-65191415D01*
X141643124Y-65191410D01*
X141643153Y-65189000D01*
X141640524Y-65170644D01*
X141640050Y-65166203D01*
X141639413Y-65157199D01*
X141634565Y-65088734D01*
X141626321Y-65067426D01*
X141625319Y-65064467D01*
X141624778Y-65060692D01*
X141619319Y-65048684D01*
X141618402Y-65046668D01*
X141617008Y-65043351D01*
X141609200Y-65023169D01*
X141610327Y-64975347D01*
X141644939Y-64942328D01*
X141651043Y-64940321D01*
X141659490Y-64938017D01*
X141666627Y-64936512D01*
X141721151Y-64928315D01*
X141750274Y-64914330D01*
X141760889Y-64910372D01*
X141760905Y-64910368D01*
X141767557Y-64908554D01*
X141783676Y-64898658D01*
X141789310Y-64895586D01*
X141840145Y-64871175D01*
X141840147Y-64871174D01*
X141844353Y-64869154D01*
X141864835Y-64850221D01*
X141873565Y-64843607D01*
X141874220Y-64843064D01*
X141878015Y-64840733D01*
X141886500Y-64831359D01*
X141891094Y-64826284D01*
X141895005Y-64822332D01*
X141944712Y-64776383D01*
X141946052Y-64777833D01*
X141981912Y-64758122D01*
X142027847Y-64771471D01*
X142037848Y-64781551D01*
X142048241Y-64794734D01*
X142071359Y-64824059D01*
X142075199Y-64826713D01*
X142075200Y-64826714D01*
X142108302Y-64849592D01*
X142183789Y-64901764D01*
X142188246Y-64903174D01*
X142188247Y-64903174D01*
X142314097Y-64942975D01*
X142313787Y-64943955D01*
X142350557Y-64968321D01*
X142360069Y-65015201D01*
X142358806Y-65019516D01*
X142358643Y-65019797D01*
X142355121Y-65034991D01*
X142353442Y-65042235D01*
X142351796Y-65046987D01*
X142352015Y-65047054D01*
X142350713Y-65051314D01*
X142348822Y-65055341D01*
X142348138Y-65059733D01*
X142348137Y-65059737D01*
X142345937Y-65073871D01*
X142345067Y-65078368D01*
X142330821Y-65139832D01*
X142327783Y-65152938D01*
X142329393Y-65175671D01*
X142329502Y-65179426D01*
X142328881Y-65183415D01*
X142330953Y-65199259D01*
X142331322Y-65202930D01*
X142332889Y-65225062D01*
X142337435Y-65289266D01*
X142345422Y-65309911D01*
X142345687Y-65311938D01*
X142349427Y-65320437D01*
X142350494Y-65323022D01*
X142386747Y-65416730D01*
X142471359Y-65524059D01*
X142475199Y-65526713D01*
X142475200Y-65526714D01*
X142509833Y-65550650D01*
X142583789Y-65601764D01*
X142588246Y-65603174D01*
X142588247Y-65603174D01*
X142669934Y-65629008D01*
X142714097Y-65642975D01*
X142717650Y-65643255D01*
X142717652Y-65643255D01*
X142719529Y-65643403D01*
X142719542Y-65643404D01*
X142720768Y-65643500D01*
X142820149Y-65643500D01*
X142822458Y-65643153D01*
X142824782Y-65642979D01*
X142824784Y-65643002D01*
X142832879Y-65642471D01*
X142842505Y-65642648D01*
X142859505Y-65638013D01*
X142866627Y-65636512D01*
X142921151Y-65628315D01*
X142950274Y-65614330D01*
X142960889Y-65610372D01*
X142960905Y-65610368D01*
X142967557Y-65608554D01*
X142983676Y-65598658D01*
X142989310Y-65595586D01*
X143040145Y-65571175D01*
X143040147Y-65571174D01*
X143044353Y-65569154D01*
X143064835Y-65550221D01*
X143073565Y-65543607D01*
X143074220Y-65543064D01*
X143078015Y-65540733D01*
X143081003Y-65537432D01*
X143091094Y-65526284D01*
X143095005Y-65522332D01*
X143144712Y-65476383D01*
X143146052Y-65477833D01*
X143181912Y-65458122D01*
X143227847Y-65471471D01*
X143237848Y-65481551D01*
X143271359Y-65524059D01*
X143275199Y-65526713D01*
X143275200Y-65526714D01*
X143309833Y-65550650D01*
X143383789Y-65601764D01*
X143388246Y-65603174D01*
X143388247Y-65603174D01*
X143469934Y-65629008D01*
X143514097Y-65642975D01*
X143517650Y-65643255D01*
X143517652Y-65643255D01*
X143519529Y-65643403D01*
X143519542Y-65643404D01*
X143520768Y-65643500D01*
X143620149Y-65643500D01*
X143622458Y-65643153D01*
X143624782Y-65642979D01*
X143624784Y-65643002D01*
X143632879Y-65642471D01*
X143642505Y-65642648D01*
X143659505Y-65638013D01*
X143666627Y-65636512D01*
X143721151Y-65628315D01*
X143750274Y-65614330D01*
X143760889Y-65610372D01*
X143760905Y-65610368D01*
X143767557Y-65608554D01*
X143783676Y-65598658D01*
X143789310Y-65595586D01*
X143840145Y-65571175D01*
X143840147Y-65571174D01*
X143844353Y-65569154D01*
X143864835Y-65550221D01*
X143873565Y-65543607D01*
X143874220Y-65543064D01*
X143878015Y-65540733D01*
X143881003Y-65537432D01*
X143891094Y-65526284D01*
X143895005Y-65522332D01*
X143944712Y-65476383D01*
X143946052Y-65477833D01*
X143981912Y-65458122D01*
X144027847Y-65471471D01*
X144037848Y-65481551D01*
X144071359Y-65524059D01*
X144075199Y-65526713D01*
X144075200Y-65526714D01*
X144109833Y-65550650D01*
X144183789Y-65601764D01*
X144188246Y-65603174D01*
X144188247Y-65603174D01*
X144269934Y-65629008D01*
X144314097Y-65642975D01*
X144317650Y-65643255D01*
X144317652Y-65643255D01*
X144319529Y-65643403D01*
X144319542Y-65643404D01*
X144320768Y-65643500D01*
X144420149Y-65643500D01*
X144422458Y-65643153D01*
X144424782Y-65642979D01*
X144424784Y-65643002D01*
X144432879Y-65642471D01*
X144442505Y-65642648D01*
X144459505Y-65638013D01*
X144466627Y-65636512D01*
X144521151Y-65628315D01*
X144550274Y-65614330D01*
X144560889Y-65610372D01*
X144560905Y-65610368D01*
X144567557Y-65608554D01*
X144583676Y-65598658D01*
X144589310Y-65595586D01*
X144640145Y-65571175D01*
X144640147Y-65571174D01*
X144644353Y-65569154D01*
X144664835Y-65550221D01*
X144673565Y-65543607D01*
X144674220Y-65543064D01*
X144678015Y-65540733D01*
X144681003Y-65537432D01*
X144691094Y-65526284D01*
X144695005Y-65522332D01*
X144741282Y-65479554D01*
X144741283Y-65479553D01*
X144744712Y-65476383D01*
X144756548Y-65456007D01*
X144759672Y-65451730D01*
X144759520Y-65451628D01*
X144762008Y-65447940D01*
X144764997Y-65444637D01*
X144769065Y-65436242D01*
X144773251Y-65427602D01*
X144775452Y-65423461D01*
X144775690Y-65423051D01*
X145589000Y-65423051D01*
X145589288Y-65427272D01*
X145603063Y-65527832D01*
X145605333Y-65535962D01*
X145659292Y-65660656D01*
X145663668Y-65667880D01*
X145749173Y-65773471D01*
X145755320Y-65779244D01*
X145851866Y-65847855D01*
X145860557Y-65849846D01*
X145862000Y-65845325D01*
X145862000Y-65838653D01*
X146370000Y-65838653D01*
X146373641Y-65847443D01*
X146375156Y-65848071D01*
X146376589Y-65847726D01*
X146415799Y-65827748D01*
X146422730Y-65822930D01*
X146522742Y-65730965D01*
X146528124Y-65724459D01*
X146599718Y-65608991D01*
X146603155Y-65601270D01*
X146641333Y-65469858D01*
X146642488Y-65463442D01*
X146642916Y-65457616D01*
X146643000Y-65455323D01*
X146643000Y-65355431D01*
X146639359Y-65346641D01*
X146630569Y-65343000D01*
X146382431Y-65343000D01*
X146373641Y-65346641D01*
X146370000Y-65355431D01*
X146370000Y-65838653D01*
X145862000Y-65838653D01*
X145862000Y-65355431D01*
X145858359Y-65346641D01*
X145849569Y-65343000D01*
X145601431Y-65343000D01*
X145592641Y-65346641D01*
X145589000Y-65355431D01*
X145589000Y-65423051D01*
X144775690Y-65423051D01*
X144811011Y-65362242D01*
X144813357Y-65358203D01*
X144818488Y-65336066D01*
X144819656Y-65331821D01*
X144821512Y-65327990D01*
X144822250Y-65323607D01*
X144822252Y-65323599D01*
X144824249Y-65311731D01*
X144824996Y-65307992D01*
X144843163Y-65229611D01*
X144843163Y-65229609D01*
X144844217Y-65225062D01*
X144842974Y-65207507D01*
X144843043Y-65200169D01*
X144843017Y-65200169D01*
X144843124Y-65191415D01*
X144843124Y-65191410D01*
X144843153Y-65189000D01*
X144840524Y-65170644D01*
X144840050Y-65166203D01*
X144839413Y-65157199D01*
X144834565Y-65088734D01*
X144826321Y-65067426D01*
X144825319Y-65064467D01*
X144824778Y-65060692D01*
X144819319Y-65048684D01*
X144818402Y-65046668D01*
X144817008Y-65043352D01*
X144816125Y-65041070D01*
X144809018Y-65022699D01*
X144810145Y-64974877D01*
X144844756Y-64941858D01*
X144850867Y-64939849D01*
X144859908Y-64937384D01*
X144867432Y-64931558D01*
X144867534Y-64930758D01*
X144866134Y-64928345D01*
X144522848Y-64585058D01*
X144350548Y-64412759D01*
X144342454Y-64409406D01*
X144340228Y-64413791D01*
X144330071Y-64479024D01*
X144329963Y-64487835D01*
X144345597Y-64607386D01*
X144347967Y-64615877D01*
X144363411Y-64650976D01*
X144364455Y-64698800D01*
X144331376Y-64733355D01*
X144323381Y-64736241D01*
X144308523Y-64740488D01*
X144300642Y-64742199D01*
X144275623Y-64745960D01*
X144255470Y-64748990D01*
X144255468Y-64748991D01*
X144250849Y-64749685D01*
X144246640Y-64751706D01*
X144246637Y-64751707D01*
X144218151Y-64765386D01*
X144208274Y-64769138D01*
X144203611Y-64770471D01*
X144203607Y-64770473D01*
X144199331Y-64771695D01*
X144195573Y-64774066D01*
X144195569Y-64774068D01*
X144184276Y-64781194D01*
X144177979Y-64784677D01*
X144127647Y-64808846D01*
X144104329Y-64830401D01*
X144095267Y-64837354D01*
X144089710Y-64840860D01*
X144086764Y-64844195D01*
X144086761Y-64844198D01*
X144077112Y-64855124D01*
X144072699Y-64859638D01*
X144027288Y-64901617D01*
X144025946Y-64900165D01*
X143990102Y-64919877D01*
X143944164Y-64906539D01*
X143934155Y-64896453D01*
X143900641Y-64853941D01*
X143896798Y-64851285D01*
X143896796Y-64851283D01*
X143800424Y-64784677D01*
X143788211Y-64776236D01*
X143773853Y-64771695D01*
X143657903Y-64735025D01*
X143658213Y-64734045D01*
X143621443Y-64709679D01*
X143611931Y-64662799D01*
X143613195Y-64658482D01*
X143613357Y-64658203D01*
X143615220Y-64650168D01*
X143618488Y-64636066D01*
X143619656Y-64631821D01*
X143621512Y-64627990D01*
X143622250Y-64623607D01*
X143622252Y-64623599D01*
X143624249Y-64611731D01*
X143624996Y-64607992D01*
X143643163Y-64529611D01*
X143643163Y-64529609D01*
X143644217Y-64525062D01*
X143642974Y-64507507D01*
X143643043Y-64500169D01*
X143643017Y-64500169D01*
X143643124Y-64491415D01*
X143643124Y-64491410D01*
X143643153Y-64489000D01*
X143640524Y-64470644D01*
X143640050Y-64466203D01*
X143639997Y-64465447D01*
X143634565Y-64388734D01*
X143626321Y-64367426D01*
X143625319Y-64364467D01*
X143624778Y-64360692D01*
X143622463Y-64355599D01*
X143618402Y-64346668D01*
X143617008Y-64343351D01*
X143586939Y-64265628D01*
X143585253Y-64261270D01*
X143571835Y-64244249D01*
X143571130Y-64242699D01*
X143565936Y-64236671D01*
X143564203Y-64234569D01*
X143500641Y-64153941D01*
X143477594Y-64138012D01*
X143451646Y-64097828D01*
X143461713Y-64051064D01*
X143465075Y-64047033D01*
X144704116Y-64047033D01*
X144705364Y-64049153D01*
X144886816Y-64230606D01*
X145221315Y-64565105D01*
X145229543Y-64568513D01*
X145231723Y-64564285D01*
X145242111Y-64502542D01*
X145242542Y-64497734D01*
X145242619Y-64491415D01*
X145242306Y-64486607D01*
X145241056Y-64477883D01*
X145252909Y-64431540D01*
X145294061Y-64407152D01*
X145311081Y-64407055D01*
X145371860Y-64415056D01*
X145398020Y-64418500D01*
X145613312Y-64418500D01*
X145657506Y-64436806D01*
X145675812Y-64481000D01*
X145666430Y-64513935D01*
X145632282Y-64569009D01*
X145628845Y-64576730D01*
X145590667Y-64708142D01*
X145589512Y-64714558D01*
X145589084Y-64720384D01*
X145589000Y-64722678D01*
X145589000Y-64822569D01*
X145592641Y-64831359D01*
X145601431Y-64835000D01*
X146630569Y-64835000D01*
X146639359Y-64831359D01*
X146643000Y-64822569D01*
X146643000Y-64754949D01*
X146642712Y-64750728D01*
X146628937Y-64650168D01*
X146626667Y-64642038D01*
X146572708Y-64517344D01*
X146568332Y-64510120D01*
X146482827Y-64404529D01*
X146476680Y-64398756D01*
X146365926Y-64320048D01*
X146358443Y-64316136D01*
X146236691Y-64272302D01*
X146201310Y-64240108D01*
X146199057Y-64192326D01*
X146208277Y-64175449D01*
X146223873Y-64155124D01*
X146242192Y-64131250D01*
X146251472Y-64108846D01*
X146299016Y-63994066D01*
X146299016Y-63994064D01*
X146300584Y-63990280D01*
X146301255Y-63985188D01*
X146319965Y-63843064D01*
X146320500Y-63839000D01*
X146310501Y-63763047D01*
X146301119Y-63691782D01*
X146301119Y-63691780D01*
X146300584Y-63687720D01*
X146287565Y-63656288D01*
X146243759Y-63550533D01*
X146242192Y-63546750D01*
X146149304Y-63425696D01*
X146028250Y-63332808D01*
X146019057Y-63329000D01*
X145891066Y-63275984D01*
X145891064Y-63275984D01*
X145887280Y-63274416D01*
X145883218Y-63273881D01*
X145883217Y-63273881D01*
X145776011Y-63259767D01*
X145776005Y-63259767D01*
X145773980Y-63259500D01*
X145398020Y-63259500D01*
X145395995Y-63259767D01*
X145395989Y-63259767D01*
X145288783Y-63273881D01*
X145288782Y-63273881D01*
X145284720Y-63274416D01*
X145280936Y-63275984D01*
X145280934Y-63275984D01*
X145152943Y-63329000D01*
X145143750Y-63332808D01*
X145121479Y-63349897D01*
X145106444Y-63361434D01*
X145060238Y-63373814D01*
X145018811Y-63349897D01*
X145010654Y-63335767D01*
X145009359Y-63332641D01*
X145000569Y-63329000D01*
X144898431Y-63329000D01*
X144889641Y-63332641D01*
X144886000Y-63341431D01*
X144886000Y-63640080D01*
X144881242Y-63663998D01*
X144871416Y-63687720D01*
X144870881Y-63691780D01*
X144870881Y-63691782D01*
X144861499Y-63763047D01*
X144851500Y-63839000D01*
X144866335Y-63951681D01*
X144868275Y-63966420D01*
X144855895Y-64012626D01*
X144814468Y-64036543D01*
X144805928Y-64037077D01*
X144728481Y-64036604D01*
X144719742Y-64037801D01*
X144711686Y-64040104D01*
X144704233Y-64046021D01*
X144704116Y-64047033D01*
X143465075Y-64047033D01*
X143468935Y-64042404D01*
X143546372Y-63964967D01*
X143553142Y-63951681D01*
X143595117Y-63869298D01*
X143597352Y-63864912D01*
X143614919Y-63754000D01*
X143610924Y-63728777D01*
X143622090Y-63682264D01*
X143662877Y-63657270D01*
X143672654Y-63656500D01*
X143898558Y-63656500D01*
X143912981Y-63653631D01*
X143929713Y-63650303D01*
X143929715Y-63650302D01*
X143935748Y-63649102D01*
X143944029Y-63643569D01*
X143951277Y-63638726D01*
X143998194Y-63629394D01*
X144020723Y-63638726D01*
X144027971Y-63643569D01*
X144036252Y-63649102D01*
X144042285Y-63650302D01*
X144042287Y-63650303D01*
X144059019Y-63653631D01*
X144073442Y-63656500D01*
X144398558Y-63656500D01*
X144412981Y-63653631D01*
X144429713Y-63650303D01*
X144429715Y-63650302D01*
X144435748Y-63649102D01*
X144451728Y-63638425D01*
X144498643Y-63629093D01*
X144521174Y-63638426D01*
X144531330Y-63645212D01*
X144542482Y-63649831D01*
X144570481Y-63655401D01*
X144574144Y-63655762D01*
X144582359Y-63652359D01*
X144586000Y-63643569D01*
X144586000Y-62992000D01*
X144886000Y-62992000D01*
X144886000Y-63016569D01*
X144889641Y-63025359D01*
X144898431Y-63029000D01*
X145000569Y-63029000D01*
X145009359Y-63025359D01*
X145013000Y-63016569D01*
X145013000Y-62992000D01*
X145796000Y-62992000D01*
X147701000Y-64897000D01*
X147701000Y-67691000D01*
X150114000Y-70104000D01*
X158035845Y-70104000D01*
X158061052Y-70153471D01*
X158078628Y-70187967D01*
X158158033Y-70267372D01*
X158162414Y-70269604D01*
X158162415Y-70269605D01*
X158211333Y-70294530D01*
X158258088Y-70318352D01*
X158369000Y-70335919D01*
X158479912Y-70318352D01*
X158526667Y-70294530D01*
X158575585Y-70269605D01*
X158575586Y-70269604D01*
X158579967Y-70267372D01*
X158659372Y-70187967D01*
X158676949Y-70153471D01*
X158702155Y-70104000D01*
X159639000Y-70104000D01*
X159639000Y-70739000D01*
X161778388Y-70739000D01*
X161770927Y-70757014D01*
X161770927Y-70766530D01*
X161772897Y-70768500D01*
X162619069Y-70768500D01*
X162627859Y-70764859D01*
X162631500Y-70756069D01*
X163139500Y-70756069D01*
X163143141Y-70764859D01*
X163151931Y-70768500D01*
X163992399Y-70768500D01*
X164001189Y-70764859D01*
X164002255Y-70762284D01*
X163991076Y-70735295D01*
X163987014Y-70728260D01*
X163899514Y-70614228D01*
X163893772Y-70608486D01*
X163779743Y-70520988D01*
X163772700Y-70516921D01*
X163639913Y-70461919D01*
X163632065Y-70459816D01*
X163525352Y-70445767D01*
X163521273Y-70445500D01*
X163151931Y-70445500D01*
X163143141Y-70449141D01*
X163139500Y-70457931D01*
X163139500Y-70756069D01*
X162631500Y-70756069D01*
X162631500Y-70457931D01*
X162627859Y-70449141D01*
X162619069Y-70445500D01*
X162249727Y-70445500D01*
X162245648Y-70445767D01*
X162179000Y-70454541D01*
X162179000Y-69908774D01*
X164113585Y-69908774D01*
X164114138Y-69910107D01*
X164115668Y-69911033D01*
X164150168Y-69921811D01*
X164158862Y-69923220D01*
X164293739Y-69925691D01*
X164302480Y-69924602D01*
X164350134Y-69911610D01*
X164357659Y-69905784D01*
X164357761Y-69904984D01*
X164356361Y-69902571D01*
X164244290Y-69790500D01*
X164235500Y-69786859D01*
X164226710Y-69790500D01*
X164117226Y-69899984D01*
X164113585Y-69908774D01*
X162179000Y-69908774D01*
X162179000Y-69699500D01*
X162373069Y-69699500D01*
X162381859Y-69695859D01*
X162385500Y-69687069D01*
X162685500Y-69687069D01*
X162689141Y-69695859D01*
X162697931Y-69699500D01*
X162944938Y-69699500D01*
X162951019Y-69698901D01*
X162979018Y-69693331D01*
X162990170Y-69688712D01*
X163021945Y-69667481D01*
X163030481Y-69658945D01*
X163051712Y-69627170D01*
X163056331Y-69616018D01*
X163061901Y-69588019D01*
X163062262Y-69584356D01*
X163058859Y-69576141D01*
X163050069Y-69572500D01*
X162697931Y-69572500D01*
X162689141Y-69576141D01*
X162685500Y-69584931D01*
X162685500Y-69687069D01*
X162385500Y-69687069D01*
X162385500Y-69584931D01*
X162381859Y-69576141D01*
X162373069Y-69572500D01*
X162179000Y-69572500D01*
X162179000Y-69272500D01*
X163050069Y-69272500D01*
X163081173Y-69259616D01*
X163083441Y-69257348D01*
X163131276Y-69257349D01*
X163155200Y-69274875D01*
X163174256Y-69297545D01*
X163174262Y-69297550D01*
X163177123Y-69300954D01*
X163180826Y-69303419D01*
X163273115Y-69364851D01*
X163296944Y-69380713D01*
X163434334Y-69423637D01*
X163438784Y-69423719D01*
X163438787Y-69423719D01*
X163573801Y-69426193D01*
X163573804Y-69426193D01*
X163578248Y-69426274D01*
X163655346Y-69405255D01*
X163702799Y-69411292D01*
X163732084Y-69449115D01*
X163733757Y-69457450D01*
X163744586Y-69540264D01*
X163748811Y-69547597D01*
X163753506Y-69545284D01*
X163876290Y-69422500D01*
X164599859Y-69422500D01*
X164603500Y-69431290D01*
X164714220Y-69542010D01*
X164722447Y-69545418D01*
X164724627Y-69541190D01*
X164742110Y-69437277D01*
X164742541Y-69432468D01*
X164742633Y-69424915D01*
X164742320Y-69420113D01*
X164725890Y-69305389D01*
X164721500Y-69297980D01*
X164716959Y-69300251D01*
X164603500Y-69413710D01*
X164599859Y-69422500D01*
X163876290Y-69422500D01*
X164353568Y-68945222D01*
X164357728Y-68935179D01*
X164391553Y-68901354D01*
X164399029Y-68898798D01*
X164421981Y-68892541D01*
X164432817Y-68889587D01*
X164432818Y-68889587D01*
X164437119Y-68888414D01*
X164559781Y-68813099D01*
X164656375Y-68706384D01*
X164719135Y-68576848D01*
X164723335Y-68551886D01*
X164742615Y-68437279D01*
X164743015Y-68434903D01*
X164743167Y-68422500D01*
X164730875Y-68336673D01*
X164723392Y-68284418D01*
X164723391Y-68284415D01*
X164722761Y-68280015D01*
X164663185Y-68148984D01*
X164569228Y-68039941D01*
X164468032Y-67974348D01*
X164440903Y-67934950D01*
X164449579Y-67887908D01*
X164469323Y-67868641D01*
X164555983Y-67815431D01*
X164559781Y-67813099D01*
X164656375Y-67706384D01*
X164719135Y-67576848D01*
X164722628Y-67556090D01*
X164736093Y-67476049D01*
X164743015Y-67434903D01*
X164743167Y-67422500D01*
X164734951Y-67365133D01*
X164723392Y-67284418D01*
X164723391Y-67284415D01*
X164722761Y-67280015D01*
X164683765Y-67194248D01*
X164665029Y-67153039D01*
X164665028Y-67153037D01*
X164663185Y-67148984D01*
X164569228Y-67039941D01*
X164468032Y-66974348D01*
X164440903Y-66934950D01*
X164449579Y-66887908D01*
X164469323Y-66868641D01*
X164555983Y-66815431D01*
X164559781Y-66813099D01*
X164656375Y-66706384D01*
X164719135Y-66576848D01*
X164721283Y-66564085D01*
X164742615Y-66437279D01*
X164743015Y-66434903D01*
X164743167Y-66422500D01*
X164730875Y-66336673D01*
X164723392Y-66284418D01*
X164723391Y-66284415D01*
X164722761Y-66280015D01*
X164673587Y-66171862D01*
X164665029Y-66153039D01*
X164665028Y-66153037D01*
X164663185Y-66148984D01*
X164569228Y-66039941D01*
X164565491Y-66037519D01*
X164565489Y-66037517D01*
X164557084Y-66032069D01*
X164529956Y-65992670D01*
X164538633Y-65945628D01*
X164578884Y-65918324D01*
X164599147Y-65914293D01*
X164625708Y-65909009D01*
X164625710Y-65909008D01*
X164628713Y-65908411D01*
X164631540Y-65907240D01*
X164631546Y-65907238D01*
X164634747Y-65905911D01*
X164638612Y-65904310D01*
X164663460Y-65890742D01*
X164667321Y-65885952D01*
X164707505Y-65836093D01*
X164707506Y-65836091D01*
X164710310Y-65832612D01*
X164712325Y-65827748D01*
X164713238Y-65825546D01*
X164713240Y-65825540D01*
X164714411Y-65822713D01*
X164724500Y-65772000D01*
X164724500Y-65550179D01*
X164725366Y-65539810D01*
X164727642Y-65526284D01*
X164743015Y-65434903D01*
X164743167Y-65422500D01*
X164725131Y-65296564D01*
X164724500Y-65287703D01*
X164724500Y-65038000D01*
X164714411Y-64987287D01*
X164713240Y-64984460D01*
X164713238Y-64984454D01*
X164710950Y-64978934D01*
X164710310Y-64977388D01*
X164696742Y-64952540D01*
X164691953Y-64948680D01*
X164691952Y-64948679D01*
X164642093Y-64908495D01*
X164642091Y-64908494D01*
X164638612Y-64905690D01*
X164634480Y-64903978D01*
X164631546Y-64902762D01*
X164631540Y-64902760D01*
X164628713Y-64901589D01*
X164610547Y-64897975D01*
X164570773Y-64871398D01*
X164561442Y-64824482D01*
X164576404Y-64794734D01*
X164607495Y-64760386D01*
X164656375Y-64706384D01*
X164719135Y-64576848D01*
X164720372Y-64569499D01*
X164735592Y-64479024D01*
X164743015Y-64434903D01*
X164743057Y-64431540D01*
X164743137Y-64424914D01*
X164743167Y-64422500D01*
X164733510Y-64355070D01*
X164723392Y-64284418D01*
X164723391Y-64284415D01*
X164722761Y-64280015D01*
X164682891Y-64192326D01*
X164665029Y-64153039D01*
X164665028Y-64153037D01*
X164663185Y-64148984D01*
X164647905Y-64131250D01*
X164577624Y-64049685D01*
X164569228Y-64039941D01*
X164448442Y-63961651D01*
X164310538Y-63920409D01*
X164238570Y-63919969D01*
X164171055Y-63919557D01*
X164171054Y-63919557D01*
X164166602Y-63919530D01*
X164137229Y-63927925D01*
X164096800Y-63939479D01*
X164049276Y-63934022D01*
X164019531Y-63896560D01*
X164017756Y-63888245D01*
X164005890Y-63805389D01*
X164001500Y-63797980D01*
X163996959Y-63800251D01*
X163397227Y-64399983D01*
X163392962Y-64410279D01*
X163359137Y-64444103D01*
X163352395Y-64446454D01*
X163345625Y-64448389D01*
X163308204Y-64459084D01*
X163186471Y-64535892D01*
X163183527Y-64539225D01*
X163183525Y-64539227D01*
X163172345Y-64551886D01*
X163129369Y-64572892D01*
X163084126Y-64557357D01*
X163063000Y-64510512D01*
X163063000Y-64259942D01*
X163060835Y-64249059D01*
X163056803Y-64228787D01*
X163056802Y-64228785D01*
X163055602Y-64222752D01*
X163027422Y-64180578D01*
X163013288Y-64171134D01*
X162986712Y-64131360D01*
X162996044Y-64084444D01*
X163003817Y-64074973D01*
X163147500Y-63931290D01*
X163151141Y-63922500D01*
X163147500Y-63913710D01*
X162996837Y-63763047D01*
X162978531Y-63718853D01*
X162991855Y-63686686D01*
X162991631Y-63686593D01*
X163000030Y-63666317D01*
X162998059Y-63661560D01*
X162990170Y-63656288D01*
X162979016Y-63651668D01*
X162951019Y-63646099D01*
X162944938Y-63645500D01*
X162697931Y-63645500D01*
X162689141Y-63649141D01*
X162685500Y-63657931D01*
X162685500Y-64010000D01*
X162667194Y-64054194D01*
X162623000Y-64072500D01*
X162052000Y-64072500D01*
X162052000Y-63772500D01*
X162373069Y-63772500D01*
X162381859Y-63768859D01*
X162385500Y-63760069D01*
X162385500Y-63657931D01*
X162381859Y-63649141D01*
X162373069Y-63645500D01*
X162126062Y-63645500D01*
X162119981Y-63646099D01*
X162091982Y-63651669D01*
X162080830Y-63656288D01*
X162052000Y-63675551D01*
X162052000Y-63440088D01*
X163393169Y-63440088D01*
X163394415Y-63442205D01*
X163506710Y-63554500D01*
X163515500Y-63558141D01*
X163524290Y-63554500D01*
X163633570Y-63445220D01*
X163637211Y-63436430D01*
X163636740Y-63435293D01*
X163634914Y-63434203D01*
X163594731Y-63422185D01*
X163586011Y-63420882D01*
X163451123Y-63420057D01*
X163442388Y-63421254D01*
X163400736Y-63433158D01*
X163393286Y-63439074D01*
X163393169Y-63440088D01*
X162052000Y-63440088D01*
X162052000Y-63246000D01*
X159004000Y-63246000D01*
X158194652Y-62551000D01*
X159709581Y-62551000D01*
X159727148Y-62661912D01*
X159743848Y-62694687D01*
X159765447Y-62737078D01*
X159778128Y-62761967D01*
X159857533Y-62841372D01*
X159861914Y-62843604D01*
X159861915Y-62843605D01*
X159893070Y-62859479D01*
X159957588Y-62892352D01*
X160068500Y-62909919D01*
X160179412Y-62892352D01*
X160243930Y-62859479D01*
X160275085Y-62843605D01*
X160275086Y-62843604D01*
X160279467Y-62841372D01*
X160358872Y-62761967D01*
X160371554Y-62737078D01*
X160393152Y-62694687D01*
X160409852Y-62661912D01*
X160422396Y-62582716D01*
X161768745Y-62582716D01*
X161779924Y-62609705D01*
X161783986Y-62616740D01*
X161871486Y-62730772D01*
X161877228Y-62736514D01*
X161991257Y-62824012D01*
X161998300Y-62828079D01*
X162131087Y-62883081D01*
X162138935Y-62885184D01*
X162245648Y-62899233D01*
X162249727Y-62899500D01*
X162619069Y-62899500D01*
X162627859Y-62895859D01*
X162631500Y-62887069D01*
X163139500Y-62887069D01*
X163143141Y-62895859D01*
X163151931Y-62899500D01*
X163521273Y-62899500D01*
X163525352Y-62899233D01*
X163632065Y-62885184D01*
X163639913Y-62883081D01*
X163772700Y-62828079D01*
X163779743Y-62824012D01*
X163893772Y-62736514D01*
X163899514Y-62730772D01*
X163987012Y-62616744D01*
X163991079Y-62609701D01*
X164000073Y-62587986D01*
X164000073Y-62578470D01*
X163998103Y-62576500D01*
X163151931Y-62576500D01*
X163143141Y-62580141D01*
X163139500Y-62588931D01*
X163139500Y-62887069D01*
X162631500Y-62887069D01*
X162631500Y-62588931D01*
X162627859Y-62580141D01*
X162619069Y-62576500D01*
X161778601Y-62576500D01*
X161769811Y-62580141D01*
X161768745Y-62582716D01*
X160422396Y-62582716D01*
X160427419Y-62551000D01*
X160409852Y-62440088D01*
X160380735Y-62382942D01*
X160361105Y-62344415D01*
X160361104Y-62344414D01*
X160358872Y-62340033D01*
X160279467Y-62260628D01*
X160275086Y-62258396D01*
X160275085Y-62258395D01*
X160183798Y-62211883D01*
X160183799Y-62211883D01*
X160179412Y-62209648D01*
X160089878Y-62195467D01*
X160073362Y-62192851D01*
X160068500Y-62192081D01*
X160063638Y-62192851D01*
X160047122Y-62195467D01*
X159957588Y-62209648D01*
X159953201Y-62211883D01*
X159953202Y-62211883D01*
X159861915Y-62258395D01*
X159861914Y-62258396D01*
X159857533Y-62260628D01*
X159778128Y-62340033D01*
X159775896Y-62344414D01*
X159775895Y-62344415D01*
X159756265Y-62382942D01*
X159727148Y-62440088D01*
X159709581Y-62551000D01*
X158194652Y-62551000D01*
X157630473Y-62066530D01*
X161770927Y-62066530D01*
X161772897Y-62068500D01*
X162619069Y-62068500D01*
X162627859Y-62064859D01*
X162631500Y-62056069D01*
X163139500Y-62056069D01*
X163143141Y-62064859D01*
X163151931Y-62068500D01*
X163992399Y-62068500D01*
X164001189Y-62064859D01*
X164002255Y-62062284D01*
X163991076Y-62035295D01*
X163987014Y-62028260D01*
X163899514Y-61914228D01*
X163893772Y-61908486D01*
X163779743Y-61820988D01*
X163772700Y-61816921D01*
X163639913Y-61761919D01*
X163632065Y-61759816D01*
X163525352Y-61745767D01*
X163521273Y-61745500D01*
X163151931Y-61745500D01*
X163143141Y-61749141D01*
X163139500Y-61757931D01*
X163139500Y-62056069D01*
X162631500Y-62056069D01*
X162631500Y-61757931D01*
X162627859Y-61749141D01*
X162619069Y-61745500D01*
X162249727Y-61745500D01*
X162245648Y-61745767D01*
X162138935Y-61759816D01*
X162131087Y-61761919D01*
X161998300Y-61816921D01*
X161991257Y-61820988D01*
X161877228Y-61908486D01*
X161871486Y-61914228D01*
X161783988Y-62028256D01*
X161779921Y-62035299D01*
X161770927Y-62057014D01*
X161770927Y-62066530D01*
X157630473Y-62066530D01*
X154715039Y-59563000D01*
X138557000Y-59563000D01*
X138557000Y-62865000D01*
X132534500Y-62865000D01*
X132534500Y-59625964D01*
X132754112Y-59625964D01*
X132762736Y-59855669D01*
X132763278Y-59858254D01*
X132763279Y-59858259D01*
X132793492Y-60002253D01*
X132809939Y-60080637D01*
X132894372Y-60294436D01*
X133013621Y-60490952D01*
X133015355Y-60492950D01*
X133015357Y-60492953D01*
X133101819Y-60592591D01*
X133164276Y-60664566D01*
X133342029Y-60810315D01*
X133541798Y-60924030D01*
X133544282Y-60924932D01*
X133544285Y-60924933D01*
X133622069Y-60953167D01*
X133757871Y-61002461D01*
X133984069Y-61043364D01*
X133986109Y-61043460D01*
X133986116Y-61043461D01*
X134007428Y-61044466D01*
X134007446Y-61044466D01*
X134008158Y-61044500D01*
X134169712Y-61044500D01*
X134171028Y-61044388D01*
X134171036Y-61044388D01*
X134338406Y-61030186D01*
X134338408Y-61030186D01*
X134341044Y-61029962D01*
X134343601Y-61029298D01*
X134343603Y-61029298D01*
X134445187Y-61002932D01*
X134563539Y-60972214D01*
X134565952Y-60971127D01*
X134565955Y-60971126D01*
X134770704Y-60878893D01*
X134770707Y-60878891D01*
X134773123Y-60877803D01*
X134963803Y-60749430D01*
X134965715Y-60747606D01*
X134965720Y-60747602D01*
X135054859Y-60662567D01*
X135130128Y-60590764D01*
X135267342Y-60406342D01*
X135371520Y-60201438D01*
X135433369Y-60002253D01*
X135438900Y-59984440D01*
X135438901Y-59984437D01*
X135439685Y-59981911D01*
X135469888Y-59754036D01*
X135461264Y-59524331D01*
X135414061Y-59299363D01*
X135329628Y-59085564D01*
X135210379Y-58889048D01*
X135123767Y-58789236D01*
X135061459Y-58717433D01*
X135061457Y-58717431D01*
X135059724Y-58715434D01*
X134881971Y-58569685D01*
X134682202Y-58455970D01*
X134679718Y-58455068D01*
X134679715Y-58455067D01*
X134601028Y-58426505D01*
X134466129Y-58377539D01*
X134239931Y-58336636D01*
X134237891Y-58336540D01*
X134237884Y-58336539D01*
X134216572Y-58335534D01*
X134216554Y-58335534D01*
X134215842Y-58335500D01*
X134054288Y-58335500D01*
X134052972Y-58335612D01*
X134052964Y-58335612D01*
X133885594Y-58349814D01*
X133885592Y-58349814D01*
X133882956Y-58350038D01*
X133880399Y-58350702D01*
X133880397Y-58350702D01*
X133782040Y-58376230D01*
X133660461Y-58407786D01*
X133658048Y-58408873D01*
X133658045Y-58408874D01*
X133453296Y-58501107D01*
X133453293Y-58501109D01*
X133450877Y-58502197D01*
X133260197Y-58630570D01*
X133258285Y-58632394D01*
X133258280Y-58632398D01*
X133179534Y-58707519D01*
X133093872Y-58789236D01*
X132956658Y-58973658D01*
X132852480Y-59178562D01*
X132784315Y-59398089D01*
X132754112Y-59625964D01*
X132534500Y-59625964D01*
X132534500Y-58450107D01*
X132536114Y-58435994D01*
X132536201Y-58435617D01*
X132539655Y-58420718D01*
X132539656Y-58420000D01*
X132538872Y-58416562D01*
X132538479Y-58413050D01*
X132539114Y-58412979D01*
X132538501Y-58394745D01*
X132548003Y-58334753D01*
X132554045Y-58316156D01*
X132588733Y-58248076D01*
X132600227Y-58232256D01*
X132654256Y-58178227D01*
X132670076Y-58166733D01*
X132738155Y-58132045D01*
X132756752Y-58126002D01*
X132816541Y-58116533D01*
X132827744Y-58116919D01*
X132827745Y-58116067D01*
X132834783Y-58116079D01*
X132841641Y-58117656D01*
X132848504Y-58116103D01*
X132848505Y-58116103D01*
X132857617Y-58114041D01*
X132871411Y-58112500D01*
X164562127Y-58112500D01*
X164576134Y-58114090D01*
G37*
G04 #@! TD.AperFunction*
G04 #@! TA.AperFunction,Conductor*
G36*
X164587899Y-65028101D02*
G01*
X164592000Y-65038000D01*
X164592000Y-65772000D01*
X164587899Y-65781899D01*
X164578000Y-65786000D01*
X164213273Y-65786000D01*
X164208846Y-65785282D01*
X163943973Y-65696991D01*
X163936561Y-65691181D01*
X163884413Y-65608531D01*
X163781464Y-65517609D01*
X163657134Y-65459236D01*
X163656149Y-65459083D01*
X163656147Y-65459082D01*
X163553393Y-65443083D01*
X163553387Y-65443083D01*
X163552857Y-65443000D01*
X163481069Y-65443000D01*
X163480582Y-65443070D01*
X163480578Y-65443070D01*
X163380517Y-65457400D01*
X163380514Y-65457401D01*
X163379536Y-65457541D01*
X163254503Y-65514390D01*
X163253749Y-65515040D01*
X163253747Y-65515041D01*
X163215371Y-65548108D01*
X163150451Y-65604047D01*
X163118970Y-65652616D01*
X163110146Y-65658692D01*
X163107223Y-65659000D01*
X162193000Y-65659000D01*
X162183101Y-65654899D01*
X162179000Y-65645000D01*
X162179000Y-65177000D01*
X162183101Y-65167101D01*
X162193000Y-65163000D01*
X162560778Y-65163000D01*
X162560779Y-65162999D01*
X162944412Y-65162999D01*
X162945091Y-65162864D01*
X162969459Y-65158018D01*
X162969460Y-65158018D01*
X162970811Y-65157749D01*
X162977382Y-65153359D01*
X162985159Y-65151000D01*
X163084939Y-65151000D01*
X163094838Y-65155101D01*
X163096779Y-65157529D01*
X163132066Y-65213454D01*
X163146587Y-65236469D01*
X163249536Y-65327391D01*
X163373866Y-65385764D01*
X163374851Y-65385917D01*
X163374853Y-65385918D01*
X163477607Y-65401917D01*
X163477613Y-65401917D01*
X163478143Y-65402000D01*
X163549931Y-65402000D01*
X163550418Y-65401930D01*
X163550422Y-65401930D01*
X163650483Y-65387600D01*
X163650486Y-65387599D01*
X163651464Y-65387459D01*
X163776497Y-65330610D01*
X163781004Y-65326727D01*
X163815629Y-65296892D01*
X163880549Y-65240953D01*
X163936196Y-65155101D01*
X163954713Y-65126534D01*
X163954713Y-65126533D01*
X163955256Y-65125696D01*
X163956867Y-65120308D01*
X163958636Y-65114396D01*
X163965402Y-65106087D01*
X163967622Y-65105126D01*
X164208846Y-65024718D01*
X164213273Y-65024000D01*
X164578000Y-65024000D01*
X164587899Y-65028101D01*
G37*
G04 #@! TD.AperFunction*
G04 #@! TA.AperFunction,Conductor*
G36*
X159922029Y-70091306D02*
G01*
X159931123Y-70102841D01*
X159944698Y-70124991D01*
X159944707Y-70125003D01*
X159945987Y-70127092D01*
X159947581Y-70128958D01*
X159947583Y-70128961D01*
X159985979Y-70173914D01*
X160089155Y-70294709D01*
X160091018Y-70296300D01*
X160254914Y-70436272D01*
X160254918Y-70436275D01*
X160256781Y-70437866D01*
X160444737Y-70553040D01*
X160648396Y-70637394D01*
X160650783Y-70637967D01*
X160650786Y-70637968D01*
X160747343Y-70661148D01*
X160862742Y-70688852D01*
X160963074Y-70696748D01*
X160967111Y-70697199D01*
X161022030Y-70705162D01*
X161023857Y-70705210D01*
X161023859Y-70705210D01*
X161047177Y-70705820D01*
X161082500Y-70706745D01*
X161084316Y-70706578D01*
X161084321Y-70706578D01*
X161105294Y-70704651D01*
X161128734Y-70702497D01*
X161129442Y-70702437D01*
X161302255Y-70688837D01*
X161304642Y-70688264D01*
X161304648Y-70688263D01*
X161514210Y-70637953D01*
X161514213Y-70637952D01*
X161516600Y-70637379D01*
X161720256Y-70553026D01*
X161908210Y-70437853D01*
X161910073Y-70436262D01*
X161910077Y-70436259D01*
X162073971Y-70296288D01*
X162075834Y-70294697D01*
X162150265Y-70207556D01*
X162179000Y-70173914D01*
X162179000Y-70739000D01*
X159639000Y-70739000D01*
X159639000Y-70104000D01*
X159599353Y-70104000D01*
X159607879Y-70087622D01*
X159648053Y-70073000D01*
X159877835Y-70073000D01*
X159922029Y-70091306D01*
G37*
G04 #@! TD.AperFunction*
G04 #@! TA.AperFunction,Conductor*
G36*
X147097344Y-64241951D02*
G01*
X147933194Y-65077801D01*
X147951500Y-65121995D01*
X147951500Y-67118594D01*
X147951366Y-67122682D01*
X147946967Y-67189800D01*
X147954530Y-67253694D01*
X147957526Y-67279010D01*
X147957696Y-67280629D01*
X147965919Y-67370114D01*
X147968703Y-67379985D01*
X147970615Y-67389597D01*
X147971820Y-67399781D01*
X147972669Y-67402515D01*
X147972670Y-67402520D01*
X147998458Y-67485567D01*
X147998923Y-67487137D01*
X148022536Y-67570867D01*
X148022539Y-67570874D01*
X148023314Y-67573623D01*
X148024579Y-67576188D01*
X148024582Y-67576196D01*
X148027850Y-67582822D01*
X148031481Y-67591922D01*
X148034523Y-67601717D01*
X148035857Y-67604252D01*
X148035858Y-67604255D01*
X148076348Y-67681213D01*
X148077091Y-67682671D01*
X148116835Y-67763264D01*
X148122974Y-67771486D01*
X148128199Y-67779767D01*
X148132976Y-67788846D01*
X148145711Y-67805000D01*
X148188599Y-67859404D01*
X148189595Y-67860702D01*
X148238951Y-67926797D01*
X148243349Y-67932687D01*
X148292048Y-67977704D01*
X148305021Y-67989696D01*
X148306790Y-67991397D01*
X150022452Y-69707059D01*
X150025248Y-69710044D01*
X150069601Y-69760619D01*
X150071848Y-69762390D01*
X150071855Y-69762397D01*
X150140165Y-69816248D01*
X150141437Y-69817277D01*
X150208302Y-69872888D01*
X150210504Y-69874719D01*
X150213003Y-69876118D01*
X150213008Y-69876122D01*
X150219448Y-69879728D01*
X150227599Y-69885174D01*
X150235654Y-69891524D01*
X150238190Y-69892858D01*
X150315176Y-69933363D01*
X150316614Y-69934144D01*
X150344819Y-69949940D01*
X150394991Y-69978037D01*
X150404705Y-69981334D01*
X150413701Y-69985199D01*
X150422782Y-69989977D01*
X150425509Y-69990824D01*
X150425512Y-69990825D01*
X150508601Y-70016625D01*
X150510157Y-70017131D01*
X150535361Y-70025686D01*
X150595216Y-70046004D01*
X150605362Y-70047475D01*
X150614925Y-70049639D01*
X150621984Y-70051831D01*
X150621986Y-70051831D01*
X150624719Y-70052680D01*
X150699997Y-70061590D01*
X150713972Y-70063244D01*
X150715594Y-70063458D01*
X150801641Y-70075934D01*
X150804476Y-70076345D01*
X150807332Y-70076233D01*
X150807336Y-70076233D01*
X150888393Y-70073048D01*
X150890847Y-70073000D01*
X157089947Y-70073000D01*
X157134141Y-70091306D01*
X157140060Y-70104000D01*
X150114000Y-70104000D01*
X147701000Y-67691000D01*
X147701000Y-64897000D01*
X147034376Y-64230376D01*
X147069326Y-64225774D01*
X147097344Y-64241951D01*
G37*
G04 #@! TD.AperFunction*
G04 #@! TA.AperFunction,Conductor*
G36*
X159002992Y-63245134D02*
G01*
X158993076Y-63260698D01*
X158957229Y-63272000D01*
X154813495Y-63272000D01*
X154769301Y-63253694D01*
X153001239Y-61485632D01*
X151078606Y-59563000D01*
X154715039Y-59563000D01*
X159002992Y-63245134D01*
G37*
G04 #@! TD.AperFunction*
G04 #@! TA.AperFunction,Conductor*
G36*
X138951449Y-61505945D02*
G01*
X138948463Y-61508741D01*
X138897881Y-61553101D01*
X138896105Y-61555354D01*
X138896104Y-61555355D01*
X138842244Y-61623676D01*
X138841226Y-61624935D01*
X138783781Y-61694004D01*
X138782382Y-61696503D01*
X138782378Y-61696508D01*
X138778772Y-61702948D01*
X138773326Y-61711099D01*
X138766976Y-61719154D01*
X138765642Y-61721690D01*
X138725137Y-61798676D01*
X138724356Y-61800114D01*
X138680463Y-61878491D01*
X138677166Y-61888205D01*
X138673301Y-61897201D01*
X138668523Y-61906282D01*
X138667676Y-61909009D01*
X138667675Y-61909012D01*
X138641869Y-61992119D01*
X138641363Y-61993674D01*
X138612496Y-62078717D01*
X138612085Y-62081548D01*
X138612085Y-62081550D01*
X138611025Y-62088861D01*
X138608860Y-62098428D01*
X138605820Y-62108219D01*
X138603212Y-62130253D01*
X138595258Y-62197453D01*
X138595044Y-62199075D01*
X138582154Y-62287976D01*
X138582266Y-62290832D01*
X138582266Y-62290836D01*
X138585452Y-62371909D01*
X138585500Y-62374363D01*
X138585500Y-62457684D01*
X138567194Y-62501878D01*
X138557000Y-62506101D01*
X138557000Y-59563000D01*
X140894393Y-59563000D01*
X138951449Y-61505945D01*
G37*
G04 #@! TD.AperFunction*
G04 #@! TA.AperFunction,Conductor*
G36*
X143764000Y-70739000D02*
G01*
X140335000Y-70739000D01*
X140335000Y-69723000D01*
X140830953Y-69723000D01*
X140849092Y-69895576D01*
X140902714Y-70060611D01*
X140989478Y-70210889D01*
X141105590Y-70339845D01*
X141245976Y-70441842D01*
X141252004Y-70444526D01*
X141252006Y-70444527D01*
X141398470Y-70509737D01*
X141404501Y-70512422D01*
X141489368Y-70530461D01*
X141567779Y-70547128D01*
X141567783Y-70547128D01*
X141574236Y-70548500D01*
X141747764Y-70548500D01*
X141754217Y-70547128D01*
X141754221Y-70547128D01*
X141827689Y-70531512D01*
X141917499Y-70512422D01*
X141934753Y-70504740D01*
X142005119Y-70495306D01*
X142037246Y-70504739D01*
X142054501Y-70512422D01*
X142144311Y-70531512D01*
X142217779Y-70547128D01*
X142217783Y-70547128D01*
X142224236Y-70548500D01*
X142397764Y-70548500D01*
X142404217Y-70547128D01*
X142404221Y-70547128D01*
X142482632Y-70530461D01*
X142567499Y-70512422D01*
X142573530Y-70509737D01*
X142719994Y-70444527D01*
X142719996Y-70444526D01*
X142726024Y-70441842D01*
X142866410Y-70339845D01*
X142982522Y-70210889D01*
X143069286Y-70060611D01*
X143122908Y-69895576D01*
X143141047Y-69723000D01*
X143122908Y-69550424D01*
X143069286Y-69385389D01*
X142982522Y-69235111D01*
X142866410Y-69106155D01*
X142726024Y-69004158D01*
X142719996Y-69001474D01*
X142719994Y-69001473D01*
X142573530Y-68936263D01*
X142573529Y-68936263D01*
X142567499Y-68933578D01*
X142482631Y-68915539D01*
X142404221Y-68898872D01*
X142404217Y-68898872D01*
X142397764Y-68897500D01*
X142224236Y-68897500D01*
X142217783Y-68898872D01*
X142217779Y-68898872D01*
X142144311Y-68914488D01*
X142054501Y-68933578D01*
X142037247Y-68941260D01*
X141966881Y-68950694D01*
X141934754Y-68941261D01*
X141917499Y-68933578D01*
X141827689Y-68914488D01*
X141754221Y-68898872D01*
X141754217Y-68898872D01*
X141747764Y-68897500D01*
X141574236Y-68897500D01*
X141567783Y-68898872D01*
X141567779Y-68898872D01*
X141489369Y-68915539D01*
X141404501Y-68933578D01*
X141398472Y-68936262D01*
X141398470Y-68936263D01*
X141252007Y-69001473D01*
X141252005Y-69001474D01*
X141245977Y-69004158D01*
X141240636Y-69008038D01*
X141240635Y-69008039D01*
X141175311Y-69055500D01*
X141105590Y-69106155D01*
X140989478Y-69235111D01*
X140902714Y-69385389D01*
X140849092Y-69550424D01*
X140830953Y-69723000D01*
X140335000Y-69723000D01*
X140335000Y-68834000D01*
X143764000Y-68834000D01*
X143764000Y-70739000D01*
G37*
G04 #@! TD.AperFunction*
M02*
