G04 #@! TF.GenerationSoftware,KiCad,Pcbnew,6.0.11-2627ca5db0~126~ubuntu22.04.1*
G04 #@! TF.CreationDate,2023-02-09T23:48:25+01:00*
G04 #@! TF.ProjectId,PDLeech,50444c65-6563-4682-9e6b-696361645f70,rev?*
G04 #@! TF.SameCoordinates,Original*
G04 #@! TF.FileFunction,Soldermask,Top*
G04 #@! TF.FilePolarity,Negative*
%FSLAX46Y46*%
G04 Gerber Fmt 4.6, Leading zero omitted, Abs format (unit mm)*
G04 Created by KiCad (PCBNEW 6.0.11-2627ca5db0~126~ubuntu22.04.1) date 2023-02-09 23:48:25*
%MOMM*%
%LPD*%
G01*
G04 APERTURE LIST*
%ADD10C,0.150000*%
%ADD11C,2.200000*%
%ADD12C,0.650000*%
%ADD13O,0.950000X0.650000*%
%ADD14R,0.300000X0.700000*%
%ADD15O,0.800000X1.400000*%
%ADD16R,0.800000X0.300000*%
%ADD17C,0.750000*%
%ADD18O,2.100000X0.900000*%
%ADD19C,1.300000*%
G04 APERTURE END LIST*
D10*
X133870571Y-72365809D02*
X133870571Y-72699142D01*
X134394380Y-72699142D02*
X133394380Y-72699142D01*
X133394380Y-72222952D01*
X134346761Y-71461047D02*
X134394380Y-71556285D01*
X134394380Y-71746761D01*
X134346761Y-71842000D01*
X134251523Y-71889619D01*
X133870571Y-71889619D01*
X133775333Y-71842000D01*
X133727714Y-71746761D01*
X133727714Y-71556285D01*
X133775333Y-71461047D01*
X133870571Y-71413428D01*
X133965809Y-71413428D01*
X134061047Y-71889619D01*
X134394380Y-70984857D02*
X133394380Y-70984857D01*
X133775333Y-70984857D02*
X133727714Y-70889619D01*
X133727714Y-70699142D01*
X133775333Y-70603904D01*
X133822952Y-70556285D01*
X133918190Y-70508666D01*
X134203904Y-70508666D01*
X134299142Y-70556285D01*
X134346761Y-70603904D01*
X134394380Y-70699142D01*
X134394380Y-70889619D01*
X134346761Y-70984857D01*
X133489619Y-69365809D02*
X133442000Y-69318190D01*
X133394380Y-69222952D01*
X133394380Y-68984857D01*
X133442000Y-68889619D01*
X133489619Y-68842000D01*
X133584857Y-68794380D01*
X133680095Y-68794380D01*
X133822952Y-68842000D01*
X134394380Y-69413428D01*
X134394380Y-68794380D01*
X133394380Y-68175333D02*
X133394380Y-68080095D01*
X133442000Y-67984857D01*
X133489619Y-67937238D01*
X133584857Y-67889619D01*
X133775333Y-67842000D01*
X134013428Y-67842000D01*
X134203904Y-67889619D01*
X134299142Y-67937238D01*
X134346761Y-67984857D01*
X134394380Y-68080095D01*
X134394380Y-68175333D01*
X134346761Y-68270571D01*
X134299142Y-68318190D01*
X134203904Y-68365809D01*
X134013428Y-68413428D01*
X133775333Y-68413428D01*
X133584857Y-68365809D01*
X133489619Y-68318190D01*
X133442000Y-68270571D01*
X133394380Y-68175333D01*
X133489619Y-67461047D02*
X133442000Y-67413428D01*
X133394380Y-67318190D01*
X133394380Y-67080095D01*
X133442000Y-66984857D01*
X133489619Y-66937238D01*
X133584857Y-66889619D01*
X133680095Y-66889619D01*
X133822952Y-66937238D01*
X134394380Y-67508666D01*
X134394380Y-66889619D01*
X133394380Y-66556285D02*
X133394380Y-65937238D01*
X133775333Y-66270571D01*
X133775333Y-66127714D01*
X133822952Y-66032476D01*
X133870571Y-65984857D01*
X133965809Y-65937238D01*
X134203904Y-65937238D01*
X134299142Y-65984857D01*
X134346761Y-66032476D01*
X134394380Y-66127714D01*
X134394380Y-66413428D01*
X134346761Y-66508666D01*
X134299142Y-66556285D01*
X136004380Y-70127714D02*
X135004380Y-70127714D01*
X135004380Y-69889619D01*
X135052000Y-69746761D01*
X135147238Y-69651523D01*
X135242476Y-69603904D01*
X135432952Y-69556285D01*
X135575809Y-69556285D01*
X135766285Y-69603904D01*
X135861523Y-69651523D01*
X135956761Y-69746761D01*
X136004380Y-69889619D01*
X136004380Y-70127714D01*
X136004380Y-69127714D02*
X135004380Y-69127714D01*
X135004380Y-68889619D01*
X135052000Y-68746761D01*
X135147238Y-68651523D01*
X135242476Y-68603904D01*
X135432952Y-68556285D01*
X135575809Y-68556285D01*
X135766285Y-68603904D01*
X135861523Y-68651523D01*
X135956761Y-68746761D01*
X136004380Y-68889619D01*
X136004380Y-69127714D01*
X136004380Y-67651523D02*
X136004380Y-68127714D01*
X135004380Y-68127714D01*
D11*
X134112000Y-59690000D03*
D12*
X138386000Y-63839000D03*
D13*
X145586000Y-63839000D03*
D14*
X139236000Y-63179000D03*
X139736000Y-63179000D03*
X140236000Y-63179000D03*
X140736000Y-63179000D03*
X141236000Y-63179000D03*
X141736000Y-63179000D03*
X142236000Y-63179000D03*
X142736000Y-63179000D03*
X143236000Y-63179000D03*
X143736000Y-63179000D03*
X144236000Y-63179000D03*
X144736000Y-63179000D03*
D12*
X144786000Y-64489000D03*
X144386000Y-65189000D03*
X143586000Y-65189000D03*
X143186000Y-64489000D03*
X142786000Y-65189000D03*
X142386000Y-64489000D03*
X141586000Y-64489000D03*
X141186000Y-65189000D03*
X140786000Y-64489000D03*
X140386000Y-65189000D03*
X139586000Y-65189000D03*
X139186000Y-64489000D03*
D15*
X146116000Y-65089000D03*
X137856000Y-65089000D03*
X146476000Y-69469000D03*
X137496000Y-69469000D03*
D11*
X163576000Y-75438000D03*
D16*
X162535500Y-63922500D03*
X162535500Y-64422500D03*
X162535500Y-64922500D03*
X162535500Y-65422500D03*
X162535500Y-65922500D03*
X162535500Y-66422500D03*
X162535500Y-66922500D03*
X162535500Y-67422500D03*
X162535500Y-67922500D03*
X162535500Y-68422500D03*
X162535500Y-68922500D03*
X162535500Y-69422500D03*
D17*
X164235500Y-69422500D03*
X163515500Y-68922500D03*
X164235500Y-68422500D03*
X163515500Y-67922500D03*
X164235500Y-67422500D03*
X163515500Y-66922500D03*
X164235500Y-66422500D03*
X163515500Y-65922500D03*
X164235500Y-65422500D03*
X163515500Y-64922500D03*
X164235500Y-64422500D03*
X163515500Y-63922500D03*
D18*
X162885500Y-71022500D03*
X162885500Y-62322500D03*
D19*
X144486000Y-67805000D03*
X139486000Y-67805000D03*
M02*
