G04 #@! TF.GenerationSoftware,KiCad,Pcbnew,6.0.11-2627ca5db0~126~ubuntu22.04.1*
G04 #@! TF.CreationDate,2023-02-09T23:48:25+01:00*
G04 #@! TF.ProjectId,PDLeech,50444c65-6563-4682-9e6b-696361645f70,rev?*
G04 #@! TF.SameCoordinates,Original*
G04 #@! TF.FileFunction,Legend,Top*
G04 #@! TF.FilePolarity,Positive*
%FSLAX46Y46*%
G04 Gerber Fmt 4.6, Leading zero omitted, Abs format (unit mm)*
G04 Created by KiCad (PCBNEW 6.0.11-2627ca5db0~126~ubuntu22.04.1) date 2023-02-09 23:48:25*
%MOMM*%
%LPD*%
G01*
G04 APERTURE LIST*
%ADD10C,0.150000*%
%ADD11C,0.120000*%
%ADD12C,0.254000*%
%ADD13C,2.200000*%
%ADD14C,0.650000*%
%ADD15O,0.950000X0.650000*%
%ADD16R,0.300000X0.700000*%
%ADD17O,0.800000X1.400000*%
%ADD18R,0.800000X0.300000*%
%ADD19C,0.750000*%
%ADD20O,2.100000X0.900000*%
%ADD21C,1.300000*%
G04 APERTURE END LIST*
D10*
X139803428Y-58718380D02*
X139803428Y-59527904D01*
X139851047Y-59623142D01*
X139898666Y-59670761D01*
X139993904Y-59718380D01*
X140184380Y-59718380D01*
X140279619Y-59670761D01*
X140327238Y-59623142D01*
X140374857Y-59527904D01*
X140374857Y-58718380D01*
X140803428Y-59670761D02*
X140946285Y-59718380D01*
X141184380Y-59718380D01*
X141279619Y-59670761D01*
X141327238Y-59623142D01*
X141374857Y-59527904D01*
X141374857Y-59432666D01*
X141327238Y-59337428D01*
X141279619Y-59289809D01*
X141184380Y-59242190D01*
X140993904Y-59194571D01*
X140898666Y-59146952D01*
X140851047Y-59099333D01*
X140803428Y-59004095D01*
X140803428Y-58908857D01*
X140851047Y-58813619D01*
X140898666Y-58766000D01*
X140993904Y-58718380D01*
X141232000Y-58718380D01*
X141374857Y-58766000D01*
X142136761Y-59194571D02*
X142279619Y-59242190D01*
X142327238Y-59289809D01*
X142374857Y-59385047D01*
X142374857Y-59527904D01*
X142327238Y-59623142D01*
X142279619Y-59670761D01*
X142184380Y-59718380D01*
X141803428Y-59718380D01*
X141803428Y-58718380D01*
X142136761Y-58718380D01*
X142232000Y-58766000D01*
X142279619Y-58813619D01*
X142327238Y-58908857D01*
X142327238Y-59004095D01*
X142279619Y-59099333D01*
X142232000Y-59146952D01*
X142136761Y-59194571D01*
X141803428Y-59194571D01*
X142803428Y-59337428D02*
X143565333Y-59337428D01*
X143993904Y-59432666D02*
X144470095Y-59432666D01*
X143898666Y-59718380D02*
X144232000Y-58718380D01*
X144565333Y-59718380D01*
X138065333Y-60328380D02*
X137589142Y-60328380D01*
X137541523Y-60804571D01*
X137589142Y-60756952D01*
X137684380Y-60709333D01*
X137922476Y-60709333D01*
X138017714Y-60756952D01*
X138065333Y-60804571D01*
X138112952Y-60899809D01*
X138112952Y-61137904D01*
X138065333Y-61233142D01*
X138017714Y-61280761D01*
X137922476Y-61328380D01*
X137684380Y-61328380D01*
X137589142Y-61280761D01*
X137541523Y-61233142D01*
X138732000Y-60328380D02*
X138827238Y-60328380D01*
X138922476Y-60376000D01*
X138970095Y-60423619D01*
X139017714Y-60518857D01*
X139065333Y-60709333D01*
X139065333Y-60947428D01*
X139017714Y-61137904D01*
X138970095Y-61233142D01*
X138922476Y-61280761D01*
X138827238Y-61328380D01*
X138732000Y-61328380D01*
X138636761Y-61280761D01*
X138589142Y-61233142D01*
X138541523Y-61137904D01*
X138493904Y-60947428D01*
X138493904Y-60709333D01*
X138541523Y-60518857D01*
X138589142Y-60423619D01*
X138636761Y-60376000D01*
X138732000Y-60328380D01*
X139684380Y-60328380D02*
X139779619Y-60328380D01*
X139874857Y-60376000D01*
X139922476Y-60423619D01*
X139970095Y-60518857D01*
X140017714Y-60709333D01*
X140017714Y-60947428D01*
X139970095Y-61137904D01*
X139922476Y-61233142D01*
X139874857Y-61280761D01*
X139779619Y-61328380D01*
X139684380Y-61328380D01*
X139589142Y-61280761D01*
X139541523Y-61233142D01*
X139493904Y-61137904D01*
X139446285Y-60947428D01*
X139446285Y-60709333D01*
X139493904Y-60518857D01*
X139541523Y-60423619D01*
X139589142Y-60376000D01*
X139684380Y-60328380D01*
X140446285Y-61328380D02*
X140446285Y-60661714D01*
X140446285Y-60756952D02*
X140493904Y-60709333D01*
X140589142Y-60661714D01*
X140732000Y-60661714D01*
X140827238Y-60709333D01*
X140874857Y-60804571D01*
X140874857Y-61328380D01*
X140874857Y-60804571D02*
X140922476Y-60709333D01*
X141017714Y-60661714D01*
X141160571Y-60661714D01*
X141255809Y-60709333D01*
X141303428Y-60804571D01*
X141303428Y-61328380D01*
X141732000Y-61042666D02*
X142208190Y-61042666D01*
X141636761Y-61328380D02*
X141970095Y-60328380D01*
X142303428Y-61328380D01*
X143398666Y-61328380D02*
X143398666Y-60328380D01*
X143732000Y-61042666D01*
X144065333Y-60328380D01*
X144065333Y-61328380D01*
X144493904Y-61042666D02*
X144970095Y-61042666D01*
X144398666Y-61328380D02*
X144732000Y-60328380D01*
X145065333Y-61328380D01*
X145303428Y-60328380D02*
X145970095Y-61328380D01*
X145970095Y-60328380D02*
X145303428Y-61328380D01*
G36*
X158642088Y-60412260D02*
G01*
X158642668Y-60426438D01*
X158643222Y-60450552D01*
X158643749Y-60484785D01*
X158644250Y-60529323D01*
X158644726Y-60584351D01*
X158645176Y-60650054D01*
X158645601Y-60726617D01*
X158646002Y-60814226D01*
X158646379Y-60913066D01*
X158646731Y-61023321D01*
X158647061Y-61145177D01*
X158647367Y-61278819D01*
X158647650Y-61424432D01*
X158647910Y-61582201D01*
X158648149Y-61752312D01*
X158648366Y-61934950D01*
X158648561Y-62130299D01*
X158648735Y-62338545D01*
X158648888Y-62559874D01*
X158649021Y-62794469D01*
X158649134Y-63042517D01*
X158649227Y-63304202D01*
X158649301Y-63579710D01*
X158649356Y-63869225D01*
X158649392Y-64172934D01*
X158649409Y-64491020D01*
X158649411Y-64649516D01*
X158649400Y-64952710D01*
X158649365Y-65246361D01*
X158649306Y-65530262D01*
X158649226Y-65804205D01*
X158649123Y-66067985D01*
X158648997Y-66321393D01*
X158648851Y-66564223D01*
X158648683Y-66796268D01*
X158648494Y-67017321D01*
X158648284Y-67227175D01*
X158648054Y-67425623D01*
X158647804Y-67612458D01*
X158647534Y-67787473D01*
X158647245Y-67950461D01*
X158646937Y-68101215D01*
X158646611Y-68239528D01*
X158646266Y-68365194D01*
X158645903Y-68478004D01*
X158645522Y-68577753D01*
X158645124Y-68664233D01*
X158644710Y-68737237D01*
X158644278Y-68796558D01*
X158643830Y-68841990D01*
X158643367Y-68873324D01*
X158642887Y-68890356D01*
X158642550Y-68893660D01*
X158636405Y-68888988D01*
X158619154Y-68875500D01*
X158591167Y-68853489D01*
X158552814Y-68823249D01*
X158504465Y-68785072D01*
X158446492Y-68739254D01*
X158379263Y-68686086D01*
X158303149Y-68625863D01*
X158218521Y-68558877D01*
X158125749Y-68485422D01*
X158025203Y-68405791D01*
X157917254Y-68320278D01*
X157802271Y-68229176D01*
X157680626Y-68132778D01*
X157552687Y-68031378D01*
X157418826Y-67925269D01*
X157279413Y-67814744D01*
X157134819Y-67700097D01*
X156985412Y-67581621D01*
X156831564Y-67459610D01*
X156673646Y-67334357D01*
X156512026Y-67206155D01*
X156347077Y-67075297D01*
X156179167Y-66942078D01*
X156147312Y-66916802D01*
X155978877Y-66783168D01*
X155813326Y-66651842D01*
X155651029Y-66523120D01*
X155492357Y-66397292D01*
X155337679Y-66274654D01*
X155187368Y-66155499D01*
X155041793Y-66040119D01*
X154901324Y-65928808D01*
X154766333Y-65821859D01*
X154637190Y-65719566D01*
X154514266Y-65622222D01*
X154397931Y-65530120D01*
X154288555Y-65443554D01*
X154186510Y-65362817D01*
X154092166Y-65288203D01*
X154005893Y-65220004D01*
X153928062Y-65158514D01*
X153859043Y-65104026D01*
X153799208Y-65056834D01*
X153748926Y-65017230D01*
X153708568Y-64985509D01*
X153678505Y-64961964D01*
X153659108Y-64946887D01*
X153650747Y-64940573D01*
X153650438Y-64940388D01*
X153644423Y-64944792D01*
X153627388Y-64957921D01*
X153599797Y-64979408D01*
X153562119Y-65008881D01*
X153514819Y-65045974D01*
X153458366Y-65090316D01*
X153393225Y-65141539D01*
X153319863Y-65199274D01*
X153238748Y-65263152D01*
X153150346Y-65332803D01*
X153055124Y-65407860D01*
X152953548Y-65487952D01*
X152846087Y-65572711D01*
X152733206Y-65661768D01*
X152615372Y-65754754D01*
X152493052Y-65851301D01*
X152366713Y-65951038D01*
X152236822Y-66053597D01*
X152103846Y-66158610D01*
X151968252Y-66265706D01*
X151830505Y-66374518D01*
X151691074Y-66484676D01*
X151550425Y-66595812D01*
X151409024Y-66707555D01*
X151267340Y-66819538D01*
X151125837Y-66931391D01*
X150984984Y-67042746D01*
X150845248Y-67153233D01*
X150707094Y-67262483D01*
X150570990Y-67370128D01*
X150437403Y-67475798D01*
X150306799Y-67579125D01*
X150179646Y-67679739D01*
X150056410Y-67777272D01*
X149937558Y-67871355D01*
X149823557Y-67961618D01*
X149714873Y-68047693D01*
X149611974Y-68129211D01*
X149515326Y-68205802D01*
X149425397Y-68277098D01*
X149342652Y-68342730D01*
X149267560Y-68402329D01*
X149200586Y-68455525D01*
X149142197Y-68501951D01*
X149092861Y-68541236D01*
X149053045Y-68573012D01*
X149023214Y-68596911D01*
X149003836Y-68612562D01*
X148995547Y-68619444D01*
X149000428Y-68624781D01*
X149014944Y-68640407D01*
X149038716Y-68665917D01*
X149071365Y-68700904D01*
X149112510Y-68744964D01*
X149161771Y-68797689D01*
X149218769Y-68858675D01*
X149283123Y-68927516D01*
X149354455Y-69003806D01*
X149432384Y-69087139D01*
X149516531Y-69177109D01*
X149606515Y-69273311D01*
X149701957Y-69375339D01*
X149802477Y-69482788D01*
X149907696Y-69595250D01*
X150017232Y-69712322D01*
X150130708Y-69833596D01*
X150247742Y-69958667D01*
X150367955Y-70087130D01*
X150490968Y-70218579D01*
X150616399Y-70352607D01*
X150743871Y-70488810D01*
X150873002Y-70626781D01*
X151003413Y-70766114D01*
X151134724Y-70906405D01*
X151266556Y-71047246D01*
X151398528Y-71188233D01*
X151530261Y-71328960D01*
X151661375Y-71469020D01*
X151791490Y-71608009D01*
X151920226Y-71745520D01*
X152047204Y-71881147D01*
X152172044Y-72014485D01*
X152294365Y-72145129D01*
X152413789Y-72272672D01*
X152529935Y-72396708D01*
X152642423Y-72516832D01*
X152750874Y-72632638D01*
X152854908Y-72743721D01*
X152954145Y-72849674D01*
X153048206Y-72950091D01*
X153136709Y-73044568D01*
X153219277Y-73132698D01*
X153295528Y-73214076D01*
X153365083Y-73288295D01*
X153427563Y-73354951D01*
X153482587Y-73413636D01*
X153529775Y-73463947D01*
X153568749Y-73505476D01*
X153599127Y-73537818D01*
X153620530Y-73560567D01*
X153632579Y-73573317D01*
X153634084Y-73574893D01*
X153636596Y-73574200D01*
X153642473Y-73569982D01*
X153652017Y-73561938D01*
X153665527Y-73549767D01*
X153683306Y-73533168D01*
X153705653Y-73511841D01*
X153732870Y-73485483D01*
X153765258Y-73453794D01*
X153803117Y-73416473D01*
X153846749Y-73373219D01*
X153896454Y-73323731D01*
X153952533Y-73267708D01*
X154015288Y-73204850D01*
X154085018Y-73134854D01*
X154162026Y-73057420D01*
X154246611Y-72972246D01*
X154339075Y-72879033D01*
X154439719Y-72777479D01*
X154548843Y-72667282D01*
X154666748Y-72548143D01*
X154793736Y-72419759D01*
X154930107Y-72281830D01*
X155076163Y-72134056D01*
X155228713Y-71979666D01*
X156814182Y-70374891D01*
X156969886Y-70530468D01*
X157008837Y-70569586D01*
X157044104Y-70605384D01*
X157074432Y-70636558D01*
X157098567Y-70661805D01*
X157115254Y-70679822D01*
X157123240Y-70689305D01*
X157123742Y-70690382D01*
X157118525Y-70695852D01*
X157103468Y-70711269D01*
X157079028Y-70736173D01*
X157045662Y-70770100D01*
X157003828Y-70812588D01*
X156953983Y-70863174D01*
X156896584Y-70921395D01*
X156832088Y-70986789D01*
X156760953Y-71058894D01*
X156683635Y-71137246D01*
X156600591Y-71221383D01*
X156512280Y-71310842D01*
X156419157Y-71405161D01*
X156321680Y-71503878D01*
X156220307Y-71606528D01*
X156115495Y-71712651D01*
X156007700Y-71821783D01*
X155897379Y-71933462D01*
X155784991Y-72047225D01*
X155670992Y-72162609D01*
X155555839Y-72279152D01*
X155439990Y-72396392D01*
X155323901Y-72513865D01*
X155208031Y-72631109D01*
X155092835Y-72747661D01*
X154978771Y-72863059D01*
X154866297Y-72976840D01*
X154755869Y-73088542D01*
X154647945Y-73197701D01*
X154542981Y-73303856D01*
X154441436Y-73406544D01*
X154343765Y-73505301D01*
X154250428Y-73599666D01*
X154161879Y-73689176D01*
X154078577Y-73773368D01*
X154000979Y-73851780D01*
X153929542Y-73923948D01*
X153864723Y-73989411D01*
X153806980Y-74047706D01*
X153756768Y-74098369D01*
X153714547Y-74140940D01*
X153680772Y-74174954D01*
X153655902Y-74199949D01*
X153640392Y-74215463D01*
X153634701Y-74221033D01*
X153634683Y-74221042D01*
X153629600Y-74215749D01*
X153614803Y-74200082D01*
X153590594Y-74174365D01*
X153557275Y-74138920D01*
X153515148Y-74094068D01*
X153464514Y-74040132D01*
X153405675Y-73977433D01*
X153338934Y-73906294D01*
X153264592Y-73827036D01*
X153182951Y-73739983D01*
X153094313Y-73645455D01*
X152998980Y-73543774D01*
X152897254Y-73435264D01*
X152789437Y-73320245D01*
X152675830Y-73199041D01*
X152556736Y-73071972D01*
X152432456Y-72939361D01*
X152303292Y-72801530D01*
X152169546Y-72658801D01*
X152031521Y-72511497D01*
X151889517Y-72359938D01*
X151743838Y-72204448D01*
X151594784Y-72045348D01*
X151442657Y-71882960D01*
X151287760Y-71717606D01*
X151157407Y-71578446D01*
X151000242Y-71410664D01*
X150845517Y-71245491D01*
X150693537Y-71083255D01*
X150544608Y-70924282D01*
X150399034Y-70768896D01*
X150257122Y-70617424D01*
X150119176Y-70470192D01*
X149985503Y-70327526D01*
X149856407Y-70189752D01*
X149732195Y-70057196D01*
X149613171Y-69930183D01*
X149499642Y-69809040D01*
X149391912Y-69694092D01*
X149290287Y-69585665D01*
X149195073Y-69484086D01*
X149106575Y-69389681D01*
X149025098Y-69302774D01*
X148950948Y-69223692D01*
X148884431Y-69152762D01*
X148825851Y-69090308D01*
X148775515Y-69036657D01*
X148733728Y-68992135D01*
X148700794Y-68957068D01*
X148677021Y-68931781D01*
X148662713Y-68916601D01*
X148658281Y-68911947D01*
X148634471Y-68888043D01*
X148634471Y-67987795D01*
X149081370Y-67987795D01*
X149116169Y-67958949D01*
X149124500Y-67952253D01*
X149143895Y-67936794D01*
X149173932Y-67912909D01*
X149214187Y-67880931D01*
X149264240Y-67841196D01*
X149323666Y-67794038D01*
X149392044Y-67739793D01*
X149468951Y-67678795D01*
X149553965Y-67611379D01*
X149646664Y-67537880D01*
X149746624Y-67458633D01*
X149853424Y-67373973D01*
X149966641Y-67284235D01*
X150085852Y-67189753D01*
X150210635Y-67090864D01*
X150340568Y-66987900D01*
X150475229Y-66881198D01*
X150614194Y-66771093D01*
X150757041Y-66657918D01*
X150903348Y-66542010D01*
X151052692Y-66423702D01*
X151143700Y-66351611D01*
X151295115Y-66231672D01*
X151443959Y-66113771D01*
X151589797Y-65998250D01*
X151732197Y-65885454D01*
X151870725Y-65775726D01*
X152004947Y-65669409D01*
X152134428Y-65566848D01*
X152258737Y-65468385D01*
X152377438Y-65374364D01*
X152490098Y-65285129D01*
X152596283Y-65201023D01*
X152695560Y-65122390D01*
X152787494Y-65049573D01*
X152871653Y-64982917D01*
X152947602Y-64922763D01*
X153014908Y-64869457D01*
X153073136Y-64823341D01*
X153121854Y-64784759D01*
X153160627Y-64754055D01*
X153189022Y-64731572D01*
X153206605Y-64717653D01*
X153211526Y-64713761D01*
X153286620Y-64654401D01*
X153279306Y-64648599D01*
X154009870Y-64648599D01*
X154015567Y-64653586D01*
X154032344Y-64667355D01*
X154059798Y-64689585D01*
X154097527Y-64719956D01*
X154145129Y-64758147D01*
X154202200Y-64803837D01*
X154268338Y-64856705D01*
X154343141Y-64916432D01*
X154426207Y-64982697D01*
X154517132Y-65055179D01*
X154615514Y-65133557D01*
X154720951Y-65217511D01*
X154833040Y-65306721D01*
X154951378Y-65400866D01*
X155075564Y-65499624D01*
X155205194Y-65602677D01*
X155339867Y-65709702D01*
X155479179Y-65820380D01*
X155622728Y-65934390D01*
X155770112Y-66051412D01*
X155920927Y-66171124D01*
X156074772Y-66293207D01*
X156104515Y-66316805D01*
X158198849Y-67978424D01*
X158200696Y-66311451D01*
X158200881Y-66126629D01*
X158201040Y-65929129D01*
X158201173Y-65720841D01*
X158201281Y-65503654D01*
X158201363Y-65279458D01*
X158201420Y-65050141D01*
X158201452Y-64817594D01*
X158201457Y-64583706D01*
X158201438Y-64350366D01*
X158201393Y-64119464D01*
X158201322Y-63892888D01*
X158201226Y-63672529D01*
X158201105Y-63460275D01*
X158200958Y-63258017D01*
X158200785Y-63067643D01*
X158200696Y-62983697D01*
X158198849Y-61322916D01*
X156104203Y-62982464D01*
X155949776Y-63104832D01*
X155798307Y-63224893D01*
X155650197Y-63342327D01*
X155505851Y-63456813D01*
X155365669Y-63568031D01*
X155230056Y-63675662D01*
X155099413Y-63779383D01*
X154974144Y-63878876D01*
X154854650Y-63973819D01*
X154741335Y-64063893D01*
X154634602Y-64148777D01*
X154534853Y-64228150D01*
X154442490Y-64301693D01*
X154357917Y-64369085D01*
X154281536Y-64430006D01*
X154213749Y-64484135D01*
X154154960Y-64531153D01*
X154105570Y-64570737D01*
X154065984Y-64602570D01*
X154036602Y-64626329D01*
X154017829Y-64641695D01*
X154010067Y-64648347D01*
X154009870Y-64648599D01*
X153279306Y-64648599D01*
X151215132Y-63011249D01*
X151061285Y-62889213D01*
X150910237Y-62769395D01*
X150762402Y-62652122D01*
X150618190Y-62537723D01*
X150478016Y-62426523D01*
X150342292Y-62318851D01*
X150211430Y-62215034D01*
X150085843Y-62115399D01*
X149965943Y-62020274D01*
X149852145Y-61929987D01*
X149744859Y-61844864D01*
X149644499Y-61765233D01*
X149551477Y-61691422D01*
X149466207Y-61623758D01*
X149389100Y-61562568D01*
X149320569Y-61508180D01*
X149261027Y-61460921D01*
X149210887Y-61421119D01*
X149170562Y-61389101D01*
X149140463Y-61365194D01*
X149121004Y-61349726D01*
X149112597Y-61343025D01*
X149112506Y-61342951D01*
X149081370Y-61317806D01*
X149081370Y-67987795D01*
X148634471Y-67987795D01*
X148634471Y-64650014D01*
X148634480Y-64401454D01*
X148634508Y-64156548D01*
X148634554Y-63915704D01*
X148634617Y-63679330D01*
X148634697Y-63447835D01*
X148634793Y-63221626D01*
X148634906Y-63001113D01*
X148635033Y-62786702D01*
X148635176Y-62578803D01*
X148635332Y-62377823D01*
X148635503Y-62184171D01*
X148635686Y-61998255D01*
X148635882Y-61820483D01*
X148636091Y-61651264D01*
X148636311Y-61491005D01*
X148636542Y-61340116D01*
X148636580Y-61317806D01*
X148636783Y-61199003D01*
X148637035Y-61068076D01*
X148637295Y-60947742D01*
X148637565Y-60838410D01*
X148637844Y-60740488D01*
X148638130Y-60654384D01*
X148638424Y-60580506D01*
X148638724Y-60519263D01*
X148639031Y-60471063D01*
X148639343Y-60436314D01*
X148639661Y-60415425D01*
X148639965Y-60408789D01*
X148646015Y-60413079D01*
X148663170Y-60426190D01*
X148691060Y-60447829D01*
X148729318Y-60477704D01*
X148777572Y-60515525D01*
X148835455Y-60560998D01*
X148902596Y-60613832D01*
X148978627Y-60673736D01*
X149063178Y-60740416D01*
X149155881Y-60813583D01*
X149256365Y-60892942D01*
X149364262Y-60978204D01*
X149479202Y-61069075D01*
X149600816Y-61165264D01*
X149728735Y-61266480D01*
X149862590Y-61372429D01*
X150002011Y-61482821D01*
X150146629Y-61597363D01*
X150296074Y-61715763D01*
X150449979Y-61837731D01*
X150607973Y-61962973D01*
X150769687Y-62091198D01*
X150934751Y-62222114D01*
X151102798Y-62355429D01*
X151142557Y-62386976D01*
X153639654Y-64368358D01*
X153684729Y-64333019D01*
X153693512Y-64326086D01*
X153713399Y-64310356D01*
X153744008Y-64286131D01*
X153784958Y-64253712D01*
X153835868Y-64213403D01*
X153896356Y-64165504D01*
X153966042Y-64110317D01*
X154044544Y-64048146D01*
X154131481Y-63979291D01*
X154226472Y-63904055D01*
X154329135Y-63822739D01*
X154439089Y-63735646D01*
X154555954Y-63643078D01*
X154679347Y-63545336D01*
X154808888Y-63442722D01*
X154944195Y-63335539D01*
X155084887Y-63224088D01*
X155230583Y-63108672D01*
X155380902Y-62989592D01*
X155535462Y-62867150D01*
X155693883Y-62741649D01*
X155855782Y-62613390D01*
X156020779Y-62482675D01*
X156181678Y-62355205D01*
X156348919Y-62222713D01*
X156513270Y-62092517D01*
X156674356Y-61964913D01*
X156831806Y-61840197D01*
X156985243Y-61718665D01*
X157134296Y-61600611D01*
X157278591Y-61486333D01*
X157417753Y-61376126D01*
X157551409Y-61270285D01*
X157679186Y-61169107D01*
X157800710Y-61072888D01*
X157915607Y-60981922D01*
X158023503Y-60896506D01*
X158124026Y-60816937D01*
X158216801Y-60743508D01*
X158301454Y-60676517D01*
X158377613Y-60616260D01*
X158444903Y-60563031D01*
X158502951Y-60517127D01*
X158551384Y-60478843D01*
X158589826Y-60448476D01*
X158617906Y-60426321D01*
X158635248Y-60412674D01*
X158641481Y-60407830D01*
X158642088Y-60412260D01*
G37*
D11*
X146736000Y-62829000D02*
X146736000Y-68580000D01*
X137236000Y-62829000D02*
X137236000Y-68580000D01*
X137236000Y-62829000D02*
X138736000Y-62829000D01*
X145236000Y-62829000D02*
X146736000Y-62829000D01*
D12*
X164685500Y-66716500D02*
X164685500Y-67128500D01*
X164685500Y-65716500D02*
X164685500Y-66128500D01*
X164685500Y-69716500D02*
X164685500Y-71022500D01*
X164685500Y-67716500D02*
X164685500Y-68128500D01*
X162185500Y-63096500D02*
X162185500Y-63541500D01*
X164685500Y-68716500D02*
X164685500Y-69128500D01*
X164685500Y-64716500D02*
X164685500Y-65128500D01*
X164685500Y-62322500D02*
X164159500Y-62322500D01*
X162185500Y-69803500D02*
X162185500Y-70248500D01*
X164685500Y-62322500D02*
X164685500Y-64128500D01*
X164685500Y-71022500D02*
X164159500Y-71022500D01*
%LPC*%
D10*
X133870571Y-72365809D02*
X133870571Y-72699142D01*
X134394380Y-72699142D02*
X133394380Y-72699142D01*
X133394380Y-72222952D01*
X134346761Y-71461047D02*
X134394380Y-71556285D01*
X134394380Y-71746761D01*
X134346761Y-71842000D01*
X134251523Y-71889619D01*
X133870571Y-71889619D01*
X133775333Y-71842000D01*
X133727714Y-71746761D01*
X133727714Y-71556285D01*
X133775333Y-71461047D01*
X133870571Y-71413428D01*
X133965809Y-71413428D01*
X134061047Y-71889619D01*
X134394380Y-70984857D02*
X133394380Y-70984857D01*
X133775333Y-70984857D02*
X133727714Y-70889619D01*
X133727714Y-70699142D01*
X133775333Y-70603904D01*
X133822952Y-70556285D01*
X133918190Y-70508666D01*
X134203904Y-70508666D01*
X134299142Y-70556285D01*
X134346761Y-70603904D01*
X134394380Y-70699142D01*
X134394380Y-70889619D01*
X134346761Y-70984857D01*
X133489619Y-69365809D02*
X133442000Y-69318190D01*
X133394380Y-69222952D01*
X133394380Y-68984857D01*
X133442000Y-68889619D01*
X133489619Y-68842000D01*
X133584857Y-68794380D01*
X133680095Y-68794380D01*
X133822952Y-68842000D01*
X134394380Y-69413428D01*
X134394380Y-68794380D01*
X133394380Y-68175333D02*
X133394380Y-68080095D01*
X133442000Y-67984857D01*
X133489619Y-67937238D01*
X133584857Y-67889619D01*
X133775333Y-67842000D01*
X134013428Y-67842000D01*
X134203904Y-67889619D01*
X134299142Y-67937238D01*
X134346761Y-67984857D01*
X134394380Y-68080095D01*
X134394380Y-68175333D01*
X134346761Y-68270571D01*
X134299142Y-68318190D01*
X134203904Y-68365809D01*
X134013428Y-68413428D01*
X133775333Y-68413428D01*
X133584857Y-68365809D01*
X133489619Y-68318190D01*
X133442000Y-68270571D01*
X133394380Y-68175333D01*
X133489619Y-67461047D02*
X133442000Y-67413428D01*
X133394380Y-67318190D01*
X133394380Y-67080095D01*
X133442000Y-66984857D01*
X133489619Y-66937238D01*
X133584857Y-66889619D01*
X133680095Y-66889619D01*
X133822952Y-66937238D01*
X134394380Y-67508666D01*
X134394380Y-66889619D01*
X133394380Y-66556285D02*
X133394380Y-65937238D01*
X133775333Y-66270571D01*
X133775333Y-66127714D01*
X133822952Y-66032476D01*
X133870571Y-65984857D01*
X133965809Y-65937238D01*
X134203904Y-65937238D01*
X134299142Y-65984857D01*
X134346761Y-66032476D01*
X134394380Y-66127714D01*
X134394380Y-66413428D01*
X134346761Y-66508666D01*
X134299142Y-66556285D01*
X136004380Y-70127714D02*
X135004380Y-70127714D01*
X135004380Y-69889619D01*
X135052000Y-69746761D01*
X135147238Y-69651523D01*
X135242476Y-69603904D01*
X135432952Y-69556285D01*
X135575809Y-69556285D01*
X135766285Y-69603904D01*
X135861523Y-69651523D01*
X135956761Y-69746761D01*
X136004380Y-69889619D01*
X136004380Y-70127714D01*
X136004380Y-69127714D02*
X135004380Y-69127714D01*
X135004380Y-68889619D01*
X135052000Y-68746761D01*
X135147238Y-68651523D01*
X135242476Y-68603904D01*
X135432952Y-68556285D01*
X135575809Y-68556285D01*
X135766285Y-68603904D01*
X135861523Y-68651523D01*
X135956761Y-68746761D01*
X136004380Y-68889619D01*
X136004380Y-69127714D01*
X136004380Y-67651523D02*
X136004380Y-68127714D01*
X135004380Y-68127714D01*
D13*
X134112000Y-59690000D03*
D14*
X138386000Y-63839000D03*
D15*
X145586000Y-63839000D03*
D16*
X139236000Y-63179000D03*
X139736000Y-63179000D03*
X140236000Y-63179000D03*
X140736000Y-63179000D03*
X141236000Y-63179000D03*
X141736000Y-63179000D03*
X142236000Y-63179000D03*
X142736000Y-63179000D03*
X143236000Y-63179000D03*
X143736000Y-63179000D03*
X144236000Y-63179000D03*
X144736000Y-63179000D03*
D14*
X144786000Y-64489000D03*
X144386000Y-65189000D03*
X143586000Y-65189000D03*
X143186000Y-64489000D03*
X142786000Y-65189000D03*
X142386000Y-64489000D03*
X141586000Y-64489000D03*
X141186000Y-65189000D03*
X140786000Y-64489000D03*
X140386000Y-65189000D03*
X139586000Y-65189000D03*
X139186000Y-64489000D03*
D17*
X146116000Y-65089000D03*
X137856000Y-65089000D03*
X146476000Y-69469000D03*
X137496000Y-69469000D03*
D13*
X163576000Y-75438000D03*
D18*
X162535500Y-63922500D03*
X162535500Y-64422500D03*
X162535500Y-64922500D03*
X162535500Y-65422500D03*
X162535500Y-65922500D03*
X162535500Y-66422500D03*
X162535500Y-66922500D03*
X162535500Y-67422500D03*
X162535500Y-67922500D03*
X162535500Y-68422500D03*
X162535500Y-68922500D03*
X162535500Y-69422500D03*
D19*
X164235500Y-69422500D03*
X163515500Y-68922500D03*
X164235500Y-68422500D03*
X163515500Y-67922500D03*
X164235500Y-67422500D03*
X163515500Y-66922500D03*
X164235500Y-66422500D03*
X163515500Y-65922500D03*
X164235500Y-65422500D03*
X163515500Y-64922500D03*
X164235500Y-64422500D03*
X163515500Y-63922500D03*
D20*
X162885500Y-71022500D03*
X162885500Y-62322500D03*
D21*
X144486000Y-67805000D03*
X139486000Y-67805000D03*
M02*
