G04 #@! TF.GenerationSoftware,KiCad,Pcbnew,6.0.11-2627ca5db0~126~ubuntu22.04.1*
G04 #@! TF.CreationDate,2023-02-09T23:48:25+01:00*
G04 #@! TF.ProjectId,PDLeech,50444c65-6563-4682-9e6b-696361645f70,rev?*
G04 #@! TF.SameCoordinates,Original*
G04 #@! TF.FileFunction,Copper,L2,Inr*
G04 #@! TF.FilePolarity,Positive*
%FSLAX46Y46*%
G04 Gerber Fmt 4.6, Leading zero omitted, Abs format (unit mm)*
G04 Created by KiCad (PCBNEW 6.0.11-2627ca5db0~126~ubuntu22.04.1) date 2023-02-09 23:48:25*
%MOMM*%
%LPD*%
G01*
G04 APERTURE LIST*
G04 #@! TA.AperFunction,ComponentPad*
%ADD10C,0.650000*%
G04 #@! TD*
G04 #@! TA.AperFunction,ComponentPad*
%ADD11O,0.800000X1.400000*%
G04 #@! TD*
G04 #@! TA.AperFunction,ComponentPad*
%ADD12C,0.750000*%
G04 #@! TD*
G04 #@! TA.AperFunction,ComponentPad*
%ADD13O,2.100000X0.900000*%
G04 #@! TD*
G04 #@! TA.AperFunction,ViaPad*
%ADD14C,0.450000*%
G04 #@! TD*
G04 #@! TA.AperFunction,Conductor*
%ADD15C,0.200000*%
G04 #@! TD*
G04 #@! TA.AperFunction,Conductor*
%ADD16C,0.150000*%
G04 #@! TD*
G04 APERTURE END LIST*
D10*
X144786000Y-64489000D03*
X144386000Y-65189000D03*
X143586000Y-65189000D03*
X143186000Y-64489000D03*
X142786000Y-65189000D03*
X142386000Y-64489000D03*
X141586000Y-64489000D03*
X141186000Y-65189000D03*
X140786000Y-64489000D03*
X140386000Y-65189000D03*
X139586000Y-65189000D03*
X139186000Y-64489000D03*
D11*
X146116000Y-65089000D03*
X137856000Y-65089000D03*
X146476000Y-69469000D03*
X137496000Y-69469000D03*
D12*
X164235500Y-69422500D03*
X163515500Y-68922500D03*
X164235500Y-68422500D03*
X163515500Y-67922500D03*
X164235500Y-67422500D03*
X163515500Y-66922500D03*
X164235500Y-66422500D03*
X163515500Y-65922500D03*
X164235500Y-65422500D03*
X163515500Y-64922500D03*
X164235500Y-64422500D03*
X163515500Y-63922500D03*
D13*
X162885500Y-71022500D03*
X162885500Y-62322500D03*
D14*
X151894143Y-76426762D03*
X134894143Y-63426762D03*
X132894143Y-65426762D03*
X137922000Y-61849000D03*
X132894143Y-62426762D03*
X149606000Y-72644000D03*
X148844000Y-72644000D03*
X134894143Y-73426762D03*
X135894143Y-73426762D03*
X134894143Y-64426762D03*
X132894143Y-63426762D03*
X155894143Y-76426762D03*
X153894143Y-76426762D03*
X132894143Y-73426762D03*
X147701000Y-69723000D03*
X138811000Y-60960000D03*
X159894143Y-76426762D03*
X137541000Y-62865000D03*
X147066000Y-72644000D03*
X133894143Y-63426762D03*
X161544000Y-72263000D03*
X160894143Y-76426762D03*
X158894143Y-76426762D03*
X147955000Y-72644000D03*
X157894143Y-76426762D03*
X133894143Y-62426762D03*
X133894143Y-73426762D03*
X145542000Y-69723000D03*
X132894143Y-64426762D03*
X152894143Y-76426762D03*
X133894143Y-64426762D03*
X150368000Y-72644000D03*
X136894143Y-58426762D03*
X156894143Y-76426762D03*
X133894143Y-65426762D03*
X134894143Y-65426762D03*
X134894143Y-62426762D03*
X154894143Y-76426762D03*
X161163000Y-71374000D03*
X140716000Y-63754000D03*
X160020000Y-66167000D03*
X161671000Y-67818000D03*
X143256000Y-63754000D03*
X141224000Y-62484000D03*
X160972500Y-66357500D03*
X142311000Y-69723000D03*
X141661000Y-69723000D03*
X142240000Y-62484000D03*
X161163000Y-66955481D03*
X158877000Y-67183000D03*
X147828000Y-61722000D03*
X148590000Y-62484000D03*
X143002000Y-62484000D03*
X161607500Y-65976500D03*
X149860000Y-62611000D03*
X160068500Y-62551000D03*
X158369000Y-69977000D03*
X157988000Y-67310000D03*
D15*
X142386000Y-64489000D02*
X142186000Y-64689000D01*
X142186000Y-64689000D02*
X142186000Y-69598000D01*
X142186000Y-69598000D02*
X142311000Y-69723000D01*
X141586000Y-63138000D02*
X141586000Y-64489000D01*
X141586000Y-64489000D02*
X141786000Y-64689000D01*
X141786000Y-69598000D02*
X141661000Y-69723000D01*
X141786000Y-64689000D02*
X141786000Y-69598000D01*
X142240000Y-62484000D02*
X141586000Y-63138000D01*
X163515500Y-68922500D02*
X163515500Y-69720680D01*
X162322000Y-73333000D02*
X162272000Y-73333000D01*
X164211000Y-72996156D02*
X163874156Y-73333000D01*
X163072000Y-72841761D02*
X163072000Y-73183000D01*
X146894844Y-66983000D02*
X145945686Y-66983000D01*
X153244844Y-73333000D02*
X146894844Y-66983000D01*
X162272000Y-73333000D02*
X153244844Y-73333000D01*
X162472000Y-72841761D02*
X162472000Y-73183000D01*
X145945686Y-66983000D02*
X144386000Y-65423314D01*
X163515500Y-69720680D02*
X164211000Y-70416180D01*
X144386000Y-65423314D02*
X144386000Y-65189000D01*
X163372000Y-73183000D02*
X163372000Y-72841761D01*
X164211000Y-70416180D02*
X164211000Y-72996156D01*
X163874156Y-73333000D02*
X163522000Y-73333000D01*
X162772000Y-73183000D02*
X162772000Y-72841761D01*
X163372000Y-73183000D02*
G75*
G03*
X163522000Y-73333000I150000J0D01*
G01*
X162922000Y-73333000D02*
G75*
G03*
X163072000Y-73183000I0J150000D01*
G01*
X162622000Y-72691800D02*
G75*
G02*
X162772000Y-72841761I0J-150000D01*
G01*
X162772000Y-73183000D02*
G75*
G03*
X162922000Y-73333000I150000J0D01*
G01*
X162322000Y-73333000D02*
G75*
G03*
X162472000Y-73183000I0J150000D01*
G01*
X163222000Y-72691800D02*
G75*
G02*
X163372000Y-72841761I0J-150000D01*
G01*
X163071961Y-72841761D02*
G75*
G02*
X163222000Y-72691761I150039J-39D01*
G01*
X162471961Y-72841761D02*
G75*
G02*
X162622000Y-72691761I150039J-39D01*
G01*
X145780000Y-67383000D02*
X146729156Y-67383000D01*
X143586000Y-65189000D02*
X145780000Y-67383000D01*
D16*
X164814501Y-69662331D02*
X164814501Y-69001501D01*
X164592000Y-69884832D02*
X164814501Y-69662331D01*
D15*
X164039844Y-73733000D02*
X164592000Y-73180844D01*
D16*
X164814501Y-69001501D02*
X164235500Y-68422500D01*
D15*
X146729156Y-67383000D02*
X153079156Y-73733000D01*
X153079156Y-73733000D02*
X164039844Y-73733000D01*
X164592000Y-73180844D02*
X164592000Y-69884832D01*
X164265000Y-62811000D02*
X163957000Y-63119000D01*
X163493156Y-59255000D02*
X164265000Y-60026844D01*
X162814000Y-64221000D02*
X163515500Y-64922500D01*
X140208000Y-60226844D02*
X141179844Y-59255000D01*
X163322000Y-63119000D02*
X162814000Y-63627000D01*
X163957000Y-63119000D02*
X163322000Y-63119000D01*
X162814000Y-63627000D02*
X162814000Y-64221000D01*
X141179844Y-59255000D02*
X163493156Y-59255000D01*
X140386000Y-65189000D02*
X140208000Y-65011000D01*
X164265000Y-60026844D02*
X164265000Y-62811000D01*
X140208000Y-65011000D02*
X140208000Y-60226844D01*
X164665000Y-63725092D02*
X164665000Y-63773000D01*
X141014156Y-58855000D02*
X163658844Y-58855000D01*
X164412907Y-63425092D02*
X164412907Y-63473000D01*
X164665000Y-63773000D02*
X164665000Y-63993000D01*
X139740001Y-65034999D02*
X139740001Y-60129155D01*
X139586000Y-65189000D02*
X139740001Y-65034999D01*
X164665000Y-63993000D02*
X164235500Y-64422500D01*
X164538954Y-63299046D02*
X164538953Y-63299046D01*
X163658844Y-58855000D02*
X164665000Y-59861156D01*
X164538953Y-63599046D02*
X164538954Y-63599046D01*
X139740001Y-60129155D02*
X141014156Y-58855000D01*
X164665000Y-59861156D02*
X164665000Y-63173000D01*
X164665054Y-63725092D02*
G75*
G03*
X164538954Y-63599046I-126054J-8D01*
G01*
X164538953Y-63599093D02*
G75*
G02*
X164412907Y-63473000I47J126093D01*
G01*
X164538954Y-63299000D02*
G75*
G03*
X164665000Y-63173000I46J126000D01*
G01*
X164412946Y-63425092D02*
G75*
G02*
X164538953Y-63299046I126054J-8D01*
G01*
G04 #@! TA.AperFunction,Conductor*
G36*
X143298429Y-66074051D02*
G01*
X143301636Y-66074733D01*
X143301637Y-66074733D01*
X143485516Y-66113818D01*
X143485519Y-66113818D01*
X143488726Y-66114500D01*
X143494956Y-66114500D01*
X143539150Y-66132806D01*
X143976464Y-66570121D01*
X143994769Y-66614313D01*
X143976463Y-66658507D01*
X143959176Y-66670725D01*
X143846871Y-66724292D01*
X143665595Y-66854552D01*
X143663666Y-66856542D01*
X143663662Y-66856546D01*
X143514544Y-67010424D01*
X143510251Y-67014854D01*
X143385750Y-67200132D01*
X143296026Y-67404529D01*
X143243915Y-67621585D01*
X143243755Y-67624365D01*
X143243754Y-67624370D01*
X143233750Y-67797889D01*
X143231066Y-67844438D01*
X143231401Y-67847203D01*
X143257547Y-68063272D01*
X143257548Y-68063278D01*
X143257883Y-68066044D01*
X143323519Y-68279400D01*
X143326956Y-68286059D01*
X143424624Y-68475286D01*
X143424627Y-68475291D01*
X143425901Y-68477759D01*
X143427592Y-68479962D01*
X143427594Y-68479966D01*
X143517506Y-68597142D01*
X143561790Y-68654854D01*
X143726893Y-68805086D01*
X143915990Y-68923707D01*
X143918562Y-68924741D01*
X143918564Y-68924742D01*
X144120522Y-69005928D01*
X144120525Y-69005929D01*
X144123105Y-69006966D01*
X144235051Y-69030149D01*
X144339442Y-69051768D01*
X144339449Y-69051769D01*
X144341690Y-69052233D01*
X144398349Y-69055500D01*
X144542630Y-69055500D01*
X144543993Y-69055378D01*
X144544001Y-69055378D01*
X144705571Y-69040958D01*
X144708339Y-69040711D01*
X144790813Y-69018149D01*
X144920966Y-68982543D01*
X144920971Y-68982541D01*
X144923651Y-68981808D01*
X145125129Y-68885708D01*
X145306405Y-68755448D01*
X145308334Y-68753458D01*
X145308338Y-68753454D01*
X145459815Y-68597142D01*
X145459816Y-68597140D01*
X145461749Y-68595146D01*
X145586250Y-68409868D01*
X145643079Y-68280409D01*
X145674854Y-68208023D01*
X145674855Y-68208021D01*
X145675974Y-68205471D01*
X145693081Y-68134218D01*
X145721198Y-68095519D01*
X145750255Y-68086413D01*
X145798977Y-68083604D01*
X145802574Y-68083500D01*
X146413112Y-68083500D01*
X146457306Y-68101806D01*
X152565102Y-74209603D01*
X152568006Y-74212711D01*
X152604509Y-74254556D01*
X152604511Y-74254558D01*
X152606987Y-74257396D01*
X152656578Y-74292249D01*
X152659996Y-74294651D01*
X152662623Y-74296602D01*
X152713613Y-74336583D01*
X152725141Y-74341788D01*
X152735350Y-74347612D01*
X152742622Y-74352722D01*
X152745703Y-74354887D01*
X152793784Y-74373633D01*
X152806069Y-74378423D01*
X152809086Y-74379691D01*
X152868140Y-74406355D01*
X152880572Y-74408659D01*
X152891883Y-74411881D01*
X152900157Y-74415107D01*
X152900159Y-74415107D01*
X152903669Y-74416476D01*
X152967921Y-74424934D01*
X152971138Y-74425444D01*
X153034848Y-74437252D01*
X153038614Y-74437035D01*
X153038616Y-74437035D01*
X153098121Y-74433604D01*
X153101718Y-74433500D01*
X162085227Y-74433500D01*
X162129421Y-74451806D01*
X162147727Y-74496000D01*
X162137375Y-74530450D01*
X162085778Y-74608553D01*
X162054685Y-74676000D01*
X151892000Y-74676000D01*
X146890685Y-70100329D01*
X146959718Y-69988991D01*
X146963155Y-69981270D01*
X147001333Y-69849858D01*
X147002488Y-69843442D01*
X147002916Y-69837616D01*
X147003000Y-69835323D01*
X147003000Y-69735431D01*
X146999359Y-69726641D01*
X146990569Y-69723000D01*
X146478256Y-69723000D01*
X146222000Y-69488553D01*
X146222000Y-69202569D01*
X146730000Y-69202569D01*
X146733641Y-69211359D01*
X146742431Y-69215000D01*
X146990569Y-69215000D01*
X146999359Y-69211359D01*
X147003000Y-69202569D01*
X147003000Y-69134949D01*
X147002712Y-69130728D01*
X146988937Y-69030168D01*
X146986667Y-69022038D01*
X146932708Y-68897344D01*
X146928332Y-68890120D01*
X146842827Y-68784529D01*
X146836680Y-68778756D01*
X146740134Y-68710145D01*
X146731443Y-68708154D01*
X146730000Y-68712675D01*
X146730000Y-69202569D01*
X146222000Y-69202569D01*
X146222000Y-68719347D01*
X146218359Y-68710557D01*
X146216844Y-68709929D01*
X146215411Y-68710274D01*
X146176201Y-68730252D01*
X146169270Y-68735070D01*
X146069258Y-68827035D01*
X146063876Y-68833541D01*
X145992282Y-68949009D01*
X145988845Y-68956730D01*
X145950667Y-69088142D01*
X145949512Y-69094558D01*
X145949084Y-69100384D01*
X145949000Y-69102678D01*
X145949000Y-69238787D01*
X145923000Y-69215000D01*
X143002000Y-69215000D01*
X143002000Y-66089264D01*
X143070367Y-66074732D01*
X143073571Y-66074051D01*
X143160579Y-66035313D01*
X143211421Y-66035313D01*
X143298429Y-66074051D01*
G37*
G04 #@! TD.AperFunction*
G04 #@! TA.AperFunction,Conductor*
G36*
X146370000Y-65360000D02*
G01*
X146370000Y-65838653D01*
X146373641Y-65847443D01*
X146375156Y-65848071D01*
X146376589Y-65847726D01*
X146415799Y-65827748D01*
X146422730Y-65822930D01*
X146522742Y-65730965D01*
X146528124Y-65724459D01*
X146599718Y-65608991D01*
X146603155Y-65601270D01*
X146641333Y-65469858D01*
X146642488Y-65463442D01*
X146642916Y-65457616D01*
X146643000Y-65455323D01*
X146643000Y-65399000D01*
X146685000Y-65405000D01*
X156718000Y-71120000D01*
X162560000Y-71120000D01*
X162560000Y-70768500D01*
X162619069Y-70768500D01*
X162627859Y-70764859D01*
X162631500Y-70756069D01*
X162631500Y-70457931D01*
X162627859Y-70449141D01*
X162619069Y-70445500D01*
X162560000Y-70445500D01*
X162560000Y-69129496D01*
X162604114Y-69283343D01*
X162605510Y-69286059D01*
X162690160Y-69450770D01*
X162690163Y-69450774D01*
X162691560Y-69453493D01*
X162764359Y-69545342D01*
X162801481Y-69592179D01*
X162815000Y-69631001D01*
X162815000Y-69694202D01*
X162814855Y-69698453D01*
X162813182Y-69723000D01*
X162810822Y-69757610D01*
X162811470Y-69761321D01*
X162821962Y-69821436D01*
X162822440Y-69824674D01*
X162830224Y-69889000D01*
X162831556Y-69892526D01*
X162831557Y-69892529D01*
X162834696Y-69900837D01*
X162837799Y-69912178D01*
X162839973Y-69924634D01*
X162841487Y-69928083D01*
X162866015Y-69983960D01*
X162867250Y-69986985D01*
X162890155Y-70047603D01*
X162892287Y-70050705D01*
X162892290Y-70050711D01*
X162897318Y-70058026D01*
X162903036Y-70068299D01*
X162908121Y-70079882D01*
X162910417Y-70082874D01*
X162947557Y-70131275D01*
X162949481Y-70133923D01*
X162986188Y-70187331D01*
X162989000Y-70189836D01*
X163033524Y-70229506D01*
X163036141Y-70231977D01*
X163154898Y-70350734D01*
X163173204Y-70394928D01*
X163154898Y-70439122D01*
X163144380Y-70446151D01*
X163139500Y-70457931D01*
X163139500Y-71587069D01*
X163143141Y-71595859D01*
X163151931Y-71599500D01*
X163448000Y-71599500D01*
X163492194Y-71617806D01*
X163510500Y-71662000D01*
X163510500Y-71956275D01*
X163492194Y-72000469D01*
X163448000Y-72018775D01*
X163429860Y-72016084D01*
X163391646Y-72004493D01*
X163391632Y-72004490D01*
X163388700Y-72003601D01*
X163385645Y-72003300D01*
X163385644Y-72003300D01*
X163369725Y-72001732D01*
X163292165Y-71994095D01*
X163289496Y-71993773D01*
X163238811Y-71986559D01*
X163238791Y-71986557D01*
X163236778Y-71986271D01*
X163229315Y-71986193D01*
X163224038Y-71986137D01*
X163224032Y-71986137D01*
X163222000Y-71986116D01*
X163176960Y-71991566D01*
X163175637Y-71991712D01*
X163055293Y-72003563D01*
X162940071Y-72038508D01*
X162903795Y-72038508D01*
X162788700Y-72003601D01*
X162785645Y-72003300D01*
X162785644Y-72003300D01*
X162769725Y-72001732D01*
X162692165Y-71994095D01*
X162689496Y-71993773D01*
X162638811Y-71986559D01*
X162638791Y-71986557D01*
X162636778Y-71986271D01*
X162629315Y-71986193D01*
X162624038Y-71986137D01*
X162624032Y-71986137D01*
X162622000Y-71986116D01*
X162576960Y-71991566D01*
X162575637Y-71991712D01*
X162455293Y-72003563D01*
X162414009Y-72016084D01*
X162297926Y-72051290D01*
X162297924Y-72051291D01*
X162294989Y-72052181D01*
X162147249Y-72131135D01*
X162144874Y-72133084D01*
X162020117Y-72235445D01*
X162020115Y-72235447D01*
X162017747Y-72237390D01*
X161911458Y-72366864D01*
X161832466Y-72514584D01*
X161831575Y-72517520D01*
X161810132Y-72588155D01*
X161779778Y-72625126D01*
X161750327Y-72632500D01*
X153560888Y-72632500D01*
X153516694Y-72614194D01*
X152185216Y-71282716D01*
X161768745Y-71282716D01*
X161779924Y-71309705D01*
X161783986Y-71316740D01*
X161871486Y-71430772D01*
X161877228Y-71436514D01*
X161991257Y-71524012D01*
X161998300Y-71528079D01*
X162131087Y-71583081D01*
X162138935Y-71585184D01*
X162245648Y-71599233D01*
X162249727Y-71599500D01*
X162619069Y-71599500D01*
X162627859Y-71595859D01*
X162631500Y-71587069D01*
X162631500Y-71288931D01*
X162627859Y-71280141D01*
X162619069Y-71276500D01*
X161778601Y-71276500D01*
X161769811Y-71280141D01*
X161768745Y-71282716D01*
X152185216Y-71282716D01*
X147408898Y-66506397D01*
X147405994Y-66503289D01*
X147369489Y-66461442D01*
X147369488Y-66461441D01*
X147367013Y-66458604D01*
X147317653Y-66423913D01*
X147314010Y-66421353D01*
X147311383Y-66419402D01*
X147263353Y-66381741D01*
X147263349Y-66381739D01*
X147260387Y-66379416D01*
X147256952Y-66377865D01*
X147256950Y-66377864D01*
X147248862Y-66374212D01*
X147238645Y-66368385D01*
X147231383Y-66363281D01*
X147231377Y-66363278D01*
X147228297Y-66361113D01*
X147224789Y-66359745D01*
X147224781Y-66359741D01*
X147167922Y-66337572D01*
X147164907Y-66336305D01*
X147109297Y-66311197D01*
X147109298Y-66311197D01*
X147105860Y-66309645D01*
X147102155Y-66308958D01*
X147102151Y-66308957D01*
X147094890Y-66307612D01*
X147093428Y-66307341D01*
X147082117Y-66304119D01*
X147073843Y-66300893D01*
X147073841Y-66300893D01*
X147070331Y-66299524D01*
X147006079Y-66291066D01*
X147002862Y-66290556D01*
X146939152Y-66278748D01*
X146935386Y-66278965D01*
X146935384Y-66278965D01*
X146875879Y-66282396D01*
X146872282Y-66282500D01*
X146261730Y-66282500D01*
X146217536Y-66264194D01*
X145873602Y-65920259D01*
X145855296Y-65876065D01*
X145858254Y-65857064D01*
X145862000Y-65845325D01*
X145862000Y-65287429D01*
X146370000Y-65360000D01*
G37*
G04 #@! TD.AperFunction*
G04 #@! TA.AperFunction,Conductor*
G36*
X162245648Y-62899233D02*
G01*
X162249727Y-62899500D01*
X162399955Y-62899500D01*
X162444149Y-62917806D01*
X162462455Y-62962000D01*
X162444149Y-63006194D01*
X162337397Y-63112946D01*
X162334289Y-63115850D01*
X162289604Y-63154831D01*
X162287438Y-63157913D01*
X162287437Y-63157914D01*
X162252353Y-63207834D01*
X162250402Y-63210461D01*
X162212741Y-63258491D01*
X162212739Y-63258495D01*
X162210416Y-63261457D01*
X162208865Y-63264892D01*
X162208864Y-63264894D01*
X162205212Y-63272982D01*
X162199385Y-63283199D01*
X162194281Y-63290461D01*
X162194278Y-63290467D01*
X162192113Y-63293547D01*
X162179000Y-63327179D01*
X162179000Y-62890458D01*
X162245648Y-62899233D01*
G37*
G04 #@! TD.AperFunction*
G04 #@! TA.AperFunction,Conductor*
G36*
X163221306Y-59973806D02*
G01*
X163546194Y-60298694D01*
X163564500Y-60342888D01*
X163564500Y-61683000D01*
X163546194Y-61727194D01*
X163502000Y-61745500D01*
X163151931Y-61745500D01*
X163143141Y-61749141D01*
X163139500Y-61757931D01*
X163139500Y-62393234D01*
X163121194Y-62437428D01*
X163102122Y-62450463D01*
X163058716Y-62469517D01*
X163055689Y-62470752D01*
X162995077Y-62493655D01*
X162991975Y-62495787D01*
X162984652Y-62500820D01*
X162974371Y-62506541D01*
X162962797Y-62511622D01*
X162959809Y-62513915D01*
X162959807Y-62513916D01*
X162911389Y-62551068D01*
X162908747Y-62552988D01*
X162901173Y-62558194D01*
X162890531Y-62565508D01*
X162855130Y-62576500D01*
X162694000Y-62576500D01*
X162649806Y-62558194D01*
X162631500Y-62514000D01*
X162631500Y-61757931D01*
X162627859Y-61749141D01*
X162619069Y-61745500D01*
X162249727Y-61745500D01*
X162245648Y-61745767D01*
X162179000Y-61754542D01*
X162179000Y-61214000D01*
X148481414Y-61214000D01*
X148383410Y-61105155D01*
X148243024Y-61003158D01*
X148084499Y-60932578D01*
X148071119Y-60929734D01*
X147917965Y-60897180D01*
X147917961Y-60897180D01*
X147914764Y-60896500D01*
X147741236Y-60896500D01*
X147738039Y-60897180D01*
X147738035Y-60897180D01*
X147584881Y-60929734D01*
X147571501Y-60932578D01*
X147412977Y-61003158D01*
X147272590Y-61105155D01*
X147174586Y-61214000D01*
X140970000Y-61214000D01*
X140970000Y-61688478D01*
X140936960Y-61682355D01*
X140909866Y-61642932D01*
X140908500Y-61629938D01*
X140908500Y-60542888D01*
X140926806Y-60498694D01*
X141451695Y-59973806D01*
X141495889Y-59955500D01*
X163177112Y-59955500D01*
X163221306Y-59973806D01*
G37*
G04 #@! TD.AperFunction*
G04 #@! TA.AperFunction,Conductor*
G36*
X139065000Y-59817000D02*
G01*
X139065000Y-64053447D01*
X139028274Y-64063943D01*
X138980751Y-64058486D01*
X138951005Y-64021024D01*
X138950751Y-63990302D01*
X138950584Y-63990280D01*
X138950741Y-63989089D01*
X138950741Y-63989088D01*
X138970500Y-63839000D01*
X138952399Y-63701508D01*
X138951119Y-63691782D01*
X138951119Y-63691780D01*
X138950584Y-63687720D01*
X138936840Y-63654538D01*
X138893759Y-63550533D01*
X138892192Y-63546750D01*
X138799304Y-63425696D01*
X138678250Y-63332808D01*
X138615015Y-63306615D01*
X138541066Y-63275984D01*
X138541064Y-63275984D01*
X138537280Y-63274416D01*
X138533218Y-63273881D01*
X138533217Y-63273881D01*
X138426011Y-63259767D01*
X138426005Y-63259767D01*
X138423980Y-63259500D01*
X138348020Y-63259500D01*
X138345995Y-63259767D01*
X138345989Y-63259767D01*
X138238783Y-63273881D01*
X138238782Y-63273881D01*
X138234720Y-63274416D01*
X138230936Y-63275984D01*
X138230934Y-63275984D01*
X138156985Y-63306615D01*
X138093750Y-63332808D01*
X137972696Y-63425696D01*
X137879808Y-63546750D01*
X137878241Y-63550533D01*
X137835161Y-63654538D01*
X137821416Y-63687720D01*
X137820881Y-63691780D01*
X137820881Y-63691782D01*
X137819601Y-63701508D01*
X137801500Y-63839000D01*
X137802035Y-63843064D01*
X137820746Y-63985188D01*
X137821416Y-63990280D01*
X137822984Y-63994064D01*
X137822984Y-63994066D01*
X137871841Y-64112015D01*
X137879808Y-64131250D01*
X137972696Y-64252304D01*
X137975941Y-64254794D01*
X137975944Y-64254797D01*
X138085547Y-64338898D01*
X138109465Y-64380325D01*
X138110000Y-64388483D01*
X138110000Y-64822569D01*
X138113641Y-64831359D01*
X138122431Y-64835000D01*
X138370569Y-64835000D01*
X138379359Y-64831359D01*
X138383000Y-64822569D01*
X138383000Y-64754949D01*
X138382712Y-64750728D01*
X138368937Y-64650168D01*
X138366667Y-64642038D01*
X138312706Y-64517341D01*
X138310307Y-64513380D01*
X138303068Y-64466095D01*
X138331385Y-64427542D01*
X138363765Y-64418500D01*
X138423980Y-64418500D01*
X138426005Y-64418233D01*
X138426011Y-64418233D01*
X138533217Y-64404119D01*
X138533218Y-64404119D01*
X138537280Y-64403584D01*
X138541064Y-64402016D01*
X138541066Y-64402016D01*
X138653126Y-64355599D01*
X138700962Y-64355599D01*
X138734786Y-64389423D01*
X138738800Y-64422956D01*
X138730071Y-64479023D01*
X138729963Y-64487836D01*
X138739683Y-64562166D01*
X138743908Y-64569499D01*
X138748603Y-64567186D01*
X139065000Y-64250790D01*
X139065000Y-65151000D01*
X139128232Y-65151000D01*
X139127783Y-65152938D01*
X139129037Y-65170649D01*
X139129393Y-65175671D01*
X139129502Y-65179426D01*
X139128881Y-65183415D01*
X139130953Y-65199259D01*
X139131322Y-65202930D01*
X139132889Y-65225062D01*
X139137435Y-65289266D01*
X139145422Y-65309911D01*
X139145687Y-65311938D01*
X139149427Y-65320437D01*
X139150494Y-65323022D01*
X139186747Y-65416730D01*
X139271359Y-65524059D01*
X139275199Y-65526713D01*
X139275200Y-65526714D01*
X139332022Y-65565986D01*
X139383789Y-65601764D01*
X139388246Y-65603174D01*
X139388247Y-65603174D01*
X139469934Y-65629008D01*
X139514097Y-65642975D01*
X139517650Y-65643255D01*
X139517652Y-65643255D01*
X139519529Y-65643403D01*
X139519542Y-65643404D01*
X139520768Y-65643500D01*
X139620149Y-65643500D01*
X139622458Y-65643153D01*
X139624782Y-65642979D01*
X139624784Y-65643002D01*
X139632879Y-65642471D01*
X139642505Y-65642648D01*
X139659505Y-65638013D01*
X139666627Y-65636512D01*
X139721151Y-65628315D01*
X139750274Y-65614330D01*
X139760889Y-65610372D01*
X139760905Y-65610368D01*
X139767557Y-65608554D01*
X139783676Y-65598658D01*
X139789310Y-65595586D01*
X139840145Y-65571175D01*
X139840147Y-65571174D01*
X139844353Y-65569154D01*
X139864835Y-65550221D01*
X139873565Y-65543607D01*
X139874220Y-65543064D01*
X139878015Y-65540733D01*
X139881003Y-65537432D01*
X139891094Y-65526284D01*
X139895005Y-65522332D01*
X139944712Y-65476383D01*
X139946052Y-65477833D01*
X139981912Y-65458122D01*
X140027847Y-65471471D01*
X140037848Y-65481551D01*
X140071359Y-65524059D01*
X140075199Y-65526713D01*
X140075200Y-65526714D01*
X140132022Y-65565986D01*
X140183789Y-65601764D01*
X140188246Y-65603174D01*
X140188247Y-65603174D01*
X140269934Y-65629008D01*
X140314097Y-65642975D01*
X140317650Y-65643255D01*
X140317652Y-65643255D01*
X140319529Y-65643403D01*
X140319542Y-65643404D01*
X140320768Y-65643500D01*
X140420149Y-65643500D01*
X140422458Y-65643153D01*
X140424782Y-65642979D01*
X140424784Y-65643002D01*
X140432879Y-65642471D01*
X140442505Y-65642648D01*
X140459505Y-65638013D01*
X140466627Y-65636512D01*
X140521151Y-65628315D01*
X140550274Y-65614330D01*
X140560889Y-65610372D01*
X140560905Y-65610368D01*
X140567557Y-65608554D01*
X140583676Y-65598658D01*
X140589310Y-65595586D01*
X140640145Y-65571175D01*
X140640147Y-65571174D01*
X140644353Y-65569154D01*
X140664835Y-65550221D01*
X140673565Y-65543607D01*
X140674220Y-65543064D01*
X140678015Y-65540733D01*
X140681003Y-65537432D01*
X140691094Y-65526284D01*
X140695005Y-65522332D01*
X140744712Y-65476383D01*
X140746052Y-65477833D01*
X140781912Y-65458122D01*
X140827847Y-65471471D01*
X140837848Y-65481551D01*
X140871359Y-65524059D01*
X140875199Y-65526713D01*
X140875200Y-65526714D01*
X140932022Y-65565986D01*
X140970000Y-65592234D01*
X140970000Y-66167000D01*
X140843000Y-66167000D01*
X140843000Y-68834000D01*
X140335000Y-68834000D01*
X140335000Y-70739000D01*
X143764000Y-70739000D01*
X143764000Y-69803051D01*
X145949000Y-69803051D01*
X145949288Y-69807272D01*
X145963063Y-69907832D01*
X145965333Y-69915962D01*
X146019292Y-70040656D01*
X146023668Y-70047880D01*
X146109173Y-70153471D01*
X146115320Y-70159244D01*
X146211866Y-70227855D01*
X146220557Y-70229846D01*
X146222000Y-70225325D01*
X146222000Y-69735431D01*
X146218359Y-69726641D01*
X146209569Y-69723000D01*
X145961431Y-69723000D01*
X145952641Y-69726641D01*
X145949000Y-69735431D01*
X145949000Y-69803051D01*
X143764000Y-69803051D01*
X143764000Y-69215000D01*
X145923000Y-69215000D01*
X146730000Y-69953319D01*
X146730000Y-70218653D01*
X146733641Y-70227443D01*
X146735156Y-70228071D01*
X146736589Y-70227726D01*
X146775799Y-70207748D01*
X146782730Y-70202930D01*
X146882742Y-70110965D01*
X146888124Y-70104459D01*
X146890685Y-70100329D01*
X151892000Y-74676000D01*
X162454629Y-74676000D01*
X162420658Y-74721658D01*
X162419465Y-74724004D01*
X162419464Y-74724006D01*
X162321591Y-74916510D01*
X162316480Y-74926562D01*
X162248315Y-75146089D01*
X162218112Y-75373964D01*
X162226736Y-75603669D01*
X162273939Y-75828637D01*
X162358372Y-76042436D01*
X162477621Y-76238952D01*
X162479355Y-76240950D01*
X162479357Y-76240953D01*
X162565819Y-76340591D01*
X162628276Y-76412566D01*
X162806029Y-76558315D01*
X162808330Y-76559625D01*
X162808339Y-76559631D01*
X162957756Y-76644684D01*
X162987107Y-76682455D01*
X162981153Y-76729919D01*
X162943382Y-76759270D01*
X162926837Y-76761500D01*
X151413873Y-76761500D01*
X151399867Y-76759910D01*
X151391221Y-76757922D01*
X151384359Y-76756344D01*
X151377492Y-76757898D01*
X151370455Y-76757886D01*
X151370456Y-76757157D01*
X151358949Y-76757533D01*
X151298749Y-76747998D01*
X151280159Y-76741957D01*
X151212076Y-76707267D01*
X151196256Y-76695773D01*
X151142227Y-76641744D01*
X151130733Y-76625924D01*
X151096045Y-76557844D01*
X151090003Y-76539247D01*
X151080566Y-76479666D01*
X151081198Y-76461774D01*
X151080451Y-76461688D01*
X151080857Y-76458160D01*
X151081655Y-76454718D01*
X151081656Y-76454000D01*
X151078065Y-76438257D01*
X151076500Y-76424358D01*
X151076500Y-74960107D01*
X151078114Y-74945994D01*
X151080856Y-74934163D01*
X151081655Y-74930718D01*
X151081656Y-74930000D01*
X151079491Y-74920510D01*
X151078228Y-74912740D01*
X151066550Y-74794162D01*
X151066549Y-74794158D01*
X151066249Y-74791110D01*
X151044540Y-74719545D01*
X151026626Y-74660489D01*
X151026624Y-74660484D01*
X151025736Y-74657557D01*
X150959946Y-74534474D01*
X150871409Y-74426591D01*
X150763526Y-74338054D01*
X150640443Y-74272264D01*
X150637516Y-74271376D01*
X150637511Y-74271374D01*
X150551291Y-74245220D01*
X150506890Y-74231751D01*
X150503842Y-74231451D01*
X150503838Y-74231450D01*
X150386236Y-74219868D01*
X150378258Y-74218556D01*
X150368718Y-74216345D01*
X150368000Y-74216344D01*
X150352258Y-74219935D01*
X150338358Y-74221500D01*
X132871873Y-74221500D01*
X132857867Y-74219910D01*
X132849221Y-74217922D01*
X132842359Y-74216344D01*
X132835492Y-74217898D01*
X132828455Y-74217886D01*
X132828456Y-74217157D01*
X132816949Y-74217533D01*
X132756749Y-74207998D01*
X132738159Y-74201957D01*
X132670076Y-74167267D01*
X132654256Y-74155773D01*
X132600227Y-74101744D01*
X132588733Y-74085924D01*
X132554045Y-74017844D01*
X132548003Y-73999247D01*
X132538566Y-73939666D01*
X132539198Y-73921774D01*
X132538451Y-73921688D01*
X132538857Y-73918160D01*
X132539655Y-73914718D01*
X132539656Y-73914000D01*
X132536065Y-73898257D01*
X132534500Y-73884358D01*
X132534500Y-69803051D01*
X136969000Y-69803051D01*
X136969288Y-69807272D01*
X136983063Y-69907832D01*
X136985333Y-69915962D01*
X137039292Y-70040656D01*
X137043668Y-70047880D01*
X137129173Y-70153471D01*
X137135320Y-70159244D01*
X137231866Y-70227855D01*
X137240557Y-70229846D01*
X137242000Y-70225325D01*
X137242000Y-70218653D01*
X137750000Y-70218653D01*
X137753641Y-70227443D01*
X137755156Y-70228071D01*
X137756589Y-70227726D01*
X137795799Y-70207748D01*
X137802730Y-70202930D01*
X137902742Y-70110965D01*
X137908124Y-70104459D01*
X137979718Y-69988991D01*
X137983155Y-69981270D01*
X138021333Y-69849858D01*
X138022488Y-69843442D01*
X138022916Y-69837616D01*
X138023000Y-69835323D01*
X138023000Y-69735431D01*
X138019359Y-69726641D01*
X138010569Y-69723000D01*
X137762431Y-69723000D01*
X137753641Y-69726641D01*
X137750000Y-69735431D01*
X137750000Y-70218653D01*
X137242000Y-70218653D01*
X137242000Y-69735431D01*
X137238359Y-69726641D01*
X137229569Y-69723000D01*
X136981431Y-69723000D01*
X136972641Y-69726641D01*
X136969000Y-69735431D01*
X136969000Y-69803051D01*
X132534500Y-69803051D01*
X132534500Y-69202569D01*
X136969000Y-69202569D01*
X136972641Y-69211359D01*
X136981431Y-69215000D01*
X137229569Y-69215000D01*
X137238359Y-69211359D01*
X137242000Y-69202569D01*
X137750000Y-69202569D01*
X137753641Y-69211359D01*
X137762431Y-69215000D01*
X138010569Y-69215000D01*
X138019359Y-69211359D01*
X138023000Y-69202569D01*
X138023000Y-69134949D01*
X138022712Y-69130728D01*
X138008937Y-69030168D01*
X138006667Y-69022038D01*
X137952708Y-68897344D01*
X137948332Y-68890120D01*
X137862827Y-68784529D01*
X137856680Y-68778756D01*
X137760134Y-68710145D01*
X137751443Y-68708154D01*
X137750000Y-68712675D01*
X137750000Y-69202569D01*
X137242000Y-69202569D01*
X137242000Y-68719347D01*
X137238359Y-68710557D01*
X137236844Y-68709929D01*
X137235411Y-68710274D01*
X137196201Y-68730252D01*
X137189270Y-68735070D01*
X137089258Y-68827035D01*
X137083876Y-68833541D01*
X137012282Y-68949009D01*
X137008845Y-68956730D01*
X136970667Y-69088142D01*
X136969512Y-69094558D01*
X136969084Y-69100384D01*
X136969000Y-69102678D01*
X136969000Y-69202569D01*
X132534500Y-69202569D01*
X132534500Y-67900067D01*
X138581500Y-67900067D01*
X138582182Y-67903274D01*
X138582182Y-67903277D01*
X138614348Y-68054606D01*
X138621031Y-68086045D01*
X138698365Y-68259741D01*
X138810123Y-68413562D01*
X138812554Y-68415751D01*
X138812555Y-68415752D01*
X138836463Y-68437279D01*
X138951420Y-68540786D01*
X138954254Y-68542422D01*
X139063946Y-68605753D01*
X139116080Y-68635853D01*
X139296908Y-68694608D01*
X139345953Y-68699763D01*
X139436968Y-68709329D01*
X139436976Y-68709329D01*
X139438599Y-68709500D01*
X139533401Y-68709500D01*
X139535024Y-68709329D01*
X139535032Y-68709329D01*
X139626047Y-68699763D01*
X139675092Y-68694608D01*
X139855920Y-68635853D01*
X139908055Y-68605753D01*
X140017746Y-68542422D01*
X140020580Y-68540786D01*
X140135537Y-68437279D01*
X140159445Y-68415752D01*
X140159446Y-68415751D01*
X140161877Y-68413562D01*
X140273635Y-68259741D01*
X140350969Y-68086045D01*
X140357652Y-68054606D01*
X140389818Y-67903277D01*
X140389818Y-67903274D01*
X140390500Y-67900067D01*
X140390500Y-67709933D01*
X140376439Y-67643779D01*
X140351651Y-67527163D01*
X140351651Y-67527162D01*
X140350969Y-67523955D01*
X140273635Y-67350259D01*
X140161877Y-67196438D01*
X140152353Y-67187862D01*
X140023011Y-67071403D01*
X140020580Y-67069214D01*
X139885396Y-66991165D01*
X139858754Y-66975783D01*
X139858752Y-66975782D01*
X139855920Y-66974147D01*
X139675092Y-66915392D01*
X139626047Y-66910237D01*
X139535032Y-66900671D01*
X139535024Y-66900671D01*
X139533401Y-66900500D01*
X139438599Y-66900500D01*
X139436976Y-66900671D01*
X139436968Y-66900671D01*
X139345953Y-66910237D01*
X139296908Y-66915392D01*
X139116080Y-66974147D01*
X139113248Y-66975782D01*
X139113246Y-66975783D01*
X139086604Y-66991165D01*
X138951420Y-67069214D01*
X138948989Y-67071403D01*
X138819648Y-67187862D01*
X138810123Y-67196438D01*
X138698365Y-67350259D01*
X138621031Y-67523955D01*
X138620349Y-67527162D01*
X138620349Y-67527163D01*
X138595562Y-67643779D01*
X138581500Y-67709933D01*
X138581500Y-67900067D01*
X132534500Y-67900067D01*
X132534500Y-65423051D01*
X137329000Y-65423051D01*
X137329288Y-65427272D01*
X137343063Y-65527832D01*
X137345333Y-65535962D01*
X137399292Y-65660656D01*
X137403668Y-65667880D01*
X137489173Y-65773471D01*
X137495320Y-65779244D01*
X137591866Y-65847855D01*
X137600557Y-65849846D01*
X137602000Y-65845325D01*
X137602000Y-65838653D01*
X138110000Y-65838653D01*
X138113641Y-65847443D01*
X138115156Y-65848071D01*
X138116589Y-65847726D01*
X138155799Y-65827748D01*
X138162730Y-65822930D01*
X138262742Y-65730965D01*
X138268124Y-65724459D01*
X138339718Y-65608991D01*
X138343155Y-65601270D01*
X138381333Y-65469858D01*
X138382488Y-65463442D01*
X138382916Y-65457616D01*
X138383000Y-65455323D01*
X138383000Y-65355431D01*
X138379359Y-65346641D01*
X138370569Y-65343000D01*
X138122431Y-65343000D01*
X138113641Y-65346641D01*
X138110000Y-65355431D01*
X138110000Y-65838653D01*
X137602000Y-65838653D01*
X137602000Y-65355431D01*
X137598359Y-65346641D01*
X137589569Y-65343000D01*
X137341431Y-65343000D01*
X137332641Y-65346641D01*
X137329000Y-65355431D01*
X137329000Y-65423051D01*
X132534500Y-65423051D01*
X132534500Y-64822569D01*
X137329000Y-64822569D01*
X137332641Y-64831359D01*
X137341431Y-64835000D01*
X137589569Y-64835000D01*
X137598359Y-64831359D01*
X137602000Y-64822569D01*
X137602000Y-64339347D01*
X137598359Y-64330557D01*
X137596844Y-64329929D01*
X137595411Y-64330274D01*
X137556201Y-64350252D01*
X137549270Y-64355070D01*
X137449258Y-64447035D01*
X137443876Y-64453541D01*
X137372282Y-64569009D01*
X137368845Y-64576730D01*
X137330667Y-64708142D01*
X137329512Y-64714558D01*
X137329084Y-64720384D01*
X137329000Y-64722678D01*
X137329000Y-64822569D01*
X132534500Y-64822569D01*
X132534500Y-59625964D01*
X132754112Y-59625964D01*
X132762736Y-59855669D01*
X132763278Y-59858254D01*
X132763279Y-59858259D01*
X132797272Y-60020267D01*
X132809939Y-60080637D01*
X132810912Y-60083100D01*
X132810912Y-60083101D01*
X132820086Y-60106332D01*
X132894372Y-60294436D01*
X133013621Y-60490952D01*
X133015355Y-60492950D01*
X133015357Y-60492953D01*
X133101819Y-60592591D01*
X133164276Y-60664566D01*
X133342029Y-60810315D01*
X133541798Y-60924030D01*
X133544282Y-60924932D01*
X133544285Y-60924933D01*
X133622069Y-60953167D01*
X133757871Y-61002461D01*
X133984069Y-61043364D01*
X133986109Y-61043460D01*
X133986116Y-61043461D01*
X134007428Y-61044466D01*
X134007446Y-61044466D01*
X134008158Y-61044500D01*
X134169712Y-61044500D01*
X134171028Y-61044388D01*
X134171036Y-61044388D01*
X134338406Y-61030186D01*
X134338408Y-61030186D01*
X134341044Y-61029962D01*
X134343601Y-61029298D01*
X134343603Y-61029298D01*
X134445187Y-61002932D01*
X134563539Y-60972214D01*
X134565952Y-60971127D01*
X134565955Y-60971126D01*
X134770704Y-60878893D01*
X134770707Y-60878891D01*
X134773123Y-60877803D01*
X134963803Y-60749430D01*
X134965715Y-60747606D01*
X134965720Y-60747602D01*
X135054859Y-60662567D01*
X135130128Y-60590764D01*
X135267342Y-60406342D01*
X135343377Y-60256792D01*
X135370325Y-60203789D01*
X135370326Y-60203786D01*
X135371520Y-60201438D01*
X135410842Y-60074800D01*
X135438900Y-59984440D01*
X135438901Y-59984437D01*
X135439685Y-59981911D01*
X135469888Y-59754036D01*
X135461264Y-59524331D01*
X135414061Y-59299363D01*
X135329628Y-59085564D01*
X135210379Y-58889048D01*
X135123767Y-58789236D01*
X135061459Y-58717433D01*
X135061457Y-58717431D01*
X135059724Y-58715434D01*
X134881971Y-58569685D01*
X134682202Y-58455970D01*
X134679718Y-58455068D01*
X134679715Y-58455067D01*
X134601028Y-58426505D01*
X134466129Y-58377539D01*
X134239931Y-58336636D01*
X134237891Y-58336540D01*
X134237884Y-58336539D01*
X134216572Y-58335534D01*
X134216554Y-58335534D01*
X134215842Y-58335500D01*
X134054288Y-58335500D01*
X134052972Y-58335612D01*
X134052964Y-58335612D01*
X133885594Y-58349814D01*
X133885592Y-58349814D01*
X133882956Y-58350038D01*
X133880399Y-58350702D01*
X133880397Y-58350702D01*
X133782040Y-58376230D01*
X133660461Y-58407786D01*
X133658048Y-58408873D01*
X133658045Y-58408874D01*
X133453296Y-58501107D01*
X133453293Y-58501109D01*
X133450877Y-58502197D01*
X133260197Y-58630570D01*
X133258285Y-58632394D01*
X133258280Y-58632398D01*
X133189161Y-58698335D01*
X133093872Y-58789236D01*
X132956658Y-58973658D01*
X132852480Y-59178562D01*
X132784315Y-59398089D01*
X132754112Y-59625964D01*
X132534500Y-59625964D01*
X132534500Y-58450107D01*
X132536114Y-58435994D01*
X132536201Y-58435617D01*
X132539655Y-58420718D01*
X132539656Y-58420000D01*
X132538872Y-58416562D01*
X132538479Y-58413050D01*
X132539114Y-58412979D01*
X132538501Y-58394745D01*
X132548003Y-58334753D01*
X132554045Y-58316156D01*
X132588733Y-58248076D01*
X132600227Y-58232256D01*
X132654256Y-58178227D01*
X132670076Y-58166733D01*
X132738155Y-58132045D01*
X132756752Y-58126002D01*
X132816541Y-58116533D01*
X132827744Y-58116919D01*
X132827745Y-58116067D01*
X132834783Y-58116079D01*
X132841641Y-58117656D01*
X132848504Y-58116103D01*
X132848505Y-58116103D01*
X132857617Y-58114041D01*
X132871411Y-58112500D01*
X140769500Y-58112500D01*
X139065000Y-59817000D01*
G37*
G04 #@! TD.AperFunction*
G04 #@! TA.AperFunction,Conductor*
G36*
X162179000Y-61754541D02*
G01*
X162138935Y-61759816D01*
X162131087Y-61761919D01*
X161998300Y-61816921D01*
X161991257Y-61820988D01*
X161877228Y-61908486D01*
X161871486Y-61914228D01*
X161783988Y-62028256D01*
X161779921Y-62035299D01*
X161770927Y-62057014D01*
X161770927Y-62066530D01*
X161772897Y-62068500D01*
X162179000Y-62068500D01*
X162179000Y-62576500D01*
X161778601Y-62576500D01*
X161769811Y-62580141D01*
X161768745Y-62582716D01*
X161779924Y-62609705D01*
X161783986Y-62616740D01*
X161871486Y-62730772D01*
X161877228Y-62736514D01*
X161991257Y-62824012D01*
X161998300Y-62828079D01*
X162131087Y-62883081D01*
X162138935Y-62885184D01*
X162179000Y-62890459D01*
X162179000Y-64516000D01*
X163040233Y-65090155D01*
X163082676Y-65186614D01*
X163084505Y-65190771D01*
X163177123Y-65300954D01*
X163180824Y-65303417D01*
X163180830Y-65303423D01*
X163282597Y-65371164D01*
X163309243Y-65410891D01*
X163299992Y-65457823D01*
X163281316Y-65476049D01*
X163186471Y-65535892D01*
X163183528Y-65539224D01*
X163183526Y-65539226D01*
X163094135Y-65640442D01*
X163091188Y-65643779D01*
X163089296Y-65647809D01*
X163031908Y-65770042D01*
X163031907Y-65770045D01*
X163030016Y-65774073D01*
X163007871Y-65916298D01*
X163008448Y-65920711D01*
X163008448Y-65920713D01*
X163010304Y-65934903D01*
X163026534Y-66059022D01*
X163028327Y-66063097D01*
X163076185Y-66171862D01*
X163084505Y-66190771D01*
X163177123Y-66300954D01*
X163180824Y-66303417D01*
X163180830Y-66303423D01*
X163282597Y-66371164D01*
X163309243Y-66410891D01*
X163299992Y-66457823D01*
X163281316Y-66476049D01*
X163186471Y-66535892D01*
X163183528Y-66539224D01*
X163183526Y-66539226D01*
X163136695Y-66592252D01*
X163091188Y-66643779D01*
X163089296Y-66647809D01*
X163031908Y-66770042D01*
X163031907Y-66770045D01*
X163030016Y-66774073D01*
X163029331Y-66778472D01*
X163028400Y-66784453D01*
X163007871Y-66916298D01*
X163008448Y-66920711D01*
X163008448Y-66920713D01*
X163015462Y-66974349D01*
X163026534Y-67059022D01*
X163028327Y-67063097D01*
X163081086Y-67183000D01*
X163084505Y-67190771D01*
X163177123Y-67300954D01*
X163180824Y-67303417D01*
X163180830Y-67303423D01*
X163282597Y-67371164D01*
X163309243Y-67410891D01*
X163299992Y-67457823D01*
X163281316Y-67476049D01*
X163256095Y-67491963D01*
X163186471Y-67535892D01*
X163183528Y-67539224D01*
X163183526Y-67539226D01*
X163104412Y-67628806D01*
X163091188Y-67643779D01*
X163089296Y-67647809D01*
X163069018Y-67691000D01*
X162560000Y-67691000D01*
X162560000Y-70445500D01*
X162249727Y-70445500D01*
X162245648Y-70445767D01*
X162138935Y-70459816D01*
X162131087Y-70461919D01*
X161998300Y-70516921D01*
X161991257Y-70520988D01*
X161877228Y-70608486D01*
X161871486Y-70614228D01*
X161783988Y-70728256D01*
X161779921Y-70735299D01*
X161770927Y-70757014D01*
X161770927Y-70766530D01*
X161772897Y-70768500D01*
X162560000Y-70768500D01*
X162560000Y-71120000D01*
X156718000Y-71120000D01*
X154711400Y-69977000D01*
X158010081Y-69977000D01*
X158027648Y-70087912D01*
X158029883Y-70092298D01*
X158061052Y-70153471D01*
X158078628Y-70187967D01*
X158158033Y-70267372D01*
X158162414Y-70269604D01*
X158162415Y-70269605D01*
X158211333Y-70294530D01*
X158258088Y-70318352D01*
X158369000Y-70335919D01*
X158479912Y-70318352D01*
X158526667Y-70294530D01*
X158575585Y-70269605D01*
X158575586Y-70269604D01*
X158579967Y-70267372D01*
X158659372Y-70187967D01*
X158676949Y-70153471D01*
X158708117Y-70092298D01*
X158710352Y-70087912D01*
X158727919Y-69977000D01*
X158710352Y-69866088D01*
X158659372Y-69766033D01*
X158579967Y-69686628D01*
X158575586Y-69684396D01*
X158575585Y-69684395D01*
X158484298Y-69637883D01*
X158484299Y-69637883D01*
X158479912Y-69635648D01*
X158369000Y-69618081D01*
X158258088Y-69635648D01*
X158253701Y-69637883D01*
X158253702Y-69637883D01*
X158162415Y-69684395D01*
X158162414Y-69684396D01*
X158158033Y-69686628D01*
X158078628Y-69766033D01*
X158027648Y-69866088D01*
X158010081Y-69977000D01*
X154711400Y-69977000D01*
X150921155Y-67818000D01*
X161312081Y-67818000D01*
X161329648Y-67928912D01*
X161380628Y-68028967D01*
X161460033Y-68108372D01*
X161464414Y-68110604D01*
X161464415Y-68110605D01*
X161513333Y-68135530D01*
X161560088Y-68159352D01*
X161671000Y-68176919D01*
X161781912Y-68159352D01*
X161828667Y-68135530D01*
X161877585Y-68110605D01*
X161877586Y-68110604D01*
X161881967Y-68108372D01*
X161961372Y-68028967D01*
X162012352Y-67928912D01*
X162029919Y-67818000D01*
X162012352Y-67707088D01*
X161964700Y-67613564D01*
X161963605Y-67611415D01*
X161963604Y-67611414D01*
X161961372Y-67607033D01*
X161881967Y-67527628D01*
X161877586Y-67525396D01*
X161877585Y-67525395D01*
X161786298Y-67478883D01*
X161786299Y-67478883D01*
X161781912Y-67476648D01*
X161671000Y-67459081D01*
X161560088Y-67476648D01*
X161555701Y-67478883D01*
X161555702Y-67478883D01*
X161464415Y-67525395D01*
X161464414Y-67525396D01*
X161460033Y-67527628D01*
X161380628Y-67607033D01*
X161378396Y-67611414D01*
X161378395Y-67611415D01*
X161377300Y-67613564D01*
X161329648Y-67707088D01*
X161312081Y-67818000D01*
X150921155Y-67818000D01*
X150029333Y-67310000D01*
X157629081Y-67310000D01*
X157646648Y-67420912D01*
X157697628Y-67520967D01*
X157777033Y-67600372D01*
X157781414Y-67602604D01*
X157781415Y-67602605D01*
X157830333Y-67627530D01*
X157877088Y-67651352D01*
X157988000Y-67668919D01*
X158098912Y-67651352D01*
X158145667Y-67627530D01*
X158194585Y-67602605D01*
X158194586Y-67602604D01*
X158198967Y-67600372D01*
X158278372Y-67520967D01*
X158329352Y-67420912D01*
X158346919Y-67310000D01*
X158345655Y-67302016D01*
X158341528Y-67275965D01*
X158329352Y-67199088D01*
X158321155Y-67183000D01*
X158518081Y-67183000D01*
X158518851Y-67187862D01*
X158519934Y-67194702D01*
X158535648Y-67293912D01*
X158557457Y-67336715D01*
X158583799Y-67388414D01*
X158586628Y-67393967D01*
X158666033Y-67473372D01*
X158670414Y-67475604D01*
X158670415Y-67475605D01*
X158676849Y-67478883D01*
X158766088Y-67524352D01*
X158838948Y-67535892D01*
X158870314Y-67540860D01*
X158877000Y-67541919D01*
X158883687Y-67540860D01*
X158915052Y-67535892D01*
X158987912Y-67524352D01*
X159077151Y-67478883D01*
X159083585Y-67475605D01*
X159083586Y-67475604D01*
X159087967Y-67473372D01*
X159167372Y-67393967D01*
X159170202Y-67388414D01*
X159196543Y-67336715D01*
X159218352Y-67293912D01*
X159234066Y-67194702D01*
X159235149Y-67187862D01*
X159235919Y-67183000D01*
X159218352Y-67072088D01*
X159167372Y-66972033D01*
X159087967Y-66892628D01*
X159083586Y-66890396D01*
X159083585Y-66890395D01*
X159003191Y-66849433D01*
X158987912Y-66841648D01*
X158877000Y-66824081D01*
X158766088Y-66841648D01*
X158750809Y-66849433D01*
X158670415Y-66890395D01*
X158670414Y-66890396D01*
X158666033Y-66892628D01*
X158586628Y-66972033D01*
X158535648Y-67072088D01*
X158518081Y-67183000D01*
X158321155Y-67183000D01*
X158278372Y-67099033D01*
X158198967Y-67019628D01*
X158194586Y-67017396D01*
X158194585Y-67017395D01*
X158143105Y-66991165D01*
X158098912Y-66968648D01*
X157988000Y-66951081D01*
X157877088Y-66968648D01*
X157832895Y-66991165D01*
X157781415Y-67017395D01*
X157781414Y-67017396D01*
X157777033Y-67019628D01*
X157697628Y-67099033D01*
X157646648Y-67199088D01*
X157634472Y-67275965D01*
X157630346Y-67302016D01*
X157629081Y-67310000D01*
X150029333Y-67310000D01*
X148022733Y-66167000D01*
X159661081Y-66167000D01*
X159678648Y-66277912D01*
X159690388Y-66300954D01*
X159726162Y-66371164D01*
X159729628Y-66377967D01*
X159809033Y-66457372D01*
X159813414Y-66459604D01*
X159813415Y-66459605D01*
X159845689Y-66476049D01*
X159909088Y-66508352D01*
X160020000Y-66525919D01*
X160130912Y-66508352D01*
X160194311Y-66476049D01*
X160226585Y-66459605D01*
X160226586Y-66459604D01*
X160230967Y-66457372D01*
X160310372Y-66377967D01*
X160313839Y-66371164D01*
X160320801Y-66357500D01*
X160613581Y-66357500D01*
X160631148Y-66468412D01*
X160682128Y-66568467D01*
X160761533Y-66647872D01*
X160765916Y-66650105D01*
X160833135Y-66684355D01*
X160864202Y-66720729D01*
X160860449Y-66768417D01*
X160821648Y-66844569D01*
X160804081Y-66955481D01*
X160804851Y-66960343D01*
X160806152Y-66968555D01*
X160821648Y-67066393D01*
X160872628Y-67166448D01*
X160952033Y-67245853D01*
X160956414Y-67248085D01*
X160956415Y-67248086D01*
X161005333Y-67273011D01*
X161052088Y-67296833D01*
X161163000Y-67314400D01*
X161273912Y-67296833D01*
X161320667Y-67273011D01*
X161369585Y-67248086D01*
X161369586Y-67248085D01*
X161373967Y-67245853D01*
X161453372Y-67166448D01*
X161504352Y-67066393D01*
X161519848Y-66968555D01*
X161521149Y-66960343D01*
X161521919Y-66955481D01*
X161504352Y-66844569D01*
X161466379Y-66770042D01*
X161455605Y-66748896D01*
X161455604Y-66748895D01*
X161453372Y-66744514D01*
X161373967Y-66665109D01*
X161340137Y-66647872D01*
X161302365Y-66628626D01*
X161271298Y-66592252D01*
X161275051Y-66544564D01*
X161293502Y-66508352D01*
X161313852Y-66468412D01*
X161331419Y-66357500D01*
X161329277Y-66343979D01*
X161340442Y-66297467D01*
X161381228Y-66272472D01*
X161419381Y-66278514D01*
X161463423Y-66300954D01*
X161496588Y-66317852D01*
X161607500Y-66335419D01*
X161718412Y-66317852D01*
X161784031Y-66284418D01*
X161814085Y-66269105D01*
X161814086Y-66269104D01*
X161818467Y-66266872D01*
X161897872Y-66187467D01*
X161908301Y-66167000D01*
X161946617Y-66091798D01*
X161948852Y-66087412D01*
X161966419Y-65976500D01*
X161948852Y-65865588D01*
X161904465Y-65778472D01*
X161900105Y-65769915D01*
X161900104Y-65769914D01*
X161897872Y-65765533D01*
X161818467Y-65686128D01*
X161814086Y-65683896D01*
X161814085Y-65683895D01*
X161734804Y-65643500D01*
X161718412Y-65635148D01*
X161607500Y-65617581D01*
X161496588Y-65635148D01*
X161480196Y-65643500D01*
X161400915Y-65683895D01*
X161400914Y-65683896D01*
X161396533Y-65686128D01*
X161317128Y-65765533D01*
X161314896Y-65769914D01*
X161314895Y-65769915D01*
X161310535Y-65778472D01*
X161266148Y-65865588D01*
X161248581Y-65976500D01*
X161250723Y-65990021D01*
X161239558Y-66036533D01*
X161198772Y-66061528D01*
X161160619Y-66055486D01*
X161087798Y-66018383D01*
X161087799Y-66018383D01*
X161083412Y-66016148D01*
X160972500Y-65998581D01*
X160861588Y-66016148D01*
X160857201Y-66018383D01*
X160857202Y-66018383D01*
X160765915Y-66064895D01*
X160765914Y-66064896D01*
X160761533Y-66067128D01*
X160682128Y-66146533D01*
X160679896Y-66150914D01*
X160679895Y-66150915D01*
X160669222Y-66171862D01*
X160631148Y-66246588D01*
X160613581Y-66357500D01*
X160320801Y-66357500D01*
X160349612Y-66300954D01*
X160361352Y-66277912D01*
X160378919Y-66167000D01*
X160361352Y-66056088D01*
X160323276Y-65981358D01*
X160312605Y-65960415D01*
X160312604Y-65960414D01*
X160310372Y-65956033D01*
X160230967Y-65876628D01*
X160226586Y-65874396D01*
X160226585Y-65874395D01*
X160135298Y-65827883D01*
X160135299Y-65827883D01*
X160130912Y-65825648D01*
X160020000Y-65808081D01*
X159909088Y-65825648D01*
X159904701Y-65827883D01*
X159904702Y-65827883D01*
X159813415Y-65874395D01*
X159813414Y-65874396D01*
X159809033Y-65876628D01*
X159729628Y-65956033D01*
X159727396Y-65960414D01*
X159727395Y-65960415D01*
X159716724Y-65981358D01*
X159678648Y-66056088D01*
X159661081Y-66167000D01*
X148022733Y-66167000D01*
X146685000Y-65405000D01*
X146643000Y-65399000D01*
X146643000Y-65355431D01*
X146639359Y-65346641D01*
X146630569Y-65343000D01*
X146382431Y-65343000D01*
X146373641Y-65346641D01*
X146370000Y-65355431D01*
X146370000Y-65360000D01*
X144907000Y-65151000D01*
X144838974Y-65151000D01*
X144834895Y-65093395D01*
X144834565Y-65088734D01*
X144826321Y-65067426D01*
X144825319Y-65064467D01*
X144824778Y-65060692D01*
X144819319Y-65048684D01*
X144818402Y-65046668D01*
X144817008Y-65043352D01*
X144816576Y-65042235D01*
X144809018Y-65022699D01*
X144810145Y-64974877D01*
X144844756Y-64941858D01*
X144850867Y-64939849D01*
X144859908Y-64937384D01*
X144867432Y-64931558D01*
X144867534Y-64930758D01*
X144866134Y-64928345D01*
X144547648Y-64609858D01*
X144350548Y-64412759D01*
X144342454Y-64409406D01*
X144340228Y-64413791D01*
X144330071Y-64479024D01*
X144329963Y-64487835D01*
X144345597Y-64607386D01*
X144347967Y-64615877D01*
X144363411Y-64650976D01*
X144364455Y-64698800D01*
X144331376Y-64733355D01*
X144323381Y-64736241D01*
X144308523Y-64740488D01*
X144300642Y-64742199D01*
X144275623Y-64745960D01*
X144255470Y-64748990D01*
X144255468Y-64748991D01*
X144250849Y-64749685D01*
X144246640Y-64751706D01*
X144246637Y-64751707D01*
X144218151Y-64765386D01*
X144208274Y-64769138D01*
X144203611Y-64770471D01*
X144203607Y-64770473D01*
X144199331Y-64771695D01*
X144195573Y-64774066D01*
X144195569Y-64774068D01*
X144184276Y-64781194D01*
X144177979Y-64784677D01*
X144127647Y-64808846D01*
X144104329Y-64830401D01*
X144095267Y-64837354D01*
X144089710Y-64840860D01*
X144086764Y-64844195D01*
X144086761Y-64844198D01*
X144077112Y-64855124D01*
X144072699Y-64859638D01*
X144027288Y-64901617D01*
X144025946Y-64900165D01*
X143990102Y-64919877D01*
X143944164Y-64906539D01*
X143934155Y-64896453D01*
X143900641Y-64853941D01*
X143896798Y-64851285D01*
X143896796Y-64851283D01*
X143800424Y-64784677D01*
X143788211Y-64776236D01*
X143773853Y-64771695D01*
X143657903Y-64735025D01*
X143658213Y-64734045D01*
X143621443Y-64709679D01*
X143611931Y-64662799D01*
X143613195Y-64658482D01*
X143613357Y-64658203D01*
X143615220Y-64650168D01*
X143618488Y-64636066D01*
X143619656Y-64631821D01*
X143621512Y-64627990D01*
X143622250Y-64623607D01*
X143622252Y-64623599D01*
X143624249Y-64611731D01*
X143624996Y-64607992D01*
X143643163Y-64529611D01*
X143643163Y-64529609D01*
X143644217Y-64525062D01*
X143642974Y-64507507D01*
X143643043Y-64500169D01*
X143643017Y-64500169D01*
X143643124Y-64491415D01*
X143643124Y-64491410D01*
X143643153Y-64489000D01*
X143640524Y-64470644D01*
X143640050Y-64466203D01*
X143639997Y-64465447D01*
X143634565Y-64388734D01*
X143626321Y-64367426D01*
X143625319Y-64364467D01*
X143624778Y-64360692D01*
X143622463Y-64355599D01*
X143618402Y-64346668D01*
X143617008Y-64343351D01*
X143586939Y-64265628D01*
X143585253Y-64261270D01*
X143571835Y-64244249D01*
X143571130Y-64242699D01*
X143566867Y-64237751D01*
X143565936Y-64236671D01*
X143564203Y-64234569D01*
X143537081Y-64200165D01*
X143500641Y-64153941D01*
X143477594Y-64138012D01*
X143451646Y-64097828D01*
X143461713Y-64051064D01*
X143465075Y-64047033D01*
X144704116Y-64047033D01*
X144705364Y-64049153D01*
X144886816Y-64230606D01*
X145221315Y-64565105D01*
X145229543Y-64568513D01*
X145231723Y-64564285D01*
X145242111Y-64502542D01*
X145242542Y-64497734D01*
X145242619Y-64491415D01*
X145242306Y-64486607D01*
X145241056Y-64477883D01*
X145252909Y-64431540D01*
X145294061Y-64407152D01*
X145311081Y-64407055D01*
X145371860Y-64415056D01*
X145398020Y-64418500D01*
X145613312Y-64418500D01*
X145657506Y-64436806D01*
X145675812Y-64481000D01*
X145666430Y-64513935D01*
X145632282Y-64569009D01*
X145628845Y-64576730D01*
X145590667Y-64708142D01*
X145589512Y-64714558D01*
X145589084Y-64720384D01*
X145589000Y-64722678D01*
X145589000Y-64822569D01*
X145592641Y-64831359D01*
X145601431Y-64835000D01*
X146630569Y-64835000D01*
X146639359Y-64831359D01*
X146643000Y-64822569D01*
X146643000Y-64754949D01*
X146642712Y-64750728D01*
X146628937Y-64650168D01*
X146626667Y-64642038D01*
X146572708Y-64517344D01*
X146568332Y-64510120D01*
X146482827Y-64404529D01*
X146476680Y-64398756D01*
X146365926Y-64320048D01*
X146358443Y-64316136D01*
X146236691Y-64272302D01*
X146201310Y-64240108D01*
X146199057Y-64192326D01*
X146208277Y-64175449D01*
X146223873Y-64155124D01*
X146242192Y-64131250D01*
X146250159Y-64112015D01*
X146299016Y-63994066D01*
X146299016Y-63994064D01*
X146300584Y-63990280D01*
X146301255Y-63985188D01*
X146319965Y-63843064D01*
X146320500Y-63839000D01*
X146302399Y-63701508D01*
X146301119Y-63691782D01*
X146301119Y-63691780D01*
X146300584Y-63687720D01*
X146286840Y-63654538D01*
X146243759Y-63550533D01*
X146242192Y-63546750D01*
X146149304Y-63425696D01*
X146028250Y-63332808D01*
X145965015Y-63306615D01*
X145891066Y-63275984D01*
X145891064Y-63275984D01*
X145887280Y-63274416D01*
X145883218Y-63273881D01*
X145883217Y-63273881D01*
X145776011Y-63259767D01*
X145776005Y-63259767D01*
X145773980Y-63259500D01*
X145398020Y-63259500D01*
X145395995Y-63259767D01*
X145395989Y-63259767D01*
X145288783Y-63273881D01*
X145288782Y-63273881D01*
X145284720Y-63274416D01*
X145280936Y-63275984D01*
X145280934Y-63275984D01*
X145206985Y-63306615D01*
X145143750Y-63332808D01*
X145022696Y-63425696D01*
X144929808Y-63546750D01*
X144928241Y-63550533D01*
X144885161Y-63654538D01*
X144871416Y-63687720D01*
X144870881Y-63691780D01*
X144870881Y-63691782D01*
X144869601Y-63701508D01*
X144851500Y-63839000D01*
X144865410Y-63944655D01*
X144868275Y-63966420D01*
X144855895Y-64012626D01*
X144814468Y-64036543D01*
X144805928Y-64037077D01*
X144728481Y-64036604D01*
X144719742Y-64037801D01*
X144711686Y-64040104D01*
X144704233Y-64046021D01*
X144704116Y-64047033D01*
X143465075Y-64047033D01*
X143468935Y-64042404D01*
X143546372Y-63964967D01*
X143556722Y-63944655D01*
X143595117Y-63869298D01*
X143597352Y-63864912D01*
X143614919Y-63754000D01*
X143597352Y-63643088D01*
X143555643Y-63561229D01*
X143548605Y-63547415D01*
X143548604Y-63547414D01*
X143546372Y-63543033D01*
X143466967Y-63463628D01*
X143462586Y-63461396D01*
X143462585Y-63461395D01*
X143413587Y-63436430D01*
X143366912Y-63412648D01*
X143256000Y-63395081D01*
X143145088Y-63412648D01*
X143098413Y-63436430D01*
X143049415Y-63461395D01*
X143049414Y-63461396D01*
X143045033Y-63463628D01*
X143002000Y-63506661D01*
X143002000Y-62842919D01*
X143011768Y-62841372D01*
X143033726Y-62837894D01*
X143112912Y-62825352D01*
X143159667Y-62801530D01*
X143208585Y-62776605D01*
X143208586Y-62776604D01*
X143212967Y-62774372D01*
X143292372Y-62694967D01*
X143294606Y-62690584D01*
X143332230Y-62616740D01*
X143343352Y-62594912D01*
X143360919Y-62484000D01*
X148231081Y-62484000D01*
X148248648Y-62594912D01*
X148259770Y-62616740D01*
X148297395Y-62690584D01*
X148299628Y-62694967D01*
X148379033Y-62774372D01*
X148383414Y-62776604D01*
X148383415Y-62776605D01*
X148432333Y-62801530D01*
X148479088Y-62825352D01*
X148558274Y-62837894D01*
X148580233Y-62841372D01*
X148590000Y-62842919D01*
X148599768Y-62841372D01*
X148621726Y-62837894D01*
X148700912Y-62825352D01*
X148747667Y-62801530D01*
X148796585Y-62776605D01*
X148796586Y-62776604D01*
X148800967Y-62774372D01*
X148880372Y-62694967D01*
X148882606Y-62690584D01*
X148920230Y-62616740D01*
X148923155Y-62611000D01*
X149501081Y-62611000D01*
X149518648Y-62721912D01*
X149569628Y-62821967D01*
X149649033Y-62901372D01*
X149653414Y-62903604D01*
X149653415Y-62903605D01*
X149671387Y-62912762D01*
X149749088Y-62952352D01*
X149838622Y-62966533D01*
X149847474Y-62967935D01*
X149860000Y-62969919D01*
X149872527Y-62967935D01*
X149881378Y-62966533D01*
X149970912Y-62952352D01*
X150048613Y-62912762D01*
X150066585Y-62903605D01*
X150066586Y-62903604D01*
X150070967Y-62901372D01*
X150150372Y-62821967D01*
X150201352Y-62721912D01*
X150218919Y-62611000D01*
X150209416Y-62551000D01*
X159709581Y-62551000D01*
X159727148Y-62661912D01*
X159743990Y-62694967D01*
X159762234Y-62730772D01*
X159778128Y-62761967D01*
X159857533Y-62841372D01*
X159861914Y-62843604D01*
X159861915Y-62843605D01*
X159894786Y-62860353D01*
X159957588Y-62892352D01*
X160068500Y-62909919D01*
X160179412Y-62892352D01*
X160242214Y-62860353D01*
X160275085Y-62843605D01*
X160275086Y-62843604D01*
X160279467Y-62841372D01*
X160358872Y-62761967D01*
X160374767Y-62730772D01*
X160393010Y-62694967D01*
X160409852Y-62661912D01*
X160427419Y-62551000D01*
X160409852Y-62440088D01*
X160386030Y-62393333D01*
X160361105Y-62344415D01*
X160361104Y-62344414D01*
X160358872Y-62340033D01*
X160279467Y-62260628D01*
X160275086Y-62258396D01*
X160275085Y-62258395D01*
X160183798Y-62211883D01*
X160183799Y-62211883D01*
X160179412Y-62209648D01*
X160089878Y-62195467D01*
X160073362Y-62192851D01*
X160068500Y-62192081D01*
X160063638Y-62192851D01*
X160047122Y-62195467D01*
X159957588Y-62209648D01*
X159953201Y-62211883D01*
X159953202Y-62211883D01*
X159861915Y-62258395D01*
X159861914Y-62258396D01*
X159857533Y-62260628D01*
X159778128Y-62340033D01*
X159775896Y-62344414D01*
X159775895Y-62344415D01*
X159750970Y-62393333D01*
X159727148Y-62440088D01*
X159709581Y-62551000D01*
X150209416Y-62551000D01*
X150201352Y-62500088D01*
X150150372Y-62400033D01*
X150070967Y-62320628D01*
X150066586Y-62318396D01*
X150066585Y-62318395D01*
X150017667Y-62293470D01*
X149970912Y-62269648D01*
X149860000Y-62252081D01*
X149749088Y-62269648D01*
X149702333Y-62293470D01*
X149653415Y-62318395D01*
X149653414Y-62318396D01*
X149649033Y-62320628D01*
X149569628Y-62400033D01*
X149518648Y-62500088D01*
X149501081Y-62611000D01*
X148923155Y-62611000D01*
X148931352Y-62594912D01*
X148948919Y-62484000D01*
X148931352Y-62373088D01*
X148903485Y-62318395D01*
X148882605Y-62277415D01*
X148882604Y-62277414D01*
X148880372Y-62273033D01*
X148800967Y-62193628D01*
X148796586Y-62191396D01*
X148796585Y-62191395D01*
X148705298Y-62144883D01*
X148705299Y-62144883D01*
X148700912Y-62142648D01*
X148590000Y-62125081D01*
X148479088Y-62142648D01*
X148474701Y-62144883D01*
X148474702Y-62144883D01*
X148383415Y-62191395D01*
X148383414Y-62191396D01*
X148379033Y-62193628D01*
X148299628Y-62273033D01*
X148297396Y-62277414D01*
X148297395Y-62277415D01*
X148276515Y-62318395D01*
X148248648Y-62373088D01*
X148231081Y-62484000D01*
X143360919Y-62484000D01*
X143343352Y-62373088D01*
X143315485Y-62318395D01*
X143294605Y-62277415D01*
X143294604Y-62277414D01*
X143292372Y-62273033D01*
X143212967Y-62193628D01*
X143208586Y-62191396D01*
X143208585Y-62191395D01*
X143117298Y-62144883D01*
X143117299Y-62144883D01*
X143112912Y-62142648D01*
X143002000Y-62125081D01*
X143002000Y-61849000D01*
X140970000Y-61849000D01*
X140970000Y-61722000D01*
X147469081Y-61722000D01*
X147486648Y-61832912D01*
X147537628Y-61932967D01*
X147617033Y-62012372D01*
X147621414Y-62014604D01*
X147621415Y-62014605D01*
X147648207Y-62028256D01*
X147717088Y-62063352D01*
X147828000Y-62080919D01*
X147938912Y-62063352D01*
X148007793Y-62028256D01*
X148034585Y-62014605D01*
X148034586Y-62014604D01*
X148038967Y-62012372D01*
X148118372Y-61932967D01*
X148169352Y-61832912D01*
X148186919Y-61722000D01*
X148169352Y-61611088D01*
X148118372Y-61511033D01*
X148038967Y-61431628D01*
X148034586Y-61429396D01*
X148034585Y-61429395D01*
X147943298Y-61382883D01*
X147943299Y-61382883D01*
X147938912Y-61380648D01*
X147828000Y-61363081D01*
X147717088Y-61380648D01*
X147712701Y-61382883D01*
X147712702Y-61382883D01*
X147621415Y-61429395D01*
X147621414Y-61429396D01*
X147617033Y-61431628D01*
X147537628Y-61511033D01*
X147486648Y-61611088D01*
X147469081Y-61722000D01*
X140970000Y-61722000D01*
X140970000Y-61214000D01*
X162179000Y-61214000D01*
X162179000Y-61754541D01*
G37*
G04 #@! TD.AperFunction*
G04 #@! TA.AperFunction,Conductor*
G36*
X143002000Y-66421000D02*
G01*
X143129000Y-66421000D01*
X143129000Y-68834000D01*
X143764000Y-68834000D01*
X143764000Y-70739000D01*
X140335000Y-70739000D01*
X140335000Y-68834000D01*
X140843000Y-68834000D01*
X140843000Y-66167000D01*
X140970000Y-66167000D01*
X140970000Y-66089264D01*
X140999629Y-66095562D01*
X141035994Y-66103291D01*
X141075417Y-66130385D01*
X141085500Y-66164425D01*
X141085500Y-69104476D01*
X141069448Y-69146295D01*
X140989478Y-69235111D01*
X140902714Y-69385389D01*
X140849092Y-69550424D01*
X140830953Y-69723000D01*
X140849092Y-69895576D01*
X140902714Y-70060611D01*
X140989478Y-70210889D01*
X141105590Y-70339845D01*
X141245976Y-70441842D01*
X141404501Y-70512422D01*
X141407705Y-70513103D01*
X141571035Y-70547820D01*
X141571039Y-70547820D01*
X141574236Y-70548500D01*
X141747764Y-70548500D01*
X141750961Y-70547820D01*
X141750965Y-70547820D01*
X141914287Y-70513105D01*
X141914289Y-70513104D01*
X141917499Y-70512422D01*
X141960580Y-70493241D01*
X142011420Y-70493241D01*
X142054501Y-70512422D01*
X142057711Y-70513104D01*
X142057713Y-70513105D01*
X142221035Y-70547820D01*
X142221039Y-70547820D01*
X142224236Y-70548500D01*
X142397764Y-70548500D01*
X142400961Y-70547820D01*
X142400965Y-70547820D01*
X142564295Y-70513103D01*
X142567499Y-70512422D01*
X142726024Y-70441842D01*
X142866410Y-70339845D01*
X142982522Y-70210889D01*
X143069286Y-70060611D01*
X143122908Y-69895576D01*
X143141047Y-69723000D01*
X143122908Y-69550424D01*
X143069286Y-69385389D01*
X142982522Y-69235111D01*
X142902552Y-69146295D01*
X142886500Y-69104476D01*
X142886500Y-66164425D01*
X142904806Y-66120231D01*
X142936005Y-66103291D01*
X142972371Y-66095562D01*
X143002000Y-66089264D01*
X143002000Y-66421000D01*
G37*
G04 #@! TD.AperFunction*
M02*
