G04 #@! TF.GenerationSoftware,KiCad,Pcbnew,6.0.11-2627ca5db0~126~ubuntu22.04.1*
G04 #@! TF.CreationDate,2023-02-09T23:48:25+01:00*
G04 #@! TF.ProjectId,PDLeech,50444c65-6563-4682-9e6b-696361645f70,rev?*
G04 #@! TF.SameCoordinates,Original*
G04 #@! TF.FileFunction,Paste,Top*
G04 #@! TF.FilePolarity,Positive*
%FSLAX46Y46*%
G04 Gerber Fmt 4.6, Leading zero omitted, Abs format (unit mm)*
G04 Created by KiCad (PCBNEW 6.0.11-2627ca5db0~126~ubuntu22.04.1) date 2023-02-09 23:48:25*
%MOMM*%
%LPD*%
G01*
G04 APERTURE LIST*
%ADD10R,0.300000X0.700000*%
%ADD11R,0.800000X0.300000*%
%ADD12C,0.750000*%
%ADD13O,2.100000X0.900000*%
G04 APERTURE END LIST*
G36*
X163540500Y-65673500D02*
G01*
X163565500Y-65677500D01*
X163589500Y-65683500D01*
X163612500Y-65692500D01*
X163635500Y-65702500D01*
X163656500Y-65715500D01*
X163676500Y-65730500D01*
X163694500Y-65747500D01*
X163710500Y-65766500D01*
X163725500Y-65786500D01*
X163737500Y-65808500D01*
X163748500Y-65831500D01*
X163756500Y-65854500D01*
X163761500Y-65879500D01*
X163764500Y-65903500D01*
X163765500Y-65928500D01*
X163763500Y-65953500D01*
X163759500Y-65978500D01*
X163752500Y-66002500D01*
X163743500Y-66025500D01*
X163732500Y-66047500D01*
X163718500Y-66068500D01*
X163702500Y-66087500D01*
X163685500Y-66105500D01*
X163666500Y-66121500D01*
X163645500Y-66135500D01*
X163623500Y-66147500D01*
X163600500Y-66157500D01*
X163577500Y-66164500D01*
X163552500Y-66169500D01*
X163527500Y-66172500D01*
X163503500Y-66172500D01*
X163478500Y-66169500D01*
X163453500Y-66164500D01*
X163430500Y-66157500D01*
X163407500Y-66147500D01*
X163385500Y-66135500D01*
X163364500Y-66121500D01*
X163345500Y-66105500D01*
X163328500Y-66087500D01*
X163312500Y-66068500D01*
X163298500Y-66047500D01*
X163287500Y-66025500D01*
X163278500Y-66002500D01*
X163271500Y-65978500D01*
X163267500Y-65953500D01*
X163265500Y-65928500D01*
X163266500Y-65903500D01*
X163269500Y-65879500D01*
X163274500Y-65854500D01*
X163282500Y-65831500D01*
X163293500Y-65808500D01*
X163305500Y-65786500D01*
X163320500Y-65766500D01*
X163336500Y-65747500D01*
X163354500Y-65730500D01*
X163374500Y-65715500D01*
X163395500Y-65702500D01*
X163418500Y-65692500D01*
X163441500Y-65683500D01*
X163465500Y-65677500D01*
X163490500Y-65673500D01*
X163515500Y-65672500D01*
X163540500Y-65673500D01*
G37*
G36*
X162935500Y-64072500D02*
G01*
X162135500Y-64072500D01*
X162135500Y-63772500D01*
X162935500Y-63772500D01*
X162935500Y-64072500D01*
G37*
G36*
X162935500Y-64572500D02*
G01*
X162135500Y-64572500D01*
X162135500Y-64272500D01*
X162935500Y-64272500D01*
X162935500Y-64572500D01*
G37*
G36*
X163540500Y-68673500D02*
G01*
X163565500Y-68677500D01*
X163589500Y-68683500D01*
X163612500Y-68692500D01*
X163635500Y-68702500D01*
X163656500Y-68715500D01*
X163676500Y-68730500D01*
X163694500Y-68747500D01*
X163710500Y-68766500D01*
X163725500Y-68786500D01*
X163737500Y-68808500D01*
X163748500Y-68831500D01*
X163756500Y-68854500D01*
X163761500Y-68879500D01*
X163764500Y-68903500D01*
X163765500Y-68928500D01*
X163763500Y-68953500D01*
X163759500Y-68978500D01*
X163752500Y-69002500D01*
X163743500Y-69025500D01*
X163732500Y-69047500D01*
X163718500Y-69068500D01*
X163702500Y-69087500D01*
X163685500Y-69105500D01*
X163666500Y-69121500D01*
X163645500Y-69135500D01*
X163623500Y-69147500D01*
X163600500Y-69157500D01*
X163577500Y-69164500D01*
X163552500Y-69169500D01*
X163527500Y-69172500D01*
X163503500Y-69172500D01*
X163478500Y-69169500D01*
X163453500Y-69164500D01*
X163430500Y-69157500D01*
X163407500Y-69147500D01*
X163385500Y-69135500D01*
X163364500Y-69121500D01*
X163345500Y-69105500D01*
X163328500Y-69087500D01*
X163312500Y-69068500D01*
X163298500Y-69047500D01*
X163287500Y-69025500D01*
X163278500Y-69002500D01*
X163271500Y-68978500D01*
X163267500Y-68953500D01*
X163265500Y-68928500D01*
X163266500Y-68903500D01*
X163269500Y-68879500D01*
X163274500Y-68854500D01*
X163282500Y-68831500D01*
X163293500Y-68808500D01*
X163305500Y-68786500D01*
X163320500Y-68766500D01*
X163336500Y-68747500D01*
X163354500Y-68730500D01*
X163374500Y-68715500D01*
X163395500Y-68702500D01*
X163418500Y-68692500D01*
X163441500Y-68683500D01*
X163465500Y-68677500D01*
X163490500Y-68673500D01*
X163515500Y-68672500D01*
X163540500Y-68673500D01*
G37*
G36*
X163507500Y-61873500D02*
G01*
X163530500Y-61874500D01*
X163552500Y-61877500D01*
X163574500Y-61881500D01*
X163596500Y-61886500D01*
X163618500Y-61892500D01*
X163639500Y-61899500D01*
X163660500Y-61907500D01*
X163700500Y-61927500D01*
X163720500Y-61938500D01*
X163739500Y-61950500D01*
X163757500Y-61963500D01*
X163774500Y-61977500D01*
X163791500Y-61992500D01*
X163807500Y-62008500D01*
X163822500Y-62024500D01*
X163837500Y-62041500D01*
X163850500Y-62059500D01*
X163863500Y-62078500D01*
X163875500Y-62097500D01*
X163895500Y-62137500D01*
X163904500Y-62158500D01*
X163912500Y-62179500D01*
X163918500Y-62200500D01*
X163924500Y-62222500D01*
X163932500Y-62266500D01*
X163934500Y-62288500D01*
X163935500Y-62311500D01*
X163935500Y-62333500D01*
X163934500Y-62356500D01*
X163932500Y-62378500D01*
X163924500Y-62422500D01*
X163918500Y-62444500D01*
X163912500Y-62465500D01*
X163904500Y-62486500D01*
X163895500Y-62507500D01*
X163875500Y-62547500D01*
X163863500Y-62566500D01*
X163850500Y-62585500D01*
X163837500Y-62603500D01*
X163822500Y-62620500D01*
X163807500Y-62636500D01*
X163791500Y-62652500D01*
X163774500Y-62667500D01*
X163757500Y-62681500D01*
X163739500Y-62694500D01*
X163720500Y-62706500D01*
X163700500Y-62717500D01*
X163660500Y-62737500D01*
X163639500Y-62745500D01*
X163618500Y-62752500D01*
X163596500Y-62758500D01*
X163574500Y-62763500D01*
X163552500Y-62767500D01*
X163530500Y-62770500D01*
X163507500Y-62771500D01*
X163485500Y-62772500D01*
X162285500Y-62772500D01*
X162263500Y-62771500D01*
X162240500Y-62770500D01*
X162218500Y-62767500D01*
X162196500Y-62763500D01*
X162174500Y-62758500D01*
X162152500Y-62752500D01*
X162131500Y-62745500D01*
X162110500Y-62737500D01*
X162070500Y-62717500D01*
X162050500Y-62706500D01*
X162032500Y-62694500D01*
X162013500Y-62681500D01*
X161996500Y-62667500D01*
X161979500Y-62652500D01*
X161963500Y-62636500D01*
X161948500Y-62620500D01*
X161933500Y-62603500D01*
X161920500Y-62585500D01*
X161907500Y-62566500D01*
X161895500Y-62547500D01*
X161875500Y-62507500D01*
X161866500Y-62486500D01*
X161858500Y-62465500D01*
X161852500Y-62444500D01*
X161846500Y-62422500D01*
X161838500Y-62378500D01*
X161836500Y-62356500D01*
X161835500Y-62333500D01*
X161835500Y-62311500D01*
X161836500Y-62288500D01*
X161838500Y-62266500D01*
X161846500Y-62222500D01*
X161852500Y-62200500D01*
X161858500Y-62179500D01*
X161866500Y-62158500D01*
X161875500Y-62137500D01*
X161895500Y-62097500D01*
X161907500Y-62078500D01*
X161920500Y-62059500D01*
X161933500Y-62041500D01*
X161948500Y-62024500D01*
X161963500Y-62008500D01*
X161979500Y-61992500D01*
X161996500Y-61977500D01*
X162013500Y-61963500D01*
X162032500Y-61950500D01*
X162050500Y-61938500D01*
X162070500Y-61927500D01*
X162110500Y-61907500D01*
X162131500Y-61899500D01*
X162152500Y-61892500D01*
X162174500Y-61886500D01*
X162196500Y-61881500D01*
X162218500Y-61877500D01*
X162240500Y-61874500D01*
X162263500Y-61873500D01*
X162285500Y-61872500D01*
X163485500Y-61872500D01*
X163507500Y-61873500D01*
G37*
G36*
X164260500Y-68173500D02*
G01*
X164285500Y-68177500D01*
X164309500Y-68183500D01*
X164332500Y-68192500D01*
X164355500Y-68203500D01*
X164376500Y-68216500D01*
X164396500Y-68231500D01*
X164414500Y-68248500D01*
X164430500Y-68266500D01*
X164445500Y-68286500D01*
X164457500Y-68308500D01*
X164468500Y-68331500D01*
X164476500Y-68354500D01*
X164481500Y-68379500D01*
X164484500Y-68403500D01*
X164485500Y-68428500D01*
X164483500Y-68453500D01*
X164479500Y-68478500D01*
X164472500Y-68502500D01*
X164463500Y-68525500D01*
X164451500Y-68547500D01*
X164438500Y-68568500D01*
X164422500Y-68587500D01*
X164405500Y-68605500D01*
X164386500Y-68621500D01*
X164365500Y-68635500D01*
X164343500Y-68647500D01*
X164320500Y-68657500D01*
X164297500Y-68664500D01*
X164272500Y-68669500D01*
X164247500Y-68672500D01*
X164223500Y-68672500D01*
X164198500Y-68669500D01*
X164173500Y-68664500D01*
X164149500Y-68657500D01*
X164127500Y-68647500D01*
X164105500Y-68635500D01*
X164084500Y-68621500D01*
X164065500Y-68605500D01*
X164048500Y-68587500D01*
X164032500Y-68568500D01*
X164018500Y-68547500D01*
X164007500Y-68525500D01*
X163998500Y-68502500D01*
X163991500Y-68478500D01*
X163987500Y-68453500D01*
X163985500Y-68428500D01*
X163986500Y-68403500D01*
X163989500Y-68379500D01*
X163994500Y-68354500D01*
X164002500Y-68331500D01*
X164013500Y-68308500D01*
X164025500Y-68286500D01*
X164040500Y-68266500D01*
X164056500Y-68248500D01*
X164074500Y-68231500D01*
X164094500Y-68216500D01*
X164115500Y-68203500D01*
X164138500Y-68192500D01*
X164161500Y-68183500D01*
X164185500Y-68177500D01*
X164210500Y-68173500D01*
X164235500Y-68172500D01*
X164260500Y-68173500D01*
G37*
G36*
X164260500Y-69173500D02*
G01*
X164285500Y-69177500D01*
X164309500Y-69183500D01*
X164332500Y-69192500D01*
X164355500Y-69203500D01*
X164376500Y-69216500D01*
X164396500Y-69231500D01*
X164414500Y-69248500D01*
X164430500Y-69266500D01*
X164445500Y-69286500D01*
X164457500Y-69308500D01*
X164468500Y-69331500D01*
X164476500Y-69354500D01*
X164481500Y-69379500D01*
X164484500Y-69403500D01*
X164485500Y-69428500D01*
X164483500Y-69453500D01*
X164479500Y-69478500D01*
X164472500Y-69502500D01*
X164463500Y-69525500D01*
X164452500Y-69547500D01*
X164438500Y-69568500D01*
X164422500Y-69587500D01*
X164405500Y-69605500D01*
X164386500Y-69621500D01*
X164365500Y-69635500D01*
X164343500Y-69647500D01*
X164321500Y-69657500D01*
X164297500Y-69664500D01*
X164272500Y-69669500D01*
X164247500Y-69672500D01*
X164223500Y-69672500D01*
X164198500Y-69669500D01*
X164173500Y-69664500D01*
X164150500Y-69657500D01*
X164127500Y-69647500D01*
X164105500Y-69635500D01*
X164084500Y-69621500D01*
X164065500Y-69605500D01*
X164048500Y-69587500D01*
X164032500Y-69568500D01*
X164019500Y-69547500D01*
X164007500Y-69525500D01*
X163998500Y-69502500D01*
X163991500Y-69478500D01*
X163987500Y-69453500D01*
X163985500Y-69428500D01*
X163986500Y-69403500D01*
X163989500Y-69379500D01*
X163994500Y-69354500D01*
X164002500Y-69331500D01*
X164013500Y-69308500D01*
X164025500Y-69286500D01*
X164040500Y-69266500D01*
X164056500Y-69248500D01*
X164074500Y-69231500D01*
X164094500Y-69216500D01*
X164115500Y-69203500D01*
X164138500Y-69192500D01*
X164161500Y-69183500D01*
X164185500Y-69177500D01*
X164210500Y-69173500D01*
X164235500Y-69172500D01*
X164260500Y-69173500D01*
G37*
G36*
X162935500Y-66572500D02*
G01*
X162135500Y-66572500D01*
X162135500Y-66272500D01*
X162935500Y-66272500D01*
X162935500Y-66572500D01*
G37*
G36*
X162935500Y-67072500D02*
G01*
X162135500Y-67072500D01*
X162135500Y-66772500D01*
X162935500Y-66772500D01*
X162935500Y-67072500D01*
G37*
G36*
X164260500Y-65173500D02*
G01*
X164285500Y-65177500D01*
X164309500Y-65183500D01*
X164332500Y-65192500D01*
X164355500Y-65203500D01*
X164376500Y-65216500D01*
X164396500Y-65231500D01*
X164414500Y-65248500D01*
X164430500Y-65266500D01*
X164445500Y-65286500D01*
X164457500Y-65308500D01*
X164468500Y-65331500D01*
X164476500Y-65354500D01*
X164481500Y-65379500D01*
X164484500Y-65403500D01*
X164485500Y-65428500D01*
X164483500Y-65453500D01*
X164479500Y-65478500D01*
X164472500Y-65502500D01*
X164463500Y-65525500D01*
X164451500Y-65547500D01*
X164438500Y-65568500D01*
X164422500Y-65587500D01*
X164405500Y-65605500D01*
X164386500Y-65621500D01*
X164365500Y-65635500D01*
X164343500Y-65647500D01*
X164320500Y-65657500D01*
X164297500Y-65664500D01*
X164272500Y-65669500D01*
X164247500Y-65672500D01*
X164223500Y-65672500D01*
X164198500Y-65669500D01*
X164173500Y-65664500D01*
X164149500Y-65657500D01*
X164127500Y-65647500D01*
X164105500Y-65635500D01*
X164084500Y-65621500D01*
X164065500Y-65605500D01*
X164048500Y-65587500D01*
X164032500Y-65568500D01*
X164018500Y-65547500D01*
X164007500Y-65525500D01*
X163998500Y-65502500D01*
X163991500Y-65478500D01*
X163987500Y-65453500D01*
X163985500Y-65428500D01*
X163986500Y-65403500D01*
X163989500Y-65379500D01*
X163994500Y-65354500D01*
X164002500Y-65331500D01*
X164013500Y-65308500D01*
X164025500Y-65286500D01*
X164040500Y-65266500D01*
X164056500Y-65248500D01*
X164074500Y-65231500D01*
X164094500Y-65216500D01*
X164115500Y-65203500D01*
X164138500Y-65192500D01*
X164161500Y-65183500D01*
X164185500Y-65177500D01*
X164210500Y-65173500D01*
X164235500Y-65172500D01*
X164260500Y-65173500D01*
G37*
G36*
X162935500Y-68572500D02*
G01*
X162135500Y-68572500D01*
X162135500Y-68272500D01*
X162935500Y-68272500D01*
X162935500Y-68572500D01*
G37*
G36*
X163507500Y-70573500D02*
G01*
X163530500Y-70574500D01*
X163552500Y-70577500D01*
X163574500Y-70581500D01*
X163596500Y-70586500D01*
X163618500Y-70592500D01*
X163639500Y-70599500D01*
X163660500Y-70607500D01*
X163700500Y-70627500D01*
X163720500Y-70638500D01*
X163739500Y-70650500D01*
X163757500Y-70663500D01*
X163774500Y-70677500D01*
X163791500Y-70692500D01*
X163807500Y-70708500D01*
X163822500Y-70724500D01*
X163837500Y-70741500D01*
X163850500Y-70759500D01*
X163863500Y-70778500D01*
X163875500Y-70797500D01*
X163895500Y-70837500D01*
X163904500Y-70858500D01*
X163912500Y-70879500D01*
X163918500Y-70900500D01*
X163924500Y-70922500D01*
X163932500Y-70966500D01*
X163934500Y-70988500D01*
X163935500Y-71011500D01*
X163935500Y-71033500D01*
X163934500Y-71056500D01*
X163932500Y-71078500D01*
X163924500Y-71122500D01*
X163918500Y-71144500D01*
X163912500Y-71165500D01*
X163904500Y-71186500D01*
X163895500Y-71207500D01*
X163875500Y-71247500D01*
X163863500Y-71266500D01*
X163850500Y-71285500D01*
X163837500Y-71303500D01*
X163822500Y-71320500D01*
X163807500Y-71336500D01*
X163791500Y-71352500D01*
X163774500Y-71367500D01*
X163757500Y-71381500D01*
X163739500Y-71394500D01*
X163720500Y-71406500D01*
X163700500Y-71417500D01*
X163660500Y-71437500D01*
X163639500Y-71445500D01*
X163618500Y-71452500D01*
X163596500Y-71458500D01*
X163574500Y-71463500D01*
X163552500Y-71467500D01*
X163530500Y-71470500D01*
X163507500Y-71471500D01*
X163485500Y-71472500D01*
X162285500Y-71472500D01*
X162263500Y-71471500D01*
X162240500Y-71470500D01*
X162218500Y-71467500D01*
X162196500Y-71463500D01*
X162174500Y-71458500D01*
X162152500Y-71452500D01*
X162131500Y-71445500D01*
X162110500Y-71437500D01*
X162070500Y-71417500D01*
X162050500Y-71406500D01*
X162032500Y-71394500D01*
X162013500Y-71381500D01*
X161996500Y-71367500D01*
X161979500Y-71352500D01*
X161963500Y-71336500D01*
X161948500Y-71320500D01*
X161933500Y-71303500D01*
X161920500Y-71285500D01*
X161907500Y-71266500D01*
X161895500Y-71247500D01*
X161875500Y-71207500D01*
X161866500Y-71186500D01*
X161858500Y-71165500D01*
X161852500Y-71144500D01*
X161846500Y-71122500D01*
X161838500Y-71078500D01*
X161836500Y-71056500D01*
X161835500Y-71033500D01*
X161835500Y-71011500D01*
X161836500Y-70988500D01*
X161838500Y-70966500D01*
X161846500Y-70922500D01*
X161852500Y-70900500D01*
X161858500Y-70879500D01*
X161866500Y-70858500D01*
X161875500Y-70837500D01*
X161895500Y-70797500D01*
X161907500Y-70778500D01*
X161920500Y-70759500D01*
X161933500Y-70741500D01*
X161948500Y-70724500D01*
X161963500Y-70708500D01*
X161979500Y-70692500D01*
X161996500Y-70677500D01*
X162013500Y-70663500D01*
X162032500Y-70650500D01*
X162050500Y-70638500D01*
X162070500Y-70627500D01*
X162110500Y-70607500D01*
X162131500Y-70599500D01*
X162152500Y-70592500D01*
X162174500Y-70586500D01*
X162196500Y-70581500D01*
X162218500Y-70577500D01*
X162240500Y-70574500D01*
X162263500Y-70573500D01*
X162285500Y-70572500D01*
X163485500Y-70572500D01*
X163507500Y-70573500D01*
G37*
G36*
X162935500Y-67572500D02*
G01*
X162135500Y-67572500D01*
X162135500Y-67272500D01*
X162935500Y-67272500D01*
X162935500Y-67572500D01*
G37*
G36*
X162935500Y-69072500D02*
G01*
X162135500Y-69072500D01*
X162135500Y-68772500D01*
X162935500Y-68772500D01*
X162935500Y-69072500D01*
G37*
G36*
X164260500Y-66173500D02*
G01*
X164285500Y-66177500D01*
X164309500Y-66183500D01*
X164332500Y-66192500D01*
X164355500Y-66203500D01*
X164376500Y-66216500D01*
X164396500Y-66231500D01*
X164414500Y-66248500D01*
X164430500Y-66266500D01*
X164445500Y-66286500D01*
X164457500Y-66308500D01*
X164468500Y-66331500D01*
X164476500Y-66354500D01*
X164481500Y-66379500D01*
X164484500Y-66403500D01*
X164485500Y-66428500D01*
X164483500Y-66453500D01*
X164479500Y-66478500D01*
X164472500Y-66502500D01*
X164463500Y-66525500D01*
X164451500Y-66547500D01*
X164438500Y-66568500D01*
X164422500Y-66587500D01*
X164405500Y-66605500D01*
X164386500Y-66621500D01*
X164365500Y-66635500D01*
X164343500Y-66647500D01*
X164320500Y-66657500D01*
X164297500Y-66664500D01*
X164272500Y-66669500D01*
X164247500Y-66672500D01*
X164223500Y-66672500D01*
X164198500Y-66669500D01*
X164173500Y-66664500D01*
X164149500Y-66657500D01*
X164127500Y-66647500D01*
X164105500Y-66635500D01*
X164084500Y-66621500D01*
X164065500Y-66605500D01*
X164048500Y-66587500D01*
X164032500Y-66568500D01*
X164018500Y-66547500D01*
X164007500Y-66525500D01*
X163998500Y-66502500D01*
X163991500Y-66478500D01*
X163987500Y-66453500D01*
X163985500Y-66428500D01*
X163986500Y-66403500D01*
X163989500Y-66379500D01*
X163994500Y-66354500D01*
X164002500Y-66331500D01*
X164013500Y-66308500D01*
X164025500Y-66286500D01*
X164040500Y-66266500D01*
X164056500Y-66248500D01*
X164074500Y-66231500D01*
X164094500Y-66216500D01*
X164115500Y-66203500D01*
X164138500Y-66192500D01*
X164161500Y-66183500D01*
X164185500Y-66177500D01*
X164210500Y-66173500D01*
X164235500Y-66172500D01*
X164260500Y-66173500D01*
G37*
G36*
X162935500Y-65072500D02*
G01*
X162135500Y-65072500D01*
X162135500Y-64772500D01*
X162935500Y-64772500D01*
X162935500Y-65072500D01*
G37*
G36*
X162935500Y-69572500D02*
G01*
X162135500Y-69572500D01*
X162135500Y-69272500D01*
X162935500Y-69272500D01*
X162935500Y-69572500D01*
G37*
G36*
X163540500Y-63673500D02*
G01*
X163565500Y-63677500D01*
X163589500Y-63683500D01*
X163612500Y-63692500D01*
X163635500Y-63702500D01*
X163656500Y-63715500D01*
X163676500Y-63730500D01*
X163694500Y-63747500D01*
X163710500Y-63766500D01*
X163725500Y-63786500D01*
X163737500Y-63808500D01*
X163748500Y-63831500D01*
X163756500Y-63854500D01*
X163761500Y-63879500D01*
X163764500Y-63903500D01*
X163765500Y-63928500D01*
X163763500Y-63953500D01*
X163759500Y-63978500D01*
X163752500Y-64002500D01*
X163743500Y-64025500D01*
X163732500Y-64047500D01*
X163718500Y-64068500D01*
X163702500Y-64087500D01*
X163685500Y-64105500D01*
X163666500Y-64121500D01*
X163645500Y-64135500D01*
X163623500Y-64147500D01*
X163600500Y-64157500D01*
X163577500Y-64164500D01*
X163552500Y-64169500D01*
X163527500Y-64172500D01*
X163503500Y-64172500D01*
X163478500Y-64169500D01*
X163453500Y-64164500D01*
X163430500Y-64157500D01*
X163407500Y-64147500D01*
X163385500Y-64135500D01*
X163364500Y-64121500D01*
X163345500Y-64105500D01*
X163328500Y-64087500D01*
X163312500Y-64068500D01*
X163298500Y-64047500D01*
X163287500Y-64025500D01*
X163278500Y-64002500D01*
X163271500Y-63978500D01*
X163267500Y-63953500D01*
X163265500Y-63928500D01*
X163266500Y-63903500D01*
X163269500Y-63879500D01*
X163274500Y-63854500D01*
X163282500Y-63831500D01*
X163293500Y-63808500D01*
X163305500Y-63786500D01*
X163320500Y-63766500D01*
X163336500Y-63747500D01*
X163354500Y-63730500D01*
X163374500Y-63715500D01*
X163395500Y-63702500D01*
X163418500Y-63692500D01*
X163441500Y-63683500D01*
X163465500Y-63677500D01*
X163490500Y-63673500D01*
X163515500Y-63672500D01*
X163540500Y-63673500D01*
G37*
G36*
X164260500Y-67173500D02*
G01*
X164285500Y-67177500D01*
X164309500Y-67183500D01*
X164332500Y-67192500D01*
X164355500Y-67203500D01*
X164376500Y-67216500D01*
X164396500Y-67231500D01*
X164414500Y-67248500D01*
X164430500Y-67266500D01*
X164445500Y-67286500D01*
X164457500Y-67308500D01*
X164468500Y-67331500D01*
X164476500Y-67354500D01*
X164481500Y-67379500D01*
X164484500Y-67403500D01*
X164485500Y-67428500D01*
X164483500Y-67453500D01*
X164479500Y-67478500D01*
X164472500Y-67502500D01*
X164463500Y-67525500D01*
X164451500Y-67547500D01*
X164438500Y-67568500D01*
X164422500Y-67587500D01*
X164405500Y-67605500D01*
X164386500Y-67621500D01*
X164365500Y-67635500D01*
X164343500Y-67647500D01*
X164320500Y-67657500D01*
X164297500Y-67664500D01*
X164272500Y-67669500D01*
X164247500Y-67672500D01*
X164223500Y-67672500D01*
X164198500Y-67669500D01*
X164173500Y-67664500D01*
X164149500Y-67657500D01*
X164127500Y-67647500D01*
X164105500Y-67635500D01*
X164084500Y-67621500D01*
X164065500Y-67605500D01*
X164048500Y-67587500D01*
X164032500Y-67568500D01*
X164018500Y-67547500D01*
X164007500Y-67525500D01*
X163998500Y-67502500D01*
X163991500Y-67478500D01*
X163987500Y-67453500D01*
X163985500Y-67428500D01*
X163986500Y-67403500D01*
X163989500Y-67379500D01*
X163994500Y-67354500D01*
X164002500Y-67331500D01*
X164013500Y-67308500D01*
X164025500Y-67286500D01*
X164040500Y-67266500D01*
X164056500Y-67248500D01*
X164074500Y-67231500D01*
X164094500Y-67216500D01*
X164115500Y-67203500D01*
X164138500Y-67192500D01*
X164161500Y-67183500D01*
X164185500Y-67177500D01*
X164210500Y-67173500D01*
X164235500Y-67172500D01*
X164260500Y-67173500D01*
G37*
G36*
X163540500Y-67673500D02*
G01*
X163565500Y-67677500D01*
X163589500Y-67683500D01*
X163612500Y-67692500D01*
X163635500Y-67702500D01*
X163656500Y-67715500D01*
X163676500Y-67730500D01*
X163694500Y-67747500D01*
X163710500Y-67766500D01*
X163725500Y-67786500D01*
X163737500Y-67808500D01*
X163748500Y-67831500D01*
X163756500Y-67854500D01*
X163761500Y-67879500D01*
X163764500Y-67903500D01*
X163765500Y-67928500D01*
X163763500Y-67953500D01*
X163759500Y-67978500D01*
X163752500Y-68002500D01*
X163743500Y-68025500D01*
X163732500Y-68047500D01*
X163718500Y-68068500D01*
X163702500Y-68087500D01*
X163685500Y-68105500D01*
X163666500Y-68121500D01*
X163645500Y-68135500D01*
X163623500Y-68147500D01*
X163600500Y-68157500D01*
X163577500Y-68164500D01*
X163552500Y-68169500D01*
X163527500Y-68172500D01*
X163503500Y-68172500D01*
X163478500Y-68169500D01*
X163453500Y-68164500D01*
X163430500Y-68157500D01*
X163407500Y-68147500D01*
X163385500Y-68135500D01*
X163364500Y-68121500D01*
X163345500Y-68105500D01*
X163328500Y-68087500D01*
X163312500Y-68068500D01*
X163298500Y-68047500D01*
X163287500Y-68025500D01*
X163278500Y-68002500D01*
X163271500Y-67978500D01*
X163267500Y-67953500D01*
X163265500Y-67928500D01*
X163266500Y-67903500D01*
X163269500Y-67879500D01*
X163274500Y-67854500D01*
X163282500Y-67831500D01*
X163293500Y-67808500D01*
X163305500Y-67786500D01*
X163320500Y-67766500D01*
X163336500Y-67747500D01*
X163354500Y-67730500D01*
X163374500Y-67715500D01*
X163395500Y-67702500D01*
X163418500Y-67692500D01*
X163441500Y-67683500D01*
X163465500Y-67677500D01*
X163490500Y-67673500D01*
X163515500Y-67672500D01*
X163540500Y-67673500D01*
G37*
G36*
X163540500Y-64673500D02*
G01*
X163565500Y-64677500D01*
X163589500Y-64683500D01*
X163612500Y-64692500D01*
X163635500Y-64702500D01*
X163656500Y-64715500D01*
X163676500Y-64730500D01*
X163694500Y-64747500D01*
X163710500Y-64766500D01*
X163725500Y-64786500D01*
X163737500Y-64808500D01*
X163748500Y-64831500D01*
X163756500Y-64854500D01*
X163761500Y-64879500D01*
X163764500Y-64903500D01*
X163765500Y-64928500D01*
X163763500Y-64953500D01*
X163759500Y-64978500D01*
X163752500Y-65002500D01*
X163743500Y-65025500D01*
X163732500Y-65047500D01*
X163718500Y-65068500D01*
X163702500Y-65087500D01*
X163685500Y-65105500D01*
X163666500Y-65121500D01*
X163645500Y-65135500D01*
X163623500Y-65147500D01*
X163600500Y-65157500D01*
X163577500Y-65164500D01*
X163552500Y-65169500D01*
X163527500Y-65172500D01*
X163503500Y-65172500D01*
X163478500Y-65169500D01*
X163453500Y-65164500D01*
X163430500Y-65157500D01*
X163407500Y-65147500D01*
X163385500Y-65135500D01*
X163364500Y-65121500D01*
X163345500Y-65105500D01*
X163328500Y-65087500D01*
X163312500Y-65068500D01*
X163298500Y-65047500D01*
X163287500Y-65025500D01*
X163278500Y-65002500D01*
X163271500Y-64978500D01*
X163267500Y-64953500D01*
X163265500Y-64928500D01*
X163266500Y-64903500D01*
X163269500Y-64879500D01*
X163274500Y-64854500D01*
X163282500Y-64831500D01*
X163293500Y-64808500D01*
X163305500Y-64786500D01*
X163320500Y-64766500D01*
X163336500Y-64747500D01*
X163354500Y-64730500D01*
X163374500Y-64715500D01*
X163395500Y-64702500D01*
X163418500Y-64692500D01*
X163441500Y-64683500D01*
X163465500Y-64677500D01*
X163490500Y-64673500D01*
X163515500Y-64672500D01*
X163540500Y-64673500D01*
G37*
G36*
X162935500Y-66072500D02*
G01*
X162135500Y-66072500D01*
X162135500Y-65772500D01*
X162935500Y-65772500D01*
X162935500Y-66072500D01*
G37*
G36*
X162935500Y-68072500D02*
G01*
X162135500Y-68072500D01*
X162135500Y-67772500D01*
X162935500Y-67772500D01*
X162935500Y-68072500D01*
G37*
G36*
X162935500Y-65572500D02*
G01*
X162135500Y-65572500D01*
X162135500Y-65272500D01*
X162935500Y-65272500D01*
X162935500Y-65572500D01*
G37*
G36*
X164260500Y-64173500D02*
G01*
X164285500Y-64177500D01*
X164309500Y-64183500D01*
X164332500Y-64192500D01*
X164355500Y-64203500D01*
X164376500Y-64216500D01*
X164396500Y-64231500D01*
X164414500Y-64248500D01*
X164430500Y-64266500D01*
X164445500Y-64286500D01*
X164457500Y-64308500D01*
X164468500Y-64331500D01*
X164476500Y-64354500D01*
X164481500Y-64379500D01*
X164484500Y-64403500D01*
X164485500Y-64428500D01*
X164483500Y-64453500D01*
X164479500Y-64478500D01*
X164472500Y-64502500D01*
X164463500Y-64525500D01*
X164451500Y-64547500D01*
X164438500Y-64568500D01*
X164422500Y-64587500D01*
X164405500Y-64605500D01*
X164386500Y-64621500D01*
X164365500Y-64635500D01*
X164343500Y-64647500D01*
X164320500Y-64657500D01*
X164297500Y-64664500D01*
X164272500Y-64669500D01*
X164247500Y-64672500D01*
X164223500Y-64672500D01*
X164198500Y-64669500D01*
X164173500Y-64664500D01*
X164149500Y-64657500D01*
X164127500Y-64647500D01*
X164105500Y-64635500D01*
X164084500Y-64621500D01*
X164065500Y-64605500D01*
X164048500Y-64587500D01*
X164032500Y-64568500D01*
X164018500Y-64547500D01*
X164007500Y-64525500D01*
X163998500Y-64502500D01*
X163991500Y-64478500D01*
X163987500Y-64453500D01*
X163985500Y-64428500D01*
X163986500Y-64403500D01*
X163989500Y-64379500D01*
X163994500Y-64354500D01*
X164002500Y-64331500D01*
X164013500Y-64308500D01*
X164025500Y-64286500D01*
X164040500Y-64266500D01*
X164056500Y-64248500D01*
X164074500Y-64231500D01*
X164094500Y-64216500D01*
X164115500Y-64203500D01*
X164138500Y-64192500D01*
X164161500Y-64183500D01*
X164185500Y-64177500D01*
X164210500Y-64173500D01*
X164235500Y-64172500D01*
X164260500Y-64173500D01*
G37*
G36*
X163540500Y-66673500D02*
G01*
X163565500Y-66677500D01*
X163589500Y-66683500D01*
X163612500Y-66692500D01*
X163635500Y-66702500D01*
X163656500Y-66715500D01*
X163676500Y-66730500D01*
X163694500Y-66747500D01*
X163710500Y-66766500D01*
X163725500Y-66786500D01*
X163737500Y-66808500D01*
X163748500Y-66831500D01*
X163756500Y-66854500D01*
X163761500Y-66879500D01*
X163764500Y-66903500D01*
X163765500Y-66928500D01*
X163763500Y-66953500D01*
X163759500Y-66978500D01*
X163752500Y-67002500D01*
X163743500Y-67025500D01*
X163732500Y-67047500D01*
X163718500Y-67068500D01*
X163702500Y-67087500D01*
X163685500Y-67105500D01*
X163666500Y-67121500D01*
X163645500Y-67135500D01*
X163623500Y-67147500D01*
X163600500Y-67157500D01*
X163577500Y-67164500D01*
X163552500Y-67169500D01*
X163527500Y-67172500D01*
X163503500Y-67172500D01*
X163478500Y-67169500D01*
X163453500Y-67164500D01*
X163430500Y-67157500D01*
X163407500Y-67147500D01*
X163385500Y-67135500D01*
X163364500Y-67121500D01*
X163345500Y-67105500D01*
X163328500Y-67087500D01*
X163312500Y-67068500D01*
X163298500Y-67047500D01*
X163287500Y-67025500D01*
X163278500Y-67002500D01*
X163271500Y-66978500D01*
X163267500Y-66953500D01*
X163265500Y-66928500D01*
X163266500Y-66903500D01*
X163269500Y-66879500D01*
X163274500Y-66854500D01*
X163282500Y-66831500D01*
X163293500Y-66808500D01*
X163305500Y-66786500D01*
X163320500Y-66766500D01*
X163336500Y-66747500D01*
X163354500Y-66730500D01*
X163374500Y-66715500D01*
X163395500Y-66702500D01*
X163418500Y-66692500D01*
X163441500Y-66683500D01*
X163465500Y-66677500D01*
X163490500Y-66673500D01*
X163515500Y-66672500D01*
X163540500Y-66673500D01*
G37*
D10*
X139236000Y-63179000D03*
X139736000Y-63179000D03*
X140236000Y-63179000D03*
X140736000Y-63179000D03*
X141236000Y-63179000D03*
X141736000Y-63179000D03*
X142236000Y-63179000D03*
X142736000Y-63179000D03*
X143236000Y-63179000D03*
X143736000Y-63179000D03*
X144236000Y-63179000D03*
X144736000Y-63179000D03*
D11*
X162535500Y-63922500D03*
X162535500Y-64422500D03*
X162535500Y-64922500D03*
X162535500Y-65422500D03*
X162535500Y-65922500D03*
X162535500Y-66422500D03*
X162535500Y-66922500D03*
X162535500Y-67422500D03*
X162535500Y-67922500D03*
X162535500Y-68422500D03*
X162535500Y-68922500D03*
X162535500Y-69422500D03*
D12*
X164235500Y-69422500D03*
X163515500Y-68922500D03*
X164235500Y-68422500D03*
X163515500Y-67922500D03*
X164235500Y-67422500D03*
X163515500Y-66922500D03*
X164235500Y-66422500D03*
X163515500Y-65922500D03*
X164235500Y-65422500D03*
X163515500Y-64922500D03*
X164235500Y-64422500D03*
X163515500Y-63922500D03*
D13*
X162885500Y-71022500D03*
X162885500Y-62322500D03*
M02*
