G04 #@! TF.GenerationSoftware,KiCad,Pcbnew,6.0.11-2627ca5db0~126~ubuntu22.04.1*
G04 #@! TF.CreationDate,2023-02-09T23:48:25+01:00*
G04 #@! TF.ProjectId,PDLeech,50444c65-6563-4682-9e6b-696361645f70,rev?*
G04 #@! TF.SameCoordinates,Original*
G04 #@! TF.FileFunction,Paste,Bot*
G04 #@! TF.FilePolarity,Positive*
%FSLAX46Y46*%
G04 Gerber Fmt 4.6, Leading zero omitted, Abs format (unit mm)*
G04 Created by KiCad (PCBNEW 6.0.11-2627ca5db0~126~ubuntu22.04.1) date 2023-02-09 23:48:25*
%MOMM*%
%LPD*%
G01*
G04 APERTURE LIST*
G04 Aperture macros list*
%AMRoundRect*
0 Rectangle with rounded corners*
0 $1 Rounding radius*
0 $2 $3 $4 $5 $6 $7 $8 $9 X,Y pos of 4 corners*
0 Add a 4 corners polygon primitive as box body*
4,1,4,$2,$3,$4,$5,$6,$7,$8,$9,$2,$3,0*
0 Add four circle primitives for the rounded corners*
1,1,$1+$1,$2,$3*
1,1,$1+$1,$4,$5*
1,1,$1+$1,$6,$7*
1,1,$1+$1,$8,$9*
0 Add four rect primitives between the rounded corners*
20,1,$1+$1,$2,$3,$4,$5,0*
20,1,$1+$1,$4,$5,$6,$7,0*
20,1,$1+$1,$6,$7,$8,$9,0*
20,1,$1+$1,$8,$9,$2,$3,0*%
G04 Aperture macros list end*
%ADD10C,0.750000*%
%ADD11O,2.100000X0.900000*%
%ADD12RoundRect,0.250000X0.475000X-0.337500X0.475000X0.337500X-0.475000X0.337500X-0.475000X-0.337500X0*%
%ADD13RoundRect,0.237500X-0.237500X0.250000X-0.237500X-0.250000X0.237500X-0.250000X0.237500X0.250000X0*%
%ADD14RoundRect,0.237500X-0.250000X-0.237500X0.250000X-0.237500X0.250000X0.237500X-0.250000X0.237500X0*%
%ADD15RoundRect,0.054000X-0.396000X-1.346000X0.396000X-1.346000X0.396000X1.346000X-0.396000X1.346000X0*%
%ADD16R,2.500000X5.000000*%
%ADD17RoundRect,0.237500X0.250000X0.237500X-0.250000X0.237500X-0.250000X-0.237500X0.250000X-0.237500X0*%
%ADD18RoundRect,0.237500X0.237500X-0.250000X0.237500X0.250000X-0.237500X0.250000X-0.237500X-0.250000X0*%
%ADD19RoundRect,0.250000X-0.475000X0.337500X-0.475000X-0.337500X0.475000X-0.337500X0.475000X0.337500X0*%
%ADD20RoundRect,0.140000X0.560000X1.810000X-0.560000X1.810000X-0.560000X-1.810000X0.560000X-1.810000X0*%
%ADD21RoundRect,0.150000X0.587500X0.150000X-0.587500X0.150000X-0.587500X-0.150000X0.587500X-0.150000X0*%
%ADD22R,0.610000X0.650000*%
%ADD23R,0.250000X0.500000*%
G04 APERTURE END LIST*
D10*
X164235500Y-69422500D03*
X163515500Y-68922500D03*
X164235500Y-68422500D03*
X163515500Y-67922500D03*
X164235500Y-67422500D03*
X163515500Y-66922500D03*
X164235500Y-66422500D03*
X163515500Y-65922500D03*
X164235500Y-65422500D03*
X163515500Y-64922500D03*
X164235500Y-64422500D03*
X163515500Y-63922500D03*
D11*
X162885500Y-71022500D03*
X162885500Y-62322500D03*
D12*
X160147000Y-74443500D03*
X160147000Y-72368500D03*
D13*
X163957000Y-58777500D03*
X163957000Y-60602500D03*
D14*
X158345500Y-70776500D03*
X160170500Y-70776500D03*
D15*
X138486000Y-71655000D03*
X140986000Y-71655000D03*
X142986000Y-71655000D03*
X145486000Y-71655000D03*
D16*
X149236000Y-69405000D03*
X134736000Y-69405000D03*
D12*
X153797000Y-69429048D03*
X153797000Y-67354048D03*
D17*
X157933000Y-65786000D03*
X156108000Y-65786000D03*
D18*
X158369000Y-74130048D03*
X158369000Y-72305048D03*
D19*
X160020000Y-67072000D03*
X160020000Y-69147000D03*
D20*
X156567000Y-72582548D03*
X153567000Y-72582548D03*
D21*
X156053000Y-62296000D03*
X156053000Y-64196000D03*
X154178000Y-63246000D03*
D18*
X162433000Y-60626000D03*
X162433000Y-58801000D03*
D12*
X151765000Y-69450548D03*
X151765000Y-67375548D03*
D21*
X152116000Y-62296000D03*
X152116000Y-64196000D03*
X150241000Y-63246000D03*
D18*
X157909500Y-64158500D03*
X157909500Y-62333500D03*
D22*
X157391000Y-68518548D03*
X156591000Y-68518548D03*
X155791000Y-68518548D03*
D23*
X155591000Y-67568548D03*
X156091000Y-67568548D03*
X156591000Y-67568548D03*
X157091000Y-67568548D03*
X157591000Y-67568548D03*
X157591000Y-69468548D03*
X157091000Y-69468548D03*
X156591000Y-69468548D03*
X156091000Y-69468548D03*
X155591000Y-69468548D03*
D21*
X156639500Y-58740000D03*
X156639500Y-60640000D03*
X154764500Y-59690000D03*
X160576500Y-58740000D03*
X160576500Y-60640000D03*
X158701500Y-59690000D03*
M02*
