M48
; DRILL file {KiCad 6.0.11-2627ca5db0~126~ubuntu22.04.1} date Thu 09 Feb 2023 11:48:29 PM CET
; FORMAT={-:-/ absolute / metric / decimal}
; #@! TF.CreationDate,2023-02-09T23:48:29+01:00
; #@! TF.GenerationSoftware,Kicad,Pcbnew,6.0.11-2627ca5db0~126~ubuntu22.04.1
; #@! TF.FileFunction,Plated,1,4,PTH
FMAT,2
METRIC
; #@! TA.AperFunction,Plated,PTH,ViaDrill
T1C0.200
; #@! TA.AperFunction,Plated,PTH,ComponentDrill
T2C0.400
; #@! TA.AperFunction,Plated,PTH,ComponentDrill
T3C0.450
; #@! TA.AperFunction,Plated,PTH,ComponentDrill
T4C0.500
%
G90
G05
T1
X132.894Y-62.427
X132.894Y-63.427
X132.894Y-64.427
X132.894Y-65.427
X132.894Y-73.427
X133.894Y-62.427
X133.894Y-63.427
X133.894Y-64.427
X133.894Y-65.427
X133.894Y-73.427
X134.894Y-62.427
X134.894Y-63.427
X134.894Y-64.427
X134.894Y-65.427
X134.894Y-73.427
X135.894Y-73.427
X136.894Y-58.427
X137.541Y-62.865
X137.922Y-61.849
X138.811Y-60.96
X140.716Y-63.754
X141.224Y-62.484
X141.661Y-69.723
X142.24Y-62.484
X142.311Y-69.723
X143.002Y-62.484
X143.256Y-63.754
X145.542Y-69.723
X147.066Y-72.644
X147.701Y-69.723
X147.828Y-61.722
X147.955Y-72.644
X148.59Y-62.484
X148.844Y-72.644
X149.606Y-72.644
X149.86Y-62.611
X150.368Y-72.644
X151.894Y-76.427
X152.894Y-76.427
X153.894Y-76.427
X154.894Y-76.427
X155.894Y-76.427
X156.894Y-76.427
X157.894Y-76.427
X157.988Y-67.31
X158.369Y-69.977
X158.877Y-67.183
X158.894Y-76.427
X159.894Y-76.427
X160.02Y-66.167
X160.069Y-62.551
X160.894Y-76.427
X160.972Y-66.358
X161.163Y-66.955
X161.163Y-71.374
X161.544Y-72.263
X161.607Y-65.977
X161.671Y-67.818
T2
X139.186Y-64.489
X139.586Y-65.189
X140.386Y-65.189
X140.786Y-64.489
X141.186Y-65.189
X141.586Y-64.489
X142.386Y-64.489
X142.786Y-65.189
X143.186Y-64.489
X143.586Y-65.189
X144.386Y-65.189
X144.786Y-64.489
T3
X163.516Y-63.922
X163.516Y-64.922
X163.516Y-65.922
X163.516Y-66.922
X163.516Y-67.922
X163.516Y-68.922
X164.236Y-64.422
X164.236Y-65.422
X164.236Y-66.422
X164.236Y-67.422
X164.236Y-68.422
X164.236Y-69.422
T4
X137.496Y-69.169G85X137.496Y-69.769
G05
X137.856Y-64.789G85X137.856Y-65.389
G05
X146.116Y-64.789G85X146.116Y-65.389
G05
X146.476Y-69.169G85X146.476Y-69.769
G05
X162.285Y-62.322G85X163.486Y-62.322
G05
X162.285Y-71.022G85X163.486Y-71.022
G05
T0
M30
